<?xml version="1.0" ?>
<svg data-name="Layer 4" id="Layer_4" viewBox="0 0 600 600" xmlns="http://www.w3.org/2000/svg">
  <title/>
  <style>
    path {
      fill: #fff;
    }
  </style>
  <path d="M231.129,102.574C205.418,133.655,137.044,224.55,89.243,306.89c.222,8.038,7.821,9.971,13.382,13.465C177.267,358.67,256.8,386.366,336.033,413.37c3.329,1.372,4.878-1.651,6.388-3.934C386.16,341,428.179,271.546,475.765,205.612c3.731-4.807.907-9.557-4.065-11.773-22.83-11.614-45.754-23.141-69.554-32.652-53.789-19.95-107.264-40.729-161.107-60.526C238.67,100.065,233.2,100.069,231.129,102.574Zm95.992,236.183c22.522,12.088,8.754,40.5-12.46,41.235C273.769,379.08,292.73,323.58,327.121,338.757Zm-31.813-72.481c-4.49,7.69-10.257,13.848-19.752,15.307-34.065,1.429-28.143-45.749,2.425-45.489A19.919,19.919,0,0,1,295.308,266.276Zm-27.46-100.3c-3.172,8.8-8.867,15.132-17.656,18.635-12.576,5.013-28.6-4.231-27.5-20.193.265-13.87,9.026-24.1,22.161-26C258.865,136.4,272.848,152.1,267.848,165.975Z"/>
  <path d="M533.463,329.48c-3.439-34.291-15.533-75.6-28.465-108.255-2.811-7.1-9.063-7.379-13.65-1.456-7.945,10.261-16.16,20.34-23.585,30.969-37.966,55.369-73.9,112.453-105.435,171.737-1.095,2.225-1.615,4-.489,6.465,3.029,6.651,5.613,13.5,8.534,20.2,13.441,29.358,25.512,59.285,37.416,89.292,1.453,4.171,4.841,9.94,9.784,6.426,2.634-1.956,5.293-3.828,6.72-7.133,36.7-61.844,76.332-122.531,105.2-188.606C532.409,342.854,534.833,336.513,533.463,329.48ZM467.6,399.943c-9.139,10-26.356,8.6-27.033-7.707a40.1,40.1,0,0,1,6.361-15.938c5.507-7.973,18.188-20.351,28.34-13.443C486.817,370.149,475,392.864,467.6,399.943Z"/>
  <path d="M334.659,436.145a7.484,7.484,0,0,0-4.445-4.418c-43.65-15.7-87.829-29.987-130.421-48.561-31.4-12.833-63.366-24.325-94.447-37.961-9.653-3.751-18.339-10.56-28.488-12.87-5.1-.573-8.332,3.566-6.639,8.337,13.75,40.758,35.946,77.864,55.468,116.005a22.733,22.733,0,0,0,9.818,10.112c73.769,41.339,155.194,65.895,236.786,86.72,2.906.077,4.606-1.28,6.084-3.692,2.91-4.192-1.525-7.395-2.709-11.278-11.131-25.471-20.337-51.715-30.555-77.555C341.84,452.622,338.128,444.432,334.659,436.145ZM119.247,384.98c1.54-2.942,4.4-3.849,7.318-3.957,6.842.446,12.539,2.851,18.387,6.136,26.168,14.7,11.308,24.013,4.787,22.708C140.857,407.459,113.481,397.375,119.247,384.98Zm53,82.718c-7.787,0-17.525-5.714-24.717-12.287-5.37-4.909-1.157-13.173,6.367-12.5,7.738,1.8,14.962,6.364,21.988,10.288C181.148,456.136,187.488,467.707,172.247,467.7Zm24.028-45.426c2.1-5.027,6.6-6.248,11.849-6.226a34.356,34.356,0,0,1,24.08,13.966c6.044,8.616-3.094,15.072-11.605,12.5C212.139,441.043,192.891,433.3,196.275,422.272Zm43.8,73.013c-7.927-.014-32.72-6.144-29.273-17.3,1.225-4.4,5.458-5.164,9.564-5.2,9.386.9,17.786,4.942,25.264,11.02C250.336,487.23,247.586,495.3,240.072,495.285Zm45.04-50.15a38.934,38.934,0,0,1,22.572,9.092c7.351,6.231,2.814,22.067-29.76,5.515C268.867,455.14,276.514,445.056,285.112,445.135Zm32.193,71.138c-7.914,2.325-15.57-2.224-22.764-4.937-10.338-5.075-6.181-16.4,5.189-16.043a37.018,37.018,0,0,1,20.421,9.558C324.269,508.648,322.6,514.212,317.305,516.273Z"/>
  <path d="M565.175,32.786c-28.98,21.849-64.64,64.1-99.019,45.423-16.907-9.183-11.36-42.519-15.769-60.454-.229-2.316-4.162-7.354-6.234-4.294-6.011,9.8-4.905,61.385-52.92,50.612-4.385-.984-4.331,5.972-.695,8.707,68.129,17.224,124.484,43.652,151.77,113.4.012.039.025.077.038.116,1.514,4.475,8.22,3.436,8.415-1.284,1.145-27.628,13.887-34.646,32.655-36.782a4.063,4.063,0,0,0,1.208-7.742C524.336,113.2,534.885,82.213,570.9,38.769A4.168,4.168,0,0,0,565.175,32.786Z"/>
  <path d="M16.432,504.462c65.974,13.093,51.067,49.969,25.913,79.282-.567.66-.9,2.246-.566,2.552a4.565,4.565,0,0,0,3.049,1.2c26.044-11.326,54.208-15.929,82.493-16.632,4.2-.256,8.978.458,13.266-.166a3.07,3.07,0,0,0,.4-5.968C128.173,560.86,101.328,549.5,77.7,518.339c-24.354-32.118-25.108-56.883-25.87-83.22-.093-3.208-5.01-3.416-6.182-.428-4.033,10.278-3.1,25.883-6,36.964-2.066,9.45-16.034,16.368-23.208,21.757C12.288,496.336,11.39,503.461,16.432,504.462Z"/>
  <path d="M331.206,64.461c.289,1.156,1.581,2.235,3.138,3.15a19.315,19.315,0,0,0,13.724,2.147c3.654-.765,7.16-2.38,6.1-5.791C350.156,53.853,329.361,53.86,331.206,64.461Z"/>
  <path d="M183.873,566.3c-12.584.264-11.839,11.292.119,11.574C195.847,577.492,196.492,566.273,183.873,566.3Z"/>
</svg>
