<?xml version="1.0" ?><svg id="icon" viewBox="0 0 512 512" xmlns="http://www.w3.org/2000/svg"><title/><path d="M482,282.33a9,9,0,0,0-8.61-6.54,10.57,10.57,0,0,0-4.51,1.21,9.35,9.35,0,0,0-4.1,5.33,10,10,0,0,0-.52,3.12,9.44,9.44,0,0,0,1.05,6.57,9.13,9.13,0,0,0,12.48,3.26,9.45,9.45,0,0,0,4.19-5.43A14.64,14.64,0,0,0,482,282.33Z"/><path d="M379.28,50.24c3.57,4.49,7.52,9.21,12.42,12.3C397.57,66.23,406.61,60,404,53.1c-4-10.61-15.26-20.7-26.45-23.26-3.58-.82-8.05,2.5-6.52,6.49A54.77,54.77,0,0,0,379.28,50.24Z"/><path d="M78.44,389a10.79,10.79,0,0,0-20.8,5.72,9.33,9.33,0,0,0,1.27,3,10.67,10.67,0,0,0,3.78,3.77,10.52,10.52,0,0,0,14.39-3.77,1.43,1.43,0,0,1,.15-.27l-.21.27A10.66,10.66,0,0,0,78.44,389Z"/><path d="M362.17,452.74a7.3,7.3,0,0,0-4.05-5.36c-11.64-5-23.36-5.08-35.78-6.11-13.66-1.14-23-8.93-35.16-14.29-11.49-5.09-23.69-7.69-36.15-9-10.77-1.14-23.77-2.73-34.72-.45a3.67,3.67,0,0,0-4.22,1.23,6.27,6.27,0,0,0-1.22,10.07c3.22,9.73,19.84,14,27.72,18.62,14.79,8.62,22.2,25.42,38.54,31.73,15.14,5.84,32.31,2.38,47.49-1.45,9-2.28,18.48-4.14,27.26-7.22,7.65-2.68,12.6-7.33,11.2-15.82A3.9,3.9,0,0,0,362.17,452.74Z"/><path d="M418.25,442.92a7.71,7.71,0,0,0-2.15-3.33L414,438a10.27,10.27,0,0,0-5.24-1.41l-.26,0a13,13,0,0,0-5.9,1.37l-.22.13a10.31,10.31,0,0,0-5.06,8.79,10.09,10.09,0,0,0,1.39,5.14,10.3,10.3,0,0,0,3.67,3.66c.83.39,1.76.8,2.63,1.11a7.59,7.59,0,0,0,1.76.32,13.24,13.24,0,0,0,1.69.19,16,16,0,0,0,3.06-.43,11.58,11.58,0,0,0,6.2-4.75l1-2.47a7.81,7.81,0,0,0,.18-4.12A5.15,5.15,0,0,0,418.25,442.92Z"/><path d="M448.17,322.91c-5.17,8-15.44,16.17-21.45,18.11-2.77.9-10.2,3.25-13,1-3.07-2.52,2-10.24,3.53-12.91,5.37-9.44,12.82-17.49,19.13-26.28A136,136,0,0,0,452,273.63c16.45-41.23,20.58-91.91,8.79-134.86-5.82-21.17-17.08-42.42-36.13-54.43a6.48,6.48,0,0,0-6.75-.21,4.94,4.94,0,0,0-5.89,7c4.3,9.83,8.3,24.68,2.15,34.56-4.94,7.92-13.53,8.64-20.67,3.07-15.68-12.23-19.06-35.42-30.18-51.15-25.85-36.56-72.45-46.19-114.63-40.16-4.94.71-9.8,1.67-14.64,2.74-4.89.73-9.79,1.4-14.61,2.47-20.33,4.54-29.8,8.35-51.73,7.59-7.37-.25-14.74-.65-22.12-.65-13.75,0-27.86,1.17-40.91,5.76A71.21,71.21,0,0,0,74.41,75.2c-4.42,5-8.29,10.49-13.06,15.17s-9.61,7.17-15.64,9.24a4,4,0,0,0-2.59.72c-2.66-.82-5.95,1.46-4.95,4.58,2.73,8.49,11,10.92,19.15,11.64,4.74.41,9.78-.12,14.35,1.42,6.78,2.28,6.64,8,4.83,13.48A249.31,249.31,0,0,0,59.58,158.7,255.08,255.08,0,0,0,36,221,249.6,249.6,0,0,0,30,293a218.18,218.18,0,0,0,3.3,26.89A106.57,106.57,0,0,0,39,346.82a122.17,122.17,0,0,0,6.87,16.83c2.15,4.31,9.2,5.28,12.37,1.59C73.41,347.6,95.1,380,99,392.43c5.45,17.62,3.24,36.85,11.68,53.66,9,18,28.26,23.51,46.54,27.53,22.62,5,45.74,8.91,68.54,2.75,8.7-2.35,7.45-13.62,1-16.47a7.3,7.3,0,0,0-6-2.39c-36.38,1.23-52.38-30.82-63.43-60.18a287.67,287.67,0,0,0-21-45c-11.89-20.17-11.58-48.2-9.08-56.15,3.43-10.88,9.53-22.44,18.92-29.35-.21,1.73-.36,3.47-.47,5.21-6.58,20.66.78,45.83,12.55,62.84,3.88,5.61,11.58,4.43,13.93-1.81,3-7.85,2.69-16,2.06-24.22s-1.67-16.78,3.25-23.93c4.44-6.47,11.33-11,16.78-16.51,5.84-5.95,10.24-13,14.21-20.25,7.67-14.08,15.45-28.94,31.3-35.21a31.5,31.5,0,0,1,13.1-2.09,12.5,12.5,0,0,1,8,21.49c-21.37,20.92-33.14,50.36-34.45,80.45-.9,20.88,4.44,39.67,19.07,55,7,7.28,15.15,13.54,23.46,19.24,17.14,11.76,43.05,17.83,54.57,19.87,19.62,3.46,40.08,2.84,59.18-3.05,19.71-6.08,36.38-17.82,51.63-31.38,13.75-12.22,25.7-27.17,26.18-46.27C460.75,317.28,451.22,318.19,448.17,322.91ZM95.36,304.77c-2.15,7.38-11.11,13.15-17.53,8-9.79-7.79-4.22-23.45,1-29.39,4.78-5.39,15.38-2.76,16.7,4.4C96.6,293.37,97,299.27,95.36,304.77ZM212.61,146.11c-11,6.33-23.51,9.55-34.48,16-9.74,5.68-17.93,13.44-25.33,21.86-7.53,8.59-14.1,17.92-20.7,27.22s-12.8,19-23.06,24.59c-7.34,4-15.29,3.11-15.28-3.9,0-29.53,17.29-60.76,34.84-84.21,8.5-11.37,20.09-21.34,34.94-22.24,7.44-.46,13.71,2.12,20.44,4.85,7.53,3,14.72,3.77,22.61,1.65C215.16,129.58,220.29,141.71,212.61,146.11Zm140.93,5.64c.44-4.1,4.13-6.41,8-4.56,3.36,1.62,4.93,4.52,7.24,7.35,2.19,2.67,4.88,4.65,7,7.34,4.44,5.58,10,10.39,14,16.27,4.51,6.65-4.05,13.18-10.2,10.17-6.77-3.32-12.61-10.07-17.22-15.92C358.65,167.74,352.89,157.84,353.54,151.75Zm42.09,146.19c-3.85,17.19-12.26,34.42-26.23,45.41a62.26,62.26,0,0,1-22.87,11.32,45.84,45.84,0,0,1-12.16,3.18c-12.66,1.49-26.59-3.44-36.43-12a40,40,0,0,1-7.54-7.1,53,53,0,0,1-11.28-25c-3.12-19.46,3.57-44.34,21.29-53.71,12.41-6.56,10.15,10.3,10.11,10.35.65,3.69,1.58,7.16,5,9.89,4.49,3.58,11.63,3.08,15.94-.59,5.3-4.53,5-13.45,5.33-19.77a149.7,149.7,0,0,0-1-24.77c-4-32.26-25.68-58.32-31.6-90-1.23-6.63,7.12-11.23,11.29-6,2.92,1.88,5.66,6.59,6.43,8,4.13,7.75,8.63,15.21,13.43,22.57a222.77,222.77,0,0,0,32.11,39c12.08,11.6,22.62,22.68,27.94,38.93C399.53,260.38,399.53,280.52,395.63,297.94Z"/></svg>