<?xml version="1.0" ?><!DOCTYPE svg  PUBLIC '-//W3C//DTD SVG 1.1//EN'  'http://www.w3.org/Graphics/SVG/1.1/DTD/svg11.dtd'><svg enable-background="new 0 0 100 100" height="100px" version="1.1" viewBox="0 0 100 100" width="100px" xml:space="preserve" xmlns="http://www.w3.org/2000/svg" xmlns:xlink="http://www.w3.org/1999/xlink"><g id="Layer_1"/><g id="Layer_14_xA0_Image"/><g id="Layer_12_xA0_Image"/><g id="Layer_9_xA0_Image"/><g id="Layer_11_xA0_Image"/><g id="Layer_13_xA0_Image"/><g id="Layer_10_xA0_Image"><g><path clip-rule="evenodd" d="M73.222,73.364c-3.261,2.371-7.085,2.87-10.953,3.104    c-1.917,0.117-3.782-0.383-5.649-0.79c-1.95-0.427-3.808-1.067-5.583-1.961c-2.789-1.408-5.351-3.181-7.554-5.378    c-1.702-1.695-3.436-3.405-4.499-5.651c-1.053-2.223-2.037-4.477-2.684-6.835c-0.922-3.369-1.324-6.807-0.902-10.334    c0.32-2.659,0.809-5.238,1.995-7.653c1.746-3.562,4.237-6.539,7.126-9.24c2.723-2.544,5.822-4.496,9.322-5.625    c3.16-1.019,6.42-1.695,9.854-1.195c2.927,0.425,5.758,0.956,8.308,2.533c0.479,0.295,1,0.523,1.503,0.785    c-0.523-0.887-1.276-1.467-1.985-2.103c-3.5-3.14-7.658-4.856-12.179-5.885c-1.109-0.253-2.272-0.178-3.334-0.636    c-2.281,0-4.564,0-6.846,0c-0.734,0.556-1.631,0.269-2.439,0.401c-4.222,0.697-8.101,2.234-11.852,4.251    c-2.342,1.26-4.426,2.857-6.242,4.711c-3.605,3.683-6.885,7.666-8.786,12.554c-2.659,6.834-3.162,13.806-1.034,20.876    c1.33,4.413,3.666,8.279,6.485,11.906c2.099,2.7,4.658,4.875,7.415,6.771c2.772,1.903,5.864,3.231,9.165,4.089    c2.108,0.546,4.211,1.004,6.375,1.208c0.149,0.015,0.257,0.077,0.293,0.231c1.87,0,3.733,0,5.601,0    c0.034-0.154,0.142-0.218,0.292-0.231c2.729-0.243,5.327-1.019,7.926-1.844c5.013-1.584,9.281-4.265,12.619-8.356    c0.399-0.49,0.81-1.027,0.651-1.899C74.739,71.989,74.044,72.766,73.222,73.364z" fill-rule="evenodd"/><path clip-rule="evenodd" d="M65.717,49.165c-3.289-1.119-4.604-3.927-5.82-7.083    c-1.133,2.991-2.256,5.915-5.824,7.182c4,2.437,4.722,6.215,5.197,10.025c0.75-0.074,0.787-0.461,0.869-0.839    c0.769-3.419,2.103-6.489,5.25-8.432C65.664,49.849,65.848,49.6,65.717,49.165z" fill-rule="evenodd"/><path clip-rule="evenodd" d="M79.1,53.748c-1.083,0.852-0.812,2.029-1.276,2.894    c-0.545,1.013-1.865,0.987-2.627,2.164c2.806,0.631,2.688,3.062,3.459,5.036c0.872-2.101,1.215-4.45,3.861-5.362    C80.217,57.699,79.573,55.856,79.1,53.748z" fill-rule="evenodd"/><path clip-rule="evenodd" d="M44.67,55.901c1.154,0.808,1.59,1.934,1.838,3.501    c0.713-1.446,1.072-2.72,2.524-3.347c-1.128-0.767-1.308-1.939-2.026-2.947C46.233,54.092,45.618,55.061,44.67,55.901z" fill-rule="evenodd"/><path clip-rule="evenodd" d="M78.172,42.378c0.694,0.025,1.128-0.267,1.027-1.06    c-0.064-0.786-0.203-1.516-1.237-1.548c-0.872-0.028-1.153,0.506-1.141,1.244C76.837,41.869,77.316,42.347,78.172,42.378z" fill-rule="evenodd"/><path clip-rule="evenodd" d="M61.701,66.826c-0.048,0.637,0.354,0.925,0.98,0.911    c0.791-0.014,0.927-0.542,0.955-1.189c0.03-0.638-0.254-1.011-0.884-1.008C61.934,65.546,61.749,66.192,61.701,66.826z" fill-rule="evenodd"/></g></g><g id="Layer_2_xA0_Image"/><g id="From_selection_xA0_Image"/><g id="Inserted_Image_xA0_Image"/></svg>