<?xml version="1.0" ?><!DOCTYPE svg  PUBLIC '-//W3C//DTD SVG 1.1//EN'  'http://www.w3.org/Graphics/SVG/1.1/DTD/svg11.dtd'>
<svg enable-background="new 0 0 100 100" height="100px" version="1.1" viewBox="0 0 100 100" width="100px" xml:space="preserve" xmlns="http://www.w3.org/2000/svg" xmlns:xlink="http://www.w3.org/1999/xlink">
  <g id="Layer_1"/>
  <g id="Layer_14_xA0_Image"/>
  <g id="Layer_12_xA0_Image"/>
  <g id="Layer_9_xA0_Image"/>
  <g id="Layer_11_xA0_Image"/>
  <g id="Layer_13_xA0_Image"/>
  <g id="Layer_10_xA0_Image"/>
  <g id="Layer_2_xA0_Image">
    <g>
      <path clip-rule="evenodd" d="M77.316,8.006c-0.213-0.838-0.641-1.546-1.394-2.024    c-0.917-0.579-1.951-0.778-2.997-0.8c-1.925-0.041-3.859,0.1-5.778-0.094c-1.636-0.167-3.281-0.407-4.909-0.31    c-1.292,0.078-2.577,0.126-3.865,0.078c-1.393-0.051-2.768-0.128-4.176-0.008c-2.521,0.213-5.069,0.139-7.595-0.047    c-1.735-0.129-3.48-0.248-5.205-0.267c-3.353-0.037-6.714-0.236-10.065,0.124c-1.789,0.192-3.601-0.115-5.391,0.187    C24.625,5.065,23.608,5.654,23,6.907c-0.574,1.19-0.531,2.485-0.604,3.722c-0.116,2.029-0.051,4.074,0.1,6.114    c0.129,1.701,0.059,3.416,0.065,5.125c0.016,4.14,0.023,8.28,0.039,12.42c0.004,1.342-0.071,2.696,0.055,4.029    c0.142,1.481,0.097,2.959,0.12,4.438c0.115,7.678-0.103,15.358,0.177,23.035c0.079,2.139,0.021,4.282,0.055,6.423    c0.074,4.82-0.129,9.646,0.186,14.463c0.146,2.265-0.087,4.539,0.246,6.8c0.193,1.32,1.872,2.441,3.143,1.966    c0.236-0.089,0.463-0.13,0.706-0.131c0.996-0.006,1.992,0,2.986-0.01c9.145-0.088,18.289,0.167,27.431-0.142    c1.894-0.064,3.791-0.009,5.687-0.009c1.891,0.001,3.781-0.036,5.676,0.079c1.979,0.118,3.988,0.33,5.984-0.105    c0.625-0.136,1.051-0.379,1.28-0.911c0.202-0.466,0.639-0.924,0.487-1.438c-0.167-0.565-0.138-1.106-0.114-1.662    c0.065-1.628,0.218-3.252,0.168-4.885c-0.03-1.012-0.03-2.025-0.022-3.039c0.077-7.791-0.122-15.585,0.179-23.375    c0.062-1.591,0.075-3.181-0.033-4.777c-0.082-1.251,0.058-2.518,0.073-3.778c0.099-7.697-0.116-15.396,0.196-23.091    c0.055-1.319,0.04-2.646-0.119-3.96c-0.077-0.63,0.136-1.226,0.154-1.844c0.085-2.733-0.048-5.465,0.19-8.203    C77.666,12.129,77.833,10.041,77.316,8.006z M76.383,13.958c-0.257,3.622,0.005,7.25-0.186,10.867    c-0.38,7.224-0.046,14.451-0.184,21.676c-0.032,1.652,0.08,3.314-0.053,4.957c-0.304,3.771-0.102,7.544-0.175,11.316    c-0.079,4.149,0.072,8.306-0.091,12.451c-0.18,4.563-0.047,9.123-0.125,13.683c-0.021,1.257-0.016,2.516-0.021,3.775    c-0.003,0.947-0.668,1.668-1.622,1.654c-2.344-0.039-4.688-0.073-7.032-0.185c-2.287-0.11-4.583-0.037-6.874-0.036    c-4.097,0.002-8.196-0.08-12.288,0.039c-5.26,0.152-10.521,0.152-15.781,0.216c-0.964,0.011-1.944,0.043-2.904,0.061    c-1.222,0.022-2.471,0.003-3.7-0.119c-0.57-0.057-0.833-0.496-0.859-1.025c-0.044-0.862-0.05-1.727-0.051-2.591    c-0.003-3.907,0.001-7.816,0.007-11.724c0-0.263,0.012-0.521-0.241-0.722c0.226-0.323,0.241-0.615,0.241-0.922    c-0.011-2.837,0.102-5.68-0.044-8.51c-0.294-5.799-0.103-11.599-0.196-17.397c-0.017-1.16,0.034-2.321-0.021-3.478    c-0.333-7-0.134-14.005-0.2-21.007c-0.046-4.659-0.058-9.318-0.073-13.976c-0.001-0.423-0.019-0.825-0.326-1.216    c0.327-0.097,0.33-0.336,0.327-0.597c-0.007-0.864-0.006-1.729,0.003-2.592c0.014-1.386,1.044-2.443,2.422-2.442    c8.062,0.004,16.123,0.027,24.184,0.025c1.895-0.001,3.798-0.032,5.681,0.065c1.875,0.097,3.744,0.132,5.616,0.137    c0.6,0.001,1.173-0.239,1.785-0.164c2.579,0.312,5.173,0.077,7.756,0.188c1.109,0.046,2.223,0.175,3.304,0.469    c0.139,0.038,0.293,0.107,0.38,0.212c0.58,0.687,1.106,1.338,1.254,2.332C76.519,10.916,76.487,12.442,76.383,13.958z" fill-rule="evenodd"/><path clip-rule="evenodd" d="M70.756,63.094c-1.454-1.051-2.062-2.512-2.233-4.236    c-0.128-1.287,0.268-2.484,0.528-3.708c0.193-0.9-0.005-1.626-0.717-2.325c-1.13-1.109-2.498-1.849-3.771-2.736    c-2.091-1.462-2.915-4.27-0.841-6.377c1.291-1.311,2.789-2.321,4.259-3.389c0.716-0.52,1.493-1.028,1.796-1.942    c0.373-1.118,0.246-2.172-0.404-3.168c-0.275-0.422-0.538-0.862-0.739-1.323c-0.588-1.335-0.593-2.622,0.453-3.764    c0.913-0.996,1.846-1.973,2.753-2.976c0.678-0.749,1.092-1.624,0.996-2.661c-0.128-1.436-0.71-2.652-1.956-3.438    c-1.374-0.865-2.488-1.864-2.843-3.567c-0.363-1.743-0.151-3.315,0.979-4.718c0.769-0.957,1.651-1.794,2.691-2.459    c0.198-0.126,0.413-0.242,0.551-0.464c-0.182-0.128-0.374-0.07-0.551-0.074C70.13,9.744,68.544,9.84,66.984,9.68    c-2.32-0.238-4.658-0.246-6.966-0.243c-2.592,0.005-5.19-0.045-7.783-0.072c-2.168-0.022-4.344-0.081-6.517-0.188    c-2.636-0.131-5.273-0.39-7.932-0.241c-2,0.113-4.017-0.04-6.026-0.092c-0.809-0.022-1.604,0.189-2.417,0.071    c-0.936-0.135-1.861-0.133-2.789,0.214c0,0.508,0,1.006,0,1.536c1.34,0.819,2.777,1.412,4.257,1.893    c2.836,0.921,5.758,1.588,8.506,2.761c2.473,1.056,4.632,2.436,4.974,5.479c0.179,1.59-0.06,2.923-1.555,3.833    c-1.197,0.727-2.453,1.3-3.75,1.799c-1.814,0.698-3.706,1.15-5.487,1.966c-2.238,1.024-2.68,3.651-0.846,5.466    c0.584,0.577,1.206,1.125,1.83,1.652c0.41,0.346,0.682,0.813,1.132,1.162c0.117-0.202,0.22-0.356,0.304-0.52    c1.001-1.92,2.205-3.685,3.65-5.316c2.395-2.701,5.412-4.277,8.81-5.228c2.17-0.605,4.381-0.666,6.635-0.576    c3.783,0.15,6.826,1.811,9.552,4.25c0.198,0.177,0.441,0.352,0.446,0.676c-0.182,0.051-0.291-0.074-0.409-0.145    c-1.117-0.664-2.271-1.204-3.556-1.5c-2.045-0.472-4.08-0.474-6.059,0.138c-2.404,0.743-4.604,1.875-6.391,3.739    c-1.737,1.811-3.333,3.729-3.996,6.174c-1.162,4.28-0.512,8.424,1.751,12.178c1.934,3.207,4.929,5.251,8.484,6.415    c1.879,0.616,3.824,0.699,5.786,0.427c1.975-0.273,3.714-1.005,5.053-2.541c0.085-0.097,0.172-0.209,0.346-0.131    c0.158,0.307,0.023,0.583-0.152,0.823c-0.303,0.406-0.612,0.811-0.959,1.177c-3.003,3.164-6.933,4.318-11.053,4.859    c-2.91,0.383-5.751-0.4-8.425-1.482c-3.278-1.327-5.95-3.498-7.848-6.543c-0.513-0.821-1.066-1.616-1.598-2.417    c-0.938,0.661-1.825,1.289-2.718,1.911c-1.077,0.751-2.021,1.656-2.677,2.782c-0.86,1.471-1.235,3.008-0.149,4.585    c1.075,1.56,0.6,3.614-0.75,4.639c-0.588,0.445-1.185,0.858-1.865,1.146c-0.427,0.18-0.845,0.376-1.245,0.555    c-0.082,1.652-0.108,3.244-0.08,4.834c0.975,0.519,1.978,0.854,3.025,0.966c1.489,0.16,2.976,0.189,4.484,0.047    c2.237-0.21,4.367,0.399,6.363,1.354c1.395,0.667,1.927,1.982,1.454,3.216c-0.23,0.602-0.354,1.221-0.505,1.837    c-0.137,0.561-0.078,1.075,0.356,1.509c0.251,0.251,0.474,0.535,0.716,0.796c0.31,0.336,0.682,0.479,1.154,0.456    c1.607-0.077,3.217,0.021,4.832-0.125c1.679-0.15,3.376-0.084,5.067-0.087c6.389-0.013,12.774-0.015,19.162-0.026    c0.235,0,0.491,0.068,0.744-0.141c0.147-5.465-0.1-10.968,0.251-16.499C72.579,64.345,71.654,63.744,70.756,63.094z     M67.938,25.162c0.256,0.013,0.364,0.197,0.346,0.407c-0.019,0.188-0.158,0.33-0.566,0.288c-0.032-0.004-0.172-0.115-0.164-0.332    C67.559,25.29,67.687,25.15,67.938,25.162z M63.236,20.212c-0.794-0.225-0.433-1.22-1.244-1.315    c0.431-0.368,0.726-0.659,0.934-1.155c0.354,0.419,0.561,0.863,1.122,1.149C63.341,19.119,63.21,19.581,63.236,20.212z     M51.021,46.785c-0.29,0.188-0.527,0.4-0.498,0.8c0.021,0.302-0.17,0.318-0.442,0.248c0.077-0.648-0.39-0.956-0.848-1.296    c0.271-0.409,0.689-0.646,0.912-1.075c0.599,0.127,0.72,0.732,1.18,0.888C51.363,46.614,51.176,46.686,51.021,46.785z     M59.134,44.695c-1.185,0.561-1.89,1.438-1.866,2.804c0.001,0.092-0.011,0.188-0.036,0.277c-0.066,0.227-0.081,0.524-0.42,0.5    c-0.295-0.022-0.304-0.289-0.34-0.507c-0.149-0.946-0.448-1.813-1.199-2.471c-0.317-0.279-0.802-0.34-1.013-0.79    c0.469-0.373,1.065-0.545,1.464-1.024c0.347-0.417,0.575-0.852,0.633-1.401c0.034-0.311-0.052-0.796,0.634-0.776    c0.121,1.573,0.894,2.655,2.444,2.974C59.427,44.595,59.262,44.633,59.134,44.695z M59.508,39.799    c0.55-0.292,0.707-0.757,1.119-1.012c0.273,0.297,0.533,0.581,0.825,0.9c-0.401,0.346-0.647,0.75-0.722,1.378    C60.102,40.797,60.105,40.083,59.508,39.799z M61.148,51.703c-0.256-0.043-0.441-0.167-0.415-0.474    c0.026-0.295,0.219-0.438,0.491-0.414c0.219,0.021,0.472,0.104,0.437,0.398C61.63,51.486,61.499,51.711,61.148,51.703z     M35.409,58.182c0.164-0.138,0.334-0.084,0.507,0.021c0.356,0.214,0.213,0.496,0.132,0.799c-0.364,0.155-0.586,0.023-0.72-0.26    C35.238,58.552,35.226,58.335,35.409,58.182z M35.792,66.772c-0.251,0.604-0.157,1.319-0.647,2.028    c-0.668-1.26-0.17-3.05-2.062-3.468c1.466-0.325,1.714-1.417,1.893-2.545c0.105-0.025,0.172-0.054,0.244-0.058    c0.071-0.003,0.145,0.018,0.248,0.032c0.177,1.06,0.502,2.037,1.682,2.533C36.868,65.956,36.064,66.115,35.792,66.772z     M40.822,65.159c-0.67,0.172-0.423-0.395-0.542-0.612c-0.168-0.307-0.495-0.452-0.701-0.828c0.485-0.165,0.535-0.752,1.019-1.003    c0.372,0.313,0.584,0.778,1.084,1.035C41.121,64.102,40.779,64.523,40.822,65.159z M53.047,69.854    c-0.232,0.021-0.424-0.07-0.442-0.311c-0.016-0.229,0.137-0.377,0.379-0.387c0.216-0.008,0.354,0.085,0.374,0.317    C53.354,69.682,53.274,69.833,53.047,69.854z M59.514,74.634c-0.242-0.006-0.448-0.093-0.454-0.381    c-0.006-0.255,0.155-0.369,0.39-0.372c0.251-0.004,0.435,0.088,0.442,0.377C59.897,74.518,59.754,74.641,59.514,74.634z     M60.825,67.136c-0.282,0.027-0.406-0.168-0.42-0.414c-0.016-0.268,0.096-0.479,0.402-0.495c0.272-0.013,0.405,0.144,0.44,0.408    C61.22,66.893,61.115,67.109,60.825,67.136z M66.359,69.867c-0.514,0.14-0.785,0.452-0.797,1c-0.006,0.23-0.14,0.388-0.523,0.272    c0.153-0.735-0.243-1.147-0.987-1.396c0.544-0.464,0.828-1.028,1.484-1.326c0.059,0.689,0.537,0.931,0.948,1.177    C66.511,69.759,66.435,69.846,66.359,69.867z" fill-rule="evenodd"/><path clip-rule="evenodd" d="M26.664,37.507c0.726,0.959,1.438,1.925,2.493,2.567    c1.314,0.8,2.295,1.918,3.037,3.258c1.038,1.871,0.681,4.465-0.814,6.004c-1.006,1.035-2.245,1.738-3.477,2.438    c-0.934,0.529-1.594,1.132-1.439,2.341c0.086,0.663-0.032,1.349-0.025,2.024c0.02,2.15,0.05,4.3,0.087,6.451    c0.014,0.723-0.08,1.45,0.051,2.246c0.484-0.263,0.873-0.551,1.213-0.886c0.842-0.832,1.041-2.117,0.442-2.983    c-0.401-0.579-0.644-1.228-0.947-1.849c-0.694-1.416-0.03-3.991,0.931-4.821c1.115-0.963,2.258-1.866,3.595-2.492    c1.277-0.598,2.521-1.248,3.669-2.291c-1.364-3.551-1.21-7.221-0.406-10.983c-0.684-0.595-1.444-1.045-2.162-1.548    c-0.983-0.688-1.976-1.342-2.747-2.303c-0.909-1.133-0.921-3.355,0.396-4.28c0.434-0.304,0.944-0.577,1.224-1.054    c0.389-0.66,0.963-1.092,1.595-1.473c1.688-1.021,3.554-1.601,5.443-2.085c1.3-0.332,2.466-0.914,3.523-1.693    c2.013-1.488,1.995-4.565,0.028-5.923c-1.766-1.218-3.764-1.516-5.799-1.748c-2.494-0.284-5.011-0.464-7.396-1.343    c-0.874-0.321-1.733-0.686-2.657-1.054c0,1.697-0.061,3.349,0.013,4.994c0.148,3.36-0.084,6.718,0.044,10.079    c0.097,2.548-0.047,5.105-0.086,7.658C26.489,37.021,26.491,37.278,26.664,37.507z M40.57,18.952    c0.091,0.867,0.625,1.226,1.275,1.534c-0.34,0.363-0.847,0.451-0.99,0.931c-0.122,0.407,0.009,0.917-0.556,1.283    c-0.255-0.793-0.189-1.767-1.234-2.112C39.795,20.278,39.88,19.433,40.57,18.952z M34.156,18.201    c0.097-0.428,0.376-0.506,0.793-0.351c0.054,0.45-0.054,0.756-0.528,0.755C34.181,18.603,34.112,18.401,34.156,18.201z" fill-rule="evenodd"/><path clip-rule="evenodd" d="M73.842,20.571c0.022-0.391-0.12-0.718-0.351-0.98    c-0.879-1.002-0.66-2.09-0.045-3.018c0.701-1.057,0.252-2.107,0.342-3.192c-0.626,0.593-1.418,0.761-2.112,1.118    c-0.166,0.086-0.33,0.184-0.485,0.288c-1.668,1.132-2.107,3.905-0.751,5.168c0.761,0.71,1.462,1.435,2.001,2.333    c0.759,1.264,0.962,2.582,0.436,3.962c-0.469,1.229-1.436,2.091-2.354,2.979c-0.637,0.615-1.252,1.277-1.627,2.063    c-0.566,1.186-0.193,2.32,0.56,3.318c1.425,1.892,0.998,4.937-1.294,6.257c-0.357,0.207-0.708,0.426-1.062,0.635    c-1.572,0.932-2.227,3.083-1.493,4.768c0.472,1.081,1.252,1.836,2.219,2.47c1.842,1.206,4.162,1.572,5.736,3.303    c0.061-1.384,0.271-2.707,0.146-4.044c-0.337-0.295-0.777-0.375-1.152-0.579c-0.854-0.466-1.388-1.149-1.368-2.157    c0.018-0.953,0.288-1.826,1.095-2.415c0.492-0.359,1.041-0.644,1.58-0.972c-0.041-1.858,0.076-3.696,0.094-5.535    C74.015,31.085,73.535,25.832,73.842,20.571z" fill-rule="evenodd"/><path clip-rule="evenodd" d="M38.938,81.784c-0.267-0.479-0.315-0.891-0.307-1.332    c0.023-0.962,0.537-1.693,1.054-2.434c0.564-0.809,0.539-1.435-0.066-2.205c-0.33-0.421-0.733-0.749-1.21-0.992    c-1.983-1.013-4.094-1.555-6.309-1.717c-0.823-0.061-1.649-0.103-2.471-0.186c-1.072-0.108-2.052-0.554-3.11-0.958    c0,0.154-0.001,0.227,0,0.301c0.014,2.552,0.105,5.104-0.118,7.653c-0.053,0.616-0.032,1.23,0.274,1.879    c0.581-0.146,1.117,0.175,1.694,0.173c1.632-0.003,3.263-0.032,4.894-0.131c1.592-0.098,3.191-0.042,4.787-0.052    C38.324,81.783,38.595,81.784,38.938,81.784z" fill-rule="evenodd"/><path clip-rule="evenodd" d="M73.398,52.605c-0.801-0.81-1.701-1.477-2.756-1.913    c-1.57-0.65-3.05-1.449-4.332-2.572c-1.32-1.156-1.808-2.576-1.274-4.29c0.109-0.352,0.229-0.701,0.344-1.052    c-0.039-0.032-0.079-0.064-0.117-0.096c-0.972,0.938-2.043,1.8-2.382,3.222c-0.022,0.09-0.066,0.188-0.051,0.272    c0.24,1.301,0.688,2.465,1.846,3.271c1.397,0.972,2.837,1.896,4.028,3.139c0.626,0.652,0.923,1.397,0.794,2.296    c-0.056,0.389-0.118,0.777-0.197,1.162c-0.25,1.205-0.328,2.43,0.446,3.451c0.947,1.246,2.394,1.703,3.841,2.144    c0.03-0.119,0.055-0.172,0.058-0.226c0.118-2.738,0.111-5.476,0.014-8.214C73.65,52.958,73.567,52.777,73.398,52.605z" fill-rule="evenodd"/><path clip-rule="evenodd" d="M30.117,49.792c1.945-1.225,2.725-3.959,1.775-6.012    c-0.626-1.348-1.514-2.512-2.775-3.334c-0.847-0.552-1.562-1.22-2.142-2.047c-0.113-0.163-0.212-0.348-0.518-0.479    c-0.136,4.702,0.228,9.348-0.085,14.14C27.731,51.194,28.948,50.529,30.117,49.792z" fill-rule="evenodd"/><path clip-rule="evenodd" d="M60.05,86.64c-0.573,0.403-1.086,0.866-1.497,1.436    c-0.295,0.411-0.707,0.578-1.199,0.606c-1.069,0.062-2.138,0.035-3.204-0.074c-0.139-0.014-0.306,0.016-0.412-0.204    c1.897-0.679,2.646-2.233,3.141-3.992c-0.206-0.109-0.31-0.072-0.42-0.043c-1.729,0.452-2.77,1.655-3.438,3.221    c-0.213,0.504-0.461,0.657-0.978,0.477c-0.972-0.335-1.96-0.631-2.938-0.947c-0.612-0.197-1.275-0.218-1.94-0.505    c1.701-0.432,3.135-1.888,2.972-2.958c-1.967,0.109-3.202,1.274-4.108,2.906c-1.631-0.249-3.207-0.082-4.938,0.352    c0.416-0.965,1.172-1.67,0.946-2.693c-0.06-0.009-0.118-0.033-0.168-0.021c-0.144,0.038-0.288,0.087-0.428,0.135    c-1.049,0.354-1.872,1.087-2.156,2.083c-0.339,1.195-1.084,1.917-2.014,2.578c-0.16,0.115-0.341,0.254-0.136,0.618    c1.283-0.711,2.511-1.566,3.962-1.887c1.008,1.782,2.584,2.604,4.46,3.151c-0.112-1.338-0.769-2.136-2.938-3.676    c1.583-0.2,3.092-0.359,4.57,0.143c0.409,2.102,2.584,3.144,3.937,3.042c0.052-0.967-0.581-1.63-1.093-2.374    c1.672,0.641,3.361,1.066,5.062,1.327c0.249,1.219,1.079,1.755,2.115,1.988c0.481,0.107,1.038,0.118,1.396-0.389    c-0.606-0.568-1.2-1.072-1.916-1.557c2.71-0.4,5.355-0.722,7.27-2.934C62.917,85.742,61.15,85.866,60.05,86.64z M39.412,87.557    c-0.084-0.916,1.199-2.502,2.191-2.667C41.13,86.028,40.515,86.97,39.412,87.557z M44.748,90.16    c-1.254-0.514-2.239-1.248-2.984-2.358C42.696,87.475,44.464,89.127,44.748,90.16z M49.557,84.284    c-0.441,0.979-1.625,1.806-2.543,1.775C47.206,85.342,48.68,84.313,49.557,84.284z M50.467,89.806    c-0.887,0.054-2.263-1.091-2.432-2.079C49.203,88.081,49.989,88.741,50.467,89.806z M56.146,85.103    c-0.585,1.415-1.491,2.352-2.769,3.027C53.406,87.142,54.936,85.446,56.146,85.103z M57.776,90.788    c-0.991,0.11-1.905-0.458-2.085-1.262C56.506,89.729,57.162,90.122,57.776,90.788z M62.641,86.724    c-0.34,0.666-1.979,1.427-3.449,1.582C59.905,87,61.304,86.372,62.641,86.724z" fill-rule="evenodd"/><path clip-rule="evenodd" d="M33.156,52.532c0.699-0.503,1.416-0.985,2.104-1.504    c0.254-0.191,0.553-0.422,0.309-0.899c-0.931,0.807-1.921,1.411-2.991,1.876c-1.164,0.504-2.214,1.191-3.2,1.972    c-0.629,0.498-1.212,1.021-1.541,1.817c-0.775,1.871-0.157,3.508,0.723,5.122c0.419,0.769,0.549,1.516,0.13,2.349    c-0.382,0.762-0.981,1.284-1.684,1.682c-0.472,0.267-0.505,0.577-0.349,1.035c1.021-0.319,1.92-0.802,2.692-1.51    c1.188-1.089,1.479-2.702,0.536-4.003c-1.014-1.402-0.818-2.759-0.196-4.187C30.41,54.632,31.745,53.545,33.156,52.532z" fill-rule="evenodd"/><path clip-rule="evenodd" d="M68.71,14.004c-1.083,2.101-0.162,4.68,1.172,5.955    c-0.153-0.575-0.312-1.015-0.382-1.468c-0.129-0.871-0.198-1.727,0.231-2.577c0.537-1.059,1.39-1.699,2.441-2.126    c0.513-0.207,0.967-0.484,1.392-0.838c0.228-0.19,0.309-0.383,0.301-0.672c-0.017-0.581-0.014-1.166,0.024-1.745    c0.017-0.262,0.142-0.554-0.127-0.712c-0.256-0.152-0.557-0.072-0.803,0.094c-0.589,0.399-1.199,0.778-1.747,1.229    C70.226,11.957,69.312,12.841,68.71,14.004z" fill-rule="evenodd"/><path clip-rule="evenodd" d="M39.645,16.148c-0.141-0.203-0.352-0.23-0.533-0.304    c-1.408-0.573-2.854-1.025-4.303-1.476c-2.502-0.781-5.049-1.425-7.375-2.688c-0.272-0.148-0.551-0.287-0.886-0.46    c0,0.717,0,1.361,0,2.048c1.399,0.643,2.822,1.199,4.319,1.571C33.743,15.554,36.74,15.453,39.645,16.148z" fill-rule="evenodd"/><path clip-rule="evenodd" d="M40.56,74.777c-1.621-1.1-3.505-1.44-5.41-1.677    c0.14,0.042,0.278,0.089,0.419,0.127c1.149,0.304,2.247,0.738,3.263,1.357c1.615,0.984,1.935,2.494,0.882,4.045    c-0.127,0.186-0.261,0.368-0.383,0.557c-0.312,0.487-0.462,1.02-0.438,1.599c0.021,0.521,0.322,0.904,0.793,0.958    c0.728,0.083,1.471,0.021,2.273,0.021c-0.379-0.614-0.925-0.996-1.133-1.629c-0.35-1.071,0.033-2.032,0.397-2.996    C41.603,76.14,41.443,75.376,40.56,74.777z" fill-rule="evenodd"/><path clip-rule="evenodd" d="M30.222,31.286c-0.474,1.168-0.407,2.259,0.424,3.258    c0.411,0.493,0.856,0.942,1.398,1.295c1.047,0.68,2.087,1.372,3.129,2.057c0.22-0.311,0.163-0.543,0.016-0.788    c-0.396-0.648-0.926-1.172-1.54-1.604c-1.728-1.214-2.778-2.78-2.675-5.076C30.745,30.814,30.365,30.933,30.222,31.286z" fill-rule="evenodd"/><path clip-rule="evenodd" d="M71.883,45.343c0.016,1.029,0.704,1.763,1.885,2.11    c0.129-1.612,0.052-3.205,0.084-4.835C72.049,43.361,71.863,44.181,71.883,45.343z" fill-rule="evenodd"/><path clip-rule="evenodd" d="M69.396,59.763c0.291,1.514,2.621,3.745,4.208,4.076    c0.071-0.483,0.096-0.963,0.004-1.516C72.044,61.753,70.498,61.175,69.396,59.763z" fill-rule="evenodd"/><path clip-rule="evenodd" d="M67.555,86.923c-0.396,0.01-0.784,0.424-0.771,0.823    c0.016,0.444,0.444,0.876,0.871,0.876c0.44,0,0.841-0.389,0.843-0.816C68.497,87.394,67.984,86.911,67.555,86.923z M67.589,88.153    c-0.237-0.001-0.412-0.085-0.405-0.35c0.008-0.273,0.186-0.392,0.442-0.407c0.258-0.015,0.433,0.085,0.487,0.372    C68.047,88.031,67.867,88.153,67.589,88.153z" fill-rule="evenodd"/><path clip-rule="evenodd" d="M32.75,87.183c-0.401-0.002-0.816,0.401-0.806,0.782    c0.014,0.417,0.393,0.798,0.804,0.781c0.445-0.019,0.764-0.232,0.802-0.701C33.584,87.624,33.149,87.186,32.75,87.183z     M32.73,88.308c-0.217,0.004-0.355-0.118-0.343-0.349c0.015-0.208,0.11-0.356,0.347-0.356c0.21,0,0.364,0.071,0.392,0.307    C33.083,88.132,32.974,88.303,32.73,88.308z" fill-rule="evenodd"/><path clip-rule="evenodd" d="M73.815,19.477c0-0.882,0-1.749,0-2.752    C73.106,17.852,73.132,18.865,73.815,19.477z" fill-rule="evenodd"/><path clip-rule="evenodd" d="M26.321,31.243c0.005,0,0.013,0,0.019,0c0-0.425,0-0.85,0-1.274    c-0.006,0-0.014,0-0.019,0C26.321,30.393,26.321,30.818,26.321,31.243z" fill-rule="evenodd"/><path clip-rule="evenodd" d="M74.002,25.504c0.012,0,0.021,0,0.032,0c0-0.256,0-0.512,0-0.768    c-0.011,0-0.021,0-0.032,0C74.002,24.992,74.002,25.248,74.002,25.504z" fill-rule="evenodd"/>
    </g>
  </g>
  <g id="From_selection_xA0_Image"/>
  <g id="Inserted_Image_xA0_Image"/>
</svg>
