<?xml version="1.0" ?><svg data-name="Layer 4" id="Layer_4" viewBox="0 0 600 600" xmlns="http://www.w3.org/2000/svg"><title/><path d="M253.065,391.372c68.408,37.568,151.148-12.887,148.082-91.173.067-61.846-65.259-109.961-124.445-95.92C188.758,217.584,176.517,353.814,253.065,391.372Z" style="fill:#333"/><path d="M312.227,590.445a1.913,1.913,0,0,0,1.98-2.938,54.172,54.172,0,0,1-5.3-9.264C291.729,532.9,336.381,532.5,349.727,477.2a1.224,1.224,0,0,1,2.4.108c3.431,24.5-7.525,38.247-26.282,63.607-9.7,13.109-11.532,32.952-2.218,42.751,5.708,3.82,3.247-6.233,2.619-8.974-10.077-43.943,70.106-54.415,23.8-154.1-1.681-3.618-4.2-3.748-8.086-2.613-22.892,7.648-47.544,10.429-71.007,3.261-3.288-1.008-4.608-.5-5.528,2.716-.41,7.152,4.982,13.6,6.653,20.45,7.23,19.063-.756,35.207-8.863,52.381C248.322,529.456,272.425,582.329,312.227,590.445Z" style="fill:#333"/><path d="M421.266,354.545c-5.262-2.61-7.109-1.791-9.948,3.344-10.932,21.805-29.017,36.149-48.264,50.095-6.606,8.662,9.724,11.148,15.266,13.417,67.686,27.715,50.435,104.884,137.5,74.9a2.61,2.61,0,0,0-.09-4.967c-12.438-3.82-34.268-15.31-36.375-49.071C475.8,385.293,458.1,369.454,421.266,354.545Z" style="fill:#333"/><path d="M85.7,101.8c-3.014,1.193-11.835,7.185-4.883,9.286,18.645,4.85,37.6,18,40.8,38.5,6.057,41.554,12.3,87.12,61.635,95.8,5.793.939,7.727.45,10.86-4.446,9.4-17.441,23.52-31.2,40.589-40.949a5.131,5.131,0,0,0,1.049-8.166c-2.032-1.933-5.423-4.174-11.057-6.475-15.506-6.333-31.012-18.181-35.143-34.749C178.185,105.01,126.352,85.708,85.7,101.8Z" style="fill:#333"/><path d="M350.508,198.711a2.373,2.373,0,0,0,4.18,1.756c7.028-8.377,21.853-24.446,34.487-27.532a82.846,82.846,0,0,1-14.192,22.21c-3.081,3.561-3.043,6.524.736,9.374a117.624,117.624,0,0,1,30.249,34.058c1.218,2.107,4.794,2.348,5.5.02,12.631-41.342,31.1-43.6,50.48-48.715,50.956-13.461,55.066-60.354,41.184-96.992a2.2,2.2,0,0,0-4.2.238c-2.519,10.374-11.008,27.531-39.6,27.406-30.029-.13-58.1,8.957-83.409,30.1C360.854,163.23,351.915,185.578,350.508,198.711Z" style="fill:#333"/><path d="M379.133,455.348a5.031,5.031,0,0,0-1.468,5.081c7.643,29.629,26.787,75.809,40.078,103.535,5.885,12.275,15.546,11.512,10.657-1.847C425.549,554.327,391.862,444.43,379.133,455.348Z" style="fill:#333"/><path d="M248.628,451.6c-4.494,2.929-7.107,8.42-10.072,12.78-13.528,25.723-30.822,50.949-38.941,79a6.257,6.257,0,0,0,.449,4.771c8.595,15.425,53.205-86.387,52.069-93.62C252.955,451.852,250.676,450.941,248.628,451.6Z" style="fill:#333"/><path d="M451.809,223.14c-1.959,2.633-.629,4.746,1.427,4.8,12.874-2.66,90.469-18.856,91.133-33.038C544.86,184.405,458.072,214.5,451.809,223.14Z" style="fill:#333"/><path d="M51.676,205.806a5.821,5.821,0,0,0,2.545,7.487c5.581,3.256,11.149,6.565,16.921,9.457,23.336,9.687,44.617,22.672,69.643,28.142,6.009-2.573,6.064-6.595.336-9.357-26.792-13.385-53.981-25.882-81.959-36.611A6.118,6.118,0,0,0,51.676,205.806Z" style="fill:#333"/><path d="M410.144,41.4c-1.706-1.018-3.693-.635-5.4,2.084C386.488,72.8,369.044,103.15,354.1,134.2a4.616,4.616,0,0,0-.2,3.768,4.147,4.147,0,0,0,6.117,1.873,12.632,12.632,0,0,0,4.364-3.977c17.66-28.4,33.166-58.086,47.455-88.322A4.774,4.774,0,0,0,410.144,41.4Z" style="fill:#333"/><path d="M207.832,117.633a2.994,2.994,0,0,0,1-3c-6.943-32.482-14.836-53.544-21.417-81.36-.947-2.974-1.862-10.741-5.97-8.742-3.24,2.21-2.533,6.15-1.169,15.4,3.6,24.423,7.382,42.971,17.018,65.58C198.218,108.6,203.935,120.638,207.832,117.633Z" style="fill:#333"/><path d="M586.96,422.883l0-.015a1.066,1.066,0,0,0-.266-1.107c-21.36-20.757-49.723-31.905-75.749-45.584a6.718,6.718,0,0,0-9.015,2.513c-8.27,10.221,70.789,42.4,83.818,44.892A1.059,1.059,0,0,0,586.96,422.883Z" style="fill:#333"/><path d="M134.42,384.463q-.634.127-1.347.31c-9.336,2.393-18.275,6.151-27.3,9.54-23.952,9-47.847,18.152-71.766,27.239-1.794.681-3.279,1.187-2.2,3.851,1.292,4.088,4.708,1.456,7.447.843q45.018-15.486,90.025-31a68.706,68.706,0,0,0,7.941-3.093C141.443,389.967,139.081,383.524,134.42,384.463Z" style="fill:#333"/><path d="M255.089,184.587c1.681,3.618,4.2,3.748,8.086,2.613,22.892-7.649,47.544-10.429,71.007-3.26,3.288,1.007,4.608.494,5.528-2.718.41-7.151-4.982-13.6-6.654-20.449-7.229-19.063.757-35.207,8.864-52.381,14.9-32.668-9.207-85.541-49.008-93.657a1.913,1.913,0,0,0-1.98,2.938,54.172,54.172,0,0,1,5.295,9.264c17.182,45.344-27.469,45.747-40.816,101.041a1.224,1.224,0,0,1-2.4-.108c-3.431-24.5,7.524-38.247,26.282-63.607,9.7-13.109,11.532-32.952,2.218-42.751-5.708-3.82-3.247,6.233-2.619,8.974C288.967,74.429,208.784,84.9,255.089,184.587Z" style="fill:#333"/><path d="M11.726,313.6a1.913,1.913,0,0,0,2.938,1.98,54.278,54.278,0,0,1,9.263-5.3C69.271,293.1,69.675,337.754,124.968,351.1a1.224,1.224,0,0,1-.108,2.4c-24.5,3.431-38.247-7.525-63.606-26.282C48.144,317.525,28.3,315.69,18.5,325c-3.821,5.707,6.233,3.247,8.974,2.618,43.942-10.077,54.415,70.107,154.1,23.8,3.619-1.681,3.749-4.2,2.613-8.087-7.648-22.892-10.429-47.543-3.26-71.006,1.008-3.288.5-4.608-2.717-5.528-7.152-.41-13.6,4.982-20.449,6.653-19.063,7.229-35.207-.756-52.382-8.863C72.715,249.7,19.841,273.8,11.726,313.6Z" style="fill:#333"/><path d="M418.423,255.117c-3.619,1.681-3.749,4.2-2.613,8.087,7.648,22.892,10.429,47.543,3.26,71.007-1.008,3.287-.5,4.607,2.717,5.527,7.152.411,13.6-4.981,20.449-6.653,19.063-7.229,35.207.756,52.381,8.863,32.668,14.9,85.542-9.206,93.657-49.008a1.913,1.913,0,0,0-2.938-1.98,54.211,54.211,0,0,1-9.263,5.3c-45.344,17.182-45.748-27.469-101.041-40.816a1.224,1.224,0,0,1,.108-2.4c24.5-3.431,38.247,7.525,63.607,26.283,13.109,9.7,32.951,11.531,42.75,2.217,3.821-5.707-6.233-3.247-8.974-2.618C528.581,289,518.109,208.813,418.423,255.117Z" style="fill:#333"/><path d="M97.944,513.3a2.2,2.2,0,0,0,4.2-.238c2.519-10.374,11.007-27.531,39.6-27.406,30.03.13,58.1-8.957,83.41-30.1,15.07-12.593,24.009-34.942,25.415-48.074a2.373,2.373,0,0,0-4.179-1.756c-7.029,8.377-21.854,24.446-34.488,27.532a82.846,82.846,0,0,1,14.192-22.21c3.081-3.561,3.044-6.524-.736-9.374a117.642,117.642,0,0,1-30.248-34.058c-1.219-2.107-4.794-2.348-5.5-.021-12.631,41.343-31.1,43.6-50.48,48.716C88.172,429.77,84.061,476.663,97.944,513.3Z" style="fill:#333"/><path d="M164.972,378.946a3.018,3.018,0,0,0-1.965-2c-2.738-.99-6.75-.171-9.765,1.12-3.409,1.4-6.026,6.468-1.958,7.9C154.971,388.044,166.187,383.713,164.972,378.946Z" style="fill:#333"/><path d="M191.473,567.77c-2.6,1.308-4.766,4.783-5.9,7.86-1.326,3.44.551,8.823,4.385,6.851,4.047-1.244,8.616-12.365,4.32-14.761A3.015,3.015,0,0,0,191.473,567.77Z" style="fill:#333"/><path d="M578.71,184.947a3.014,3.014,0,0,0-2-1.963c-2.756-.939-6.751-.047-9.742,1.3-3.383,1.466-5.907,6.578-1.813,7.93C568.879,194.228,580.013,189.691,578.71,184.947Z" style="fill:#333"/><path d="M423.131,24.25c4.148-.85,9.764-11.48,5.718-14.278a3.018,3.018,0,0,0-2.8-.219c-2.715,1.052-5.2,4.3-6.63,7.256C417.774,20.306,419.125,25.845,423.131,24.25Z" style="fill:#333"/><path d="M219.341,145.727c2.018-3.723-2.511-14.86-7.255-13.561a3.019,3.019,0,0,0-1.966,2c-.941,2.755-.051,6.751,1.293,9.743C212.876,147.293,217.986,149.821,219.341,145.727Z" style="fill:#333"/><path d="M476.691,369.75c3.263,1.716,8.827.476,7.313-3.561-.766-4.164-11.281-9.993-14.16-6a3.017,3.017,0,0,0-.275,2.79C470.566,365.711,473.766,368.264,476.691,369.75Z" style="fill:#333"/></svg>