<?xml version="1.0" ?><!DOCTYPE svg  PUBLIC '-//W3C//DTD SVG 1.1//EN'  'http://www.w3.org/Graphics/SVG/1.1/DTD/svg11.dtd'><svg enable-background="new 0 0 100 100" height="100px" version="1.1" viewBox="0 0 100 100" width="100px" xml:space="preserve" xmlns="http://www.w3.org/2000/svg" xmlns:xlink="http://www.w3.org/1999/xlink"><g id="Layer_1"/><g id="Layer_14_xA0_Image"/><g id="Layer_12_xA0_Image"/><g id="Layer_9_xA0_Image"/><g id="Layer_11_xA0_Image"/><g id="Layer_13_xA0_Image"><g><path clip-rule="evenodd" d="M91.258,48.124c-1.11-0.676-2.229-1.39-3.607-1.243    c-1.609,0.17-3.172,0.604-4.795,0.724c-1.117,0.081-2.201,0.05-3.203-0.385c-1.217-0.531-2.468-0.948-3.729-1.342    c-1.222-0.38-2.458-0.601-3.761-0.303c-0.323,0.074-0.71,0.382-1.165,0.029c3.802-2.701,7.927-4.843,11.584-7.789    c-2.58-0.342-5.061,0.369-7.566,0.613c-2.529,0.244-5.037,0.703-7.736,1.093c0.296-0.509,0.486-0.815,0.655-1.131    c0.792-1.476,1.912-2.572,3.37-3.456c2.601-1.579,4.535-3.839,5.152-6.862c0.75-3.648,2.446-6.624,5.351-8.93    c0.088-0.066,0.101-0.223,0.181-0.412c-0.58,0.147-1.059-0.172-1.602-0.01c-1.385,0.416-2.794,0.743-4.182,1.151    c-0.786,0.233-1.498,0.66-1.988,1.317c-0.852,1.144-1.646,2.328-2.438,3.515c-0.84,1.262-1.884,2.173-3.333,2.78    c-2.356,0.987-4.796,1.939-6.261,4.278c-0.109,0.175-0.135,0.482-0.573,0.489c1.09-4.582,2.296-9.111,3.059-13.769    c-0.604,0.095-1.018,0.334-1.348,0.776c-2.08,2.783-4.179,5.555-6.272,8.331c-0.676,0.899-1.354,1.799-2.148,2.852    c-0.418-1.52-0.912-2.799-0.817-4.202c0.098-1.422,0.638-2.762,0.663-4.219c0.031-1.814-0.123-3.541-0.92-5.194    c-0.756-1.562-1.816-2.957-2.439-4.597c-0.9-2.36-0.624-4.803-0.598-7.23c-0.106,0-0.211,0-0.316,0    c-0.783,1.245-1.54,2.512-2.36,3.733c-1.084,1.612-1.531,3.288-0.969,5.227c0.332,1.134,0.598,2.335,0.596,3.505    c-0.004,1.593-0.438,3.126-1.075,4.63c-0.713,1.687-1.333,3.442-1.229,5.349c0.023,0.48,0.364,0.965,0.06,1.496    c-2.553-3.728-4.651-7.691-7.38-11.249c-0.66,0.553-0.615,1.223-0.514,1.907c0.245,1.693,0.496,3.384,0.742,5.075    c0.248,1.718,0.535,3.431,0.72,5.155c0.104,0.961,0.438,1.9,0.357,2.931c-1.917-1.008-3.406-2.275-4.528-4.116    c-1.545-2.532-3.778-4.372-6.79-4.979c-3.558-0.715-6.464-2.493-8.82-5.217c-0.171-0.196-0.252-0.536-0.63-0.327    c-0.348,0.192-0.156,0.478-0.146,0.746c0.044,1.179,0.487,2.27,0.747,3.398c0.383,1.657,0.859,3.277,2.473,4.238    c0.692,0.411,1.333,0.903,2.012,1.335c1.75,1.113,3.146,2.447,3.889,4.516c0.646,1.789,1.478,3.576,2.967,4.899    c0.472,0.418,1.004,0.769,1.7,1.296c-4.652-1.052-9.013-2.316-13.478-2.954c-0.342,0.629-0.148,0.972,0.247,1.27    c3.049,2.287,6.098,4.574,9.145,6.867c0.694,0.521,1.371,1.064,2.169,1.688c-1.74,0.538-3.385,1.004-5.017,0.554    c-3.449-0.955-6.664-0.667-9.725,1.253c-1.447,0.907-2.931,1.793-4.624,2.161c-1.98,0.43-4.001,0.36-6.014,0.297    c0,0.053,0,0.105,0,0.158c1.551,1.318,3.346,2.252,5.111,3.227c0.645,0.356,1.386,0.584,2.09,0.497    c1.278-0.159,2.531-0.523,3.808-0.72c1.461-0.223,2.962-0.504,4.386,0.117c1.218,0.533,2.473,0.935,3.729,1.338    c0.909,0.291,1.851,0.566,2.81,0.525c0.781-0.031,1.553-0.267,2.329-0.411c-3.846,2.722-7.964,4.984-11.747,7.805    c0.379,0.383,0.665,0.536,1.209,0.431c1.575-0.302,3.176-0.481,4.771-0.673c2.521-0.301,5.036-0.619,7.536-1.07    c0.59-0.106,1.229-0.411,1.938-0.062c-0.313,0.236-0.426,0.537-0.61,0.786c-0.528,0.723-0.881,1.541-1.533,2.209    c-1.09,1.115-2.535,1.705-3.68,2.755c-1.72,1.58-2.951,3.357-3.512,5.639c-0.439,1.774-0.848,3.585-1.886,5.141    c-0.923,1.38-2.131,2.508-3.3,3.671c-0.186,0.187-0.441,0.335-0.532,0.687c2.128-0.11,4.053-0.807,6.014-1.363    c0.899-0.254,1.587-0.816,2.123-1.527c0.9-1.2,1.731-2.456,2.583-3.695c0.729-1.066,1.668-1.798,2.894-2.303    c2.084-0.858,4.174-1.762,5.777-3.463c0.38-0.405,0.532-1,1.087-1.319c-0.688,4.607-2.138,9.008-2.707,13.601    c0.489-0.054,0.841-0.232,1.102-0.583c2.331-3.113,4.656-6.229,6.99-9.339c0.503-0.67,1.027-1.325,1.542-1.988    c0.054,0.46,0.229,0.817,0.342,1.189c0.467,1.546,0.56,3.097,0.174,4.684c-0.722,2.955-0.631,5.771,1.181,8.42    c1.071,1.572,2.04,3.246,2.406,5.178c0.367,1.914,0.312,3.847,0.261,5.778c0.055,0,0.106,0,0.157,0    c1.317-1.551,2.252-3.346,3.229-5.111c0.356-0.644,0.583-1.383,0.495-2.091c-0.156-1.278-0.521-2.531-0.717-3.806    c-0.227-1.461-0.46-2.941,0.101-4.393c0.311-0.797,0.688-1.573,0.928-2.389c0.465-1.571,1.166-3.104,0.846-4.826    c-0.068-0.366-0.332-0.732-0.055-1.222c2.419,3.884,4.69,7.808,7.385,11.529c0.416-0.478,0.739-0.747,0.604-1.428    c-0.329-1.597-0.478-3.229-0.682-4.851c-0.271-2.157-0.531-4.316-0.904-6.462c-0.135-0.787-0.38-1.584-0.313-2.51    c0.364,0.21,0.624,0.371,0.895,0.515c1.384,0.734,2.555,1.712,3.328,3.084c1.591,2.82,3.906,4.739,7.062,5.436    c3.223,0.711,6.019,2.064,8.19,4.585c0.396,0.459,0.956,0.662,1.498,1.081c-0.09-2.049-0.737-3.856-1.249-5.695    c-0.243-0.882-0.613-1.673-1.356-2.212c-1.218-0.882-2.46-1.73-3.706-2.565c-0.992-0.664-1.892-1.447-2.304-2.572    c-0.454-1.227-1.059-2.372-1.646-3.525c-0.666-1.306-1.424-2.544-2.78-3.272c-0.142-0.077-0.234-0.245-0.421-0.445    c4.468,0.888,8.762,2.088,13.179,2.805c0.342-0.481,0.226-0.888-0.183-1.198c-3.098-2.351-6.218-4.671-9.301-7.042    c-0.682-0.524-1.499-0.901-2.062-1.628c0.388-0.107,0.709-0.209,1.036-0.285c0.933-0.217,1.85-0.516,2.834-0.428    c1.416,0.128,2.758,0.643,4.215,0.669c1.814,0.031,3.539-0.125,5.189-0.922c1.564-0.755,2.96-1.817,4.595-2.439    c2.36-0.899,4.804-0.621,7.229-0.598c0-0.105,0-0.209,0-0.314C93.756,49.688,92.518,48.891,91.258,48.124z M79.32,39.522    c-3.238,2.098-6.481,4.191-9.775,6.323c-0.563-0.785-0.544-1.673-0.952-2.519c3.58-1.328,7.118-2.64,10.652-3.951    C79.271,39.426,79.297,39.474,79.32,39.522z M78.804,38.763c-3.485,1.284-6.97,2.567-10.532,3.879    c-0.509-0.772-0.671-1.719-1.4-2.539C70.983,39.684,74.885,39.107,78.804,38.763z M77.21,23.09    c-0.771,1.621-1.364,3.304-1.737,5.05c-0.506,2.358-1.668,4.219-3.755,5.476c-2.233,1.343-4.207,2.95-5.431,5.479    c-0.665-0.841-1.262-1.599-1.835-2.33c1.208-2.441,3.104-4.08,5.317-5.366c2.287-1.325,3.81-3.223,4.901-5.623    c0.936-2.055,2.063-4.075,4.442-5.264C78.577,21.611,77.649,22.16,77.21,23.09z M65.126,30.166    c1.069-0.735,2.159-1.513,3.374-1.88c2.159-0.655,3.496-2.149,4.681-3.893c0.47-0.684,0.945-1.364,1.375-2.073    c1.04-1.716,2.802-2.062,4.585-2.403c-0.473,0.306-0.963,0.595-1.424,0.919c-1.799,1.255-2.9,3.054-3.729,5.006    c-0.786,1.851-2.098,3.188-3.688,4.328c-1.515,1.089-3.123,2.06-4.423,3.436c-0.719,0.759-1.198,1.678-1.849,2.645    c-0.771-0.675-1.498-1.315-2.29-2.012C62.97,32.922,63.617,31.204,65.126,30.166z M63.002,22.786    c-0.7,3.546-1.559,7.061-2.158,10.792c-0.851-0.522-1.605-0.983-2.374-1.452c1.47-3.183,2.901-6.294,4.337-9.404    C62.873,22.743,62.937,22.765,63.002,22.786z M62.18,21.726c0.058,0.035,0.111,0.068,0.166,0.103    c-1.512,3.332-3.026,6.666-4.574,10.075c-0.896-0.386-1.653-0.713-2.551-1.1C57.575,27.732,59.878,24.729,62.18,21.726z     M50.02,9.172c-0.194,2.237,0.786,4.14,1.886,5.924c1.362,2.209,2.123,4.51,1.912,7.104c-0.097,1.215-0.479,2.381-0.665,3.585    c-0.24,1.563-0.043,3.051,0.339,4.64c-0.958,0.057-1.812-0.035-2.708-0.18c-0.571-2.428-0.58-4.841,0.053-7.21    c0.688-2.576,0.594-5.021-0.462-7.501c-0.646-1.513-1.087-3.143-1.023-4.835c0.023-0.704,0.097-1.422,0.437-2.077    C50.119,8.743,50.037,8.992,50.02,9.172z M47.719,21.604c1.089-2.267,0.936-4.468,0.463-6.789    c-0.289-1.415-0.865-2.834-0.275-4.326c0.494-1.251,1.325-2.32,1.926-3.539c-0.068,0.307-0.096,0.632-0.213,0.924    c-1.113,2.781-0.685,5.476,0.398,8.154c0.605,1.493,0.566,3.07,0.395,4.638c-0.262,2.393-1.029,4.727-0.868,7.176    c0.056,0.797,0.403,1.557,0.29,2.371c-0.892,0.283-1.775-0.077-2.664,0.16c-0.176-1.255-0.41-2.479-0.498-3.714    C46.545,24.89,46.979,23.145,47.719,21.604z M40.001,21.912c1.863,2.839,3.729,5.675,5.647,8.599    c-0.868,0.262-1.604,0.486-2.396,0.724c-1.137-3.091-2.271-6.172-3.403-9.252C39.9,21.958,39.951,21.937,40.001,21.912z     M38.736,22.17c0.085-0.013,0.17-0.025,0.255-0.036c1.103,3.188,2.41,6.301,3.411,9.497c-0.59,0.788-1.576,0.655-2.284,1.24    C39.648,29.237,39.191,25.702,38.736,22.17z M23.003,22.973c1.745,0.794,3.555,1.408,5.42,1.821    c2.309,0.513,3.97,1.913,5.149,3.845c1.24,2.033,2.687,3.81,4.769,5.017c0.062,0.036,0.097,0.12,0.211,0.269    c-0.748,0.427-1.342,1.024-1.959,1.641c-1.259-0.657-2.264-1.529-3.173-2.528c-1.45-1.593-2.324-3.603-3.789-5.184    c-0.916-0.99-2.063-1.619-3.283-2.144c-1.936-0.838-3.697-1.925-5.092-3.54c-0.138-0.16-0.225-0.332-0.312-0.806    C21.717,22.035,22.26,22.634,23.003,22.973z M29.383,33.669c-0.604-1.196-1.105-2.438-1.709-3.625    c-0.903-1.781-2.613-2.774-4.205-3.856c-1.088-0.738-2.328-1.321-2.854-2.664c-0.193-0.495-0.429-0.984-0.48-1.629    c0.542,0.307,0.714,0.816,1,1.199c1.277,1.704,3.2,2.421,4.993,3.316c1.419,0.709,2.588,1.678,3.542,2.925    c1.232,1.604,2.19,3.411,3.662,4.836c0.753,0.727,1.574,1.347,2.621,1.938c-0.625,0.727-1.18,1.367-1.785,2.07    C32.326,36.919,30.447,35.774,29.383,33.669z M22.246,38.282c0.024-0.052,0.053-0.105,0.076-0.157    c3.135,1.442,6.268,2.885,9.525,4.386c-0.504,0.806-0.631,1.622-1.163,2.312C27.851,42.626,25.048,40.453,22.246,38.282z     M11.173,50.204c1.688-0.465,3.262-1.188,4.706-2.146c2.616-1.736,5.374-2.13,8.383-1.263c2.016,0.583,4.062,0.445,6.146-0.14    c0.116,0.874-0.069,1.624-0.138,2.379c-0.023,0.28-0.188,0.456-0.545,0.543c-1.886,0.462-3.767,0.386-5.652,0.047    c-1.246-0.224-2.48-0.562-3.732-0.677c-1.609-0.147-3.107,0.451-4.586,1.008c-2.381,0.892-4.783,1.487-7.311,0.576    C9.354,50.425,10.273,50.452,11.173,50.204z M23.188,53.005c-1.246-0.368-2.364-1.055-3.643-1.302    c-0.78-0.15-1.531-0.099-2.314,0.082c-1.41,0.319-2.873,0.413-4.262,0.796c-2.395,0.66-3.978-1.01-5.841-1.936    c0.44,0.11,0.895,0.188,1.323,0.336c2.488,0.856,4.91,0.453,7.253-0.475c1.989-0.79,3.991-0.829,6.042-0.463    c1.602,0.287,3.197,0.66,4.832,0.704c1.013,0.027,2.02-0.135,3.004-0.378c0.21-0.05,0.396-0.109,0.656-0.013    c0.254,0.862-0.163,1.732,0.22,2.581C28.004,53.65,25.622,53.727,23.188,53.005z M30.518,54.411    c0.265,0.856,0.506,1.633,0.779,2.52c-3.297,1.354-6.621,2.521-10.019,3.542C24.339,58.466,27.397,56.458,30.518,54.411z     M21.566,61.604c-0.018-0.074-0.033-0.146-0.053-0.219c2.438-0.907,4.874-1.812,7.308-2.719c0.726-0.27,1.472-0.501,2.175-0.818    c0.624-0.28,1.05-0.106,1.215,0.491c0.165,0.595,0.432,1.133,0.746,1.753C29.114,60.603,25.339,61.103,21.566,61.604z     M32.06,41.666c-3.12-1.435-6.218-2.86-9.316-4.286c0.02-0.082,0.036-0.163,0.052-0.245c3.355,0.763,6.718,1.461,10.123,1.948    c0.232,0.032,0.342,0.223,0.476,0.392C32.951,40.199,32.515,40.923,32.06,41.666z M22.963,76.996    c0.821-1.732,1.427-3.544,1.825-5.412c0.481-2.236,1.854-3.838,3.684-4.984c2.087-1.308,3.93-2.792,5.184-4.938    c0.036-0.063,0.12-0.099,0.252-0.202c0.449,0.665,0.964,1.27,1.532,1.83c0.198,0.199,0.119,0.407-0.027,0.676    c-1.196,2.205-3.03,3.769-5.147,4.996c-1.879,1.089-3.371,2.523-4.311,4.462c-0.587,1.211-1.126,2.434-1.853,3.579    c-0.744,1.17-1.721,2.02-2.982,2.587C21.709,78.696,22.507,77.967,22.963,76.996z M37.375,67.361    c-1.488,2.688-4.04,3.887-6.703,4.987c-1.375,0.567-2.367,1.646-3.229,2.827c-0.627,0.858-1.279,1.71-1.783,2.641    c-0.75,1.396-1.989,1.979-3.402,2.353c-0.463,0.121-0.935,0.221-1.502,0.354c0.319-0.561,0.83-0.638,1.218-0.855    c2.237-1.271,3.361-3.389,4.334-5.614c0.694-1.579,1.841-2.743,3.205-3.724c1.499-1.077,3.095-2.014,4.382-3.376    c0.809-0.855,1.57-1.73,2.174-2.839c0.888,0.462,1.414,1.333,2.325,1.757C38.169,66.496,37.652,66.862,37.375,67.361z     M39.557,66.844c0.902,0.018,1.381,0.911,2.393,0.828c-1.684,3.665-3.301,7.19-4.92,10.716    C37.87,74.537,38.308,70.611,39.557,66.844z M37.645,79.05c-0.049-0.025-0.095-0.052-0.142-0.078    c1.652-3.562,3.307-7.127,4.958-10.688c0.928,0.312,1.778,0.6,2.727,0.919C42.657,72.505,40.15,75.777,37.645,79.05z     M47.802,83.728c-1.497-2.401-1.846-4.97-1.072-7.702c0.581-2.047,0.573-4.108-0.013-6.161c-0.036-0.117-0.031-0.245-0.047-0.419    c0.795,0.022,1.515,0.287,2.279,0.195c0.355-0.041,0.53,0.419,0.584,0.734c0.334,1.927,0.531,3.841,0.088,5.808    c-0.269,1.205-0.545,2.427-0.683,3.661c-0.176,1.568,0.371,2.975,0.983,4.399c1.004,2.343,1.508,4.779,0.613,7.309    C50.615,88.585,49.299,86.131,47.802,83.728z M52.203,79.259c-0.55,1.225-0.8,2.494-0.539,3.727    c0.216,1.016,0.444,2.05,0.746,3.053c0.588,1.943,0.315,3.747-0.835,5.398c-0.323,0.468-0.358,1.092-0.973,1.595    c0.154-0.601,0.236-1.056,0.383-1.489c0.851-2.488,0.45-4.913-0.483-7.258c-0.794-1.994-0.819-3.994-0.45-6.049    c0.287-1.579,0.658-3.153,0.692-4.763c0.023-1.034-0.098-2.076-0.385-3.082c-0.058-0.209-0.106-0.398,0.035-0.675    c0.884,0.086,1.717-0.492,2.563-0.132c0.188,1.195,0.428,2.315,0.53,3.446C53.697,75.227,53.088,77.295,52.203,79.259z     M59.967,77.928c-1.872-2.838-3.747-5.676-5.662-8.578c0.872-0.267,1.631-0.498,2.458-0.749c1.131,3.085,2.256,6.157,3.38,9.229    C60.084,77.863,60.027,77.896,59.967,77.928z M61.412,77.954c-0.064,0.021-0.134,0.042-0.199,0.065    c-1.212-3.261-2.42-6.518-3.676-9.896c0.843-0.318,1.58-0.672,2.438-1.239C60.467,70.676,60.939,74.314,61.412,77.954z     M49.922,67.022c-9.453-0.101-17.207-7.41-16.821-17.773c0.292-7.833,6.558-17.142,18.608-16.354    c8.115,0.532,15.784,7.99,15.375,17.57C67.482,58.829,59.649,67.128,49.922,67.022z M78.449,78.064    c-1.535-1.296-3.408-1.786-5.279-2.305c-1.642-0.452-3.336-0.802-4.645-2.021c-1.01-0.939-1.824-2.022-2.552-3.196    c-1.168-1.881-2.747-3.351-4.878-4.376c0.912-0.463,1.518-1.143,2.154-1.694c2.913,1.428,4.651,3.787,6.181,6.32    c1.141,1.896,2.868,2.96,4.809,3.868c1.771,0.829,3.47,1.828,4.702,3.441C78.717,78.323,78.544,78.148,78.449,78.064z     M68.742,63.926c1.169,0.951,1.814,2.316,2.611,3.564c0.656,1.032,0.835,2.275,1.572,3.275c0.998,1.358,2.408,2.183,3.747,3.12    c1.131,0.792,2.468,1.399,2.984,2.832c0.226,0.623,0.38,1.27,0.496,1.938c-0.808-1.086-1.548-2.194-2.679-2.967    c-0.835-0.57-1.632-1.17-2.596-1.537c-1.879-0.713-3.426-1.922-4.513-3.591c-1.707-2.612-3.503-5.108-6.349-6.69    c0.65-0.732,1.221-1.378,1.789-2.02C66.811,62.553,67.822,63.181,68.742,63.926z M77.189,63.019    c-3.49-0.752-7.008-1.373-10.481-2.495c0.25-0.792,0.7-1.364,1.091-2.083c3.164,1.455,6.314,2.906,9.466,4.355    C77.238,62.869,77.215,62.945,77.189,63.019z M77.649,61.705c-0.041,0.072-0.085,0.146-0.126,0.218    c-3.079-1.42-6.16-2.838-9.28-4.276c0.285-0.821,0.553-1.591,0.866-2.495C71.993,57.364,74.822,59.533,77.649,61.705z     M90.842,50.021c-2.262-0.191-4.158,0.826-5.988,1.91c-2.002,1.187-4.004,2.177-6.438,1.908c-1.01-0.113-1.994-0.327-2.979-0.531    c-1.91-0.395-3.758-0.354-5.591,0.302c-0.097,0.033-0.203,0.028-0.433,0.06c0.012-0.984,0.377-1.855,0.22-2.781    c1.295-0.528,2.624-0.472,3.945-0.489c2.148-0.028,4.181,0.741,6.286,0.962c1.462,0.155,2.868-0.346,4.23-0.852    c1.681-0.621,3.379-1.177,5.191-1.157c0.707,0.007,1.426,0.097,2.087,0.421C91.273,50.121,91.021,50.036,90.842,50.021z     M89.043,48.937c-1.691-0.075-3.282,0.421-4.848,0.979c-1.852,0.663-3.723,0.718-5.648,0.357    c-1.781-0.334-3.547-0.771-5.391-0.728c-0.865,0.021-1.705,0.183-2.535,0.381c-0.314,0.076-0.609,0.107-0.969,0.06    c0.182-0.887-0.107-1.722-0.219-2.596c0.221-0.459,0.693-0.225,1.053-0.31c0.801-0.19,1.622-0.363,2.445-0.412    c2.117-0.123,4.13,0.411,6.026,1.286c1.485,0.685,3.007,0.75,4.544,0.547c1.479-0.198,2.93-0.62,4.405-0.866    c0.438-0.073,0.936,0.052,1.377,0.188c1.364,0.427,2.452,1.403,3.775,1.927C91.701,49.495,90.407,48.998,89.043,48.937z" fill-rule="evenodd"/><path clip-rule="evenodd" d="M66.367,52.322c0.074-2.921-0.024-5.811-1.213-8.582    c-1.551-3.619-3.971-6.431-7.458-8.224c-4.358-2.24-8.905-2.377-13.526-0.849c-2.67,0.883-4.688,2.669-6.451,4.784    c-0.912,1.098-1.722,2.269-2.373,3.545c-1.374,2.686-1.416,5.578-1.266,8.484c0.241,4.796,2.493,8.617,6.131,11.55    c2.753,2.219,5.948,3.569,9.377,3.205c1.254,0.093,2.262,0.177,3.24-0.032c6.6-1.415,10.899-5.391,13.018-11.763    C66.071,53.75,66.347,53.034,66.367,52.322z" fill-rule="evenodd"/></g></g><g id="Layer_10_xA0_Image"/><g id="Layer_2_xA0_Image"/><g id="From_selection_xA0_Image"/><g id="Inserted_Image_xA0_Image"/></svg>