<?xml version="1.0" ?><!DOCTYPE svg  PUBLIC '-//W3C//DTD SVG 1.1//EN'  'http://www.w3.org/Graphics/SVG/1.1/DTD/svg11.dtd'><svg enable-background="new 0 0 100 100" height="100px" version="1.1" viewBox="0 0 100 100" width="100px" xml:space="preserve" xmlns="http://www.w3.org/2000/svg" xmlns:xlink="http://www.w3.org/1999/xlink"><g id="Layer_1"/><g id="Layer_14_xA0_Image"/><g id="Layer_12_xA0_Image"/><g id="Layer_9_xA0_Image"/><g id="Layer_11_xA0_Image"/><g id="Layer_13_xA0_Image"/><g id="Layer_10_xA0_Image"/><g id="Layer_2_xA0_Image"><g><path clip-rule="evenodd" d="M77.482,14.164c0.176-2.032,0.344-4.12-0.172-6.155    c-0.215-0.838-0.637-1.548-1.391-2.027c-0.915-0.581-1.951-0.776-2.996-0.805c-1.926-0.051-3.86,0.104-5.778-0.092    c-1.655-0.169-3.321-0.416-4.967-0.309c-1.274,0.083-2.54,0.118-3.81,0.077c-1.393-0.046-2.767-0.13-4.177-0.009    c-2.521,0.216-5.067,0.141-7.594-0.047c-1.735-0.128-3.481-0.246-5.207-0.266c-3.352-0.04-6.713-0.238-10.065,0.124    c-1.788,0.192-3.601-0.117-5.391,0.185c-1.318,0.222-2.333,0.811-2.943,2.064c-0.577,1.188-0.529,2.484-0.604,3.72    c-0.126,2.105,0.057,4.226,0.097,6.338c0.116,5.698,0.085,11.398,0.105,17.098c0.005,1.641,0.059,3.279,0.135,4.919    c0.069,1.499-0.002,3.003,0.027,4.504c0.151,7.603-0.025,15.206,0.191,22.81c0.219,7.654-0.091,15.319,0.305,22.973    c0.059,1.384-0.054,2.768,0.171,4.155c0.223,1.365,1.701,2.463,3.048,2.051c0.448-0.136,0.876-0.166,1.321-0.167    c5.371-0.006,10.746,0.012,16.119-0.014c4.747-0.023,9.494,0.068,14.24-0.099c3.657-0.129,7.309-0.204,10.973,0.043    c1.975,0.133,3.992,0.346,5.982-0.13c0.52-0.125,0.902-0.284,1.132-0.765c0.244-0.511,0.702-1.012,0.568-1.576    c-0.137-0.566-0.112-1.107-0.112-1.663c-0.002-1.311,0.225-2.61,0.177-3.927c-0.048-1.331-0.039-2.664-0.025-3.995    c0.076-7.811-0.123-15.625,0.176-23.434c0.06-1.554,0.011-3.11-0.007-4.664c-0.012-1.102-0.007-2.22,0.021-3.329    c0.069-2.699,0.084-5.403-0.002-8.107c-0.037-1.174,0.071-2.359,0.078-3.541c0.02-4.035-0.082-8.069,0.149-12.103    c0.07-1.239,0.054-2.496-0.118-3.735c-0.09-0.647,0.13-1.263,0.15-1.901C77.376,19.635,77.245,16.903,77.482,14.164z     M76.374,13.893c-0.256,3.659,0.042,7.326-0.195,10.978c-0.328,5.046-0.068,10.091-0.154,15.135    c-0.063,3.788,0.095,7.583-0.081,11.363c-0.272,5.765,0.01,11.529-0.21,17.288c-0.084,2.196,0.128,4.388-0.018,6.578    c-0.305,4.558-0.075,9.12-0.153,13.681c-0.021,1.256-0.015,2.516-0.021,3.774c-0.003,0.915-0.674,1.653-1.577,1.642    c-2.343-0.029-4.687-0.077-7.03-0.184c-2.288-0.103-4.582-0.037-6.874-0.035c-4.115,0.001-8.229-0.081-12.343,0.038    c-5.26,0.152-10.52,0.152-15.78,0.216c-0.964,0.011-1.942,0.043-2.902,0.061c-1.222,0.021-2.472,0.01-3.7-0.122    c-0.629-0.067-0.858-0.571-0.869-1.138c-0.029-1.427-0.03-2.855-0.033-4.282c-0.007-6.726,0.139-13.456-0.06-20.175    c-0.185-6.271-0.08-12.537-0.177-18.804c-0.021-1.53-0.13-3.058-0.16-4.584c-0.023-1.113,0.11-2.237,0.071-3.361    c-0.262-7.229-0.071-14.46-0.146-21.691c-0.038-3.887-0.047-7.776-0.054-11.664c-0.004-1.459,1.025-2.495,2.478-2.498    c4.905-0.009,9.808-0.003,14.353-0.003c4.81,0.052,9.26,0.011,13.713,0.094c2.432,0.044,4.861,0.292,7.3,0.146    c0.635-0.038,1.248-0.251,1.896-0.171c2.562,0.316,5.136,0.075,7.701,0.187c1.107,0.048,2.221,0.174,3.301,0.469    c0.153,0.042,0.333,0.123,0.428,0.243c0.559,0.7,1.076,1.356,1.217,2.353C76.502,10.926,76.475,12.415,76.374,13.893z" fill-rule="evenodd"/><path clip-rule="evenodd" d="M73.855,14.878c-0.015-1.446-0.021-2.893,0.027-4.338    c0.024-0.748,0.032-0.777-0.729-0.78c-2.064-0.008-4.138,0.085-6.188-0.089c-2.322-0.199-4.658-0.243-6.964-0.237    c-2.594,0.008-5.19-0.048-7.782-0.073c-2.169-0.021-4.345-0.079-6.518-0.188c-2.635-0.131-5.273-0.389-7.932-0.24    c-2,0.111-4.015-0.04-6.023-0.094c-0.825-0.023-1.64,0.185-2.472,0.064c-0.91-0.133-1.827-0.133-2.751,0.236    c-0.111,10.403,0.231,20.808-0.142,31.244c0.188-0.03,0.245-0.028,0.294-0.047c1.779-0.685,3.572-0.717,5.412-0.226    c1.304,0.348,2.584,0.1,3.846-0.352c-0.104-0.24-0.311-0.316-0.471-0.438c-2.482-1.882-4.969-3.762-7.461-5.635    c-0.289-0.216-0.494-0.444-0.393-0.917c3.273,0.518,6.455,1.381,9.729,2.138c-0.144-0.289-0.345-0.369-0.516-0.47    c-0.667-0.392-1.162-0.944-1.557-1.597c-0.505-0.837-1.003-1.689-1.318-2.608c-0.411-1.187-1.199-1.995-2.197-2.689    c-3.367-2.344-2.881-1.496-3.946-5.342c-0.009-0.037-0.032-0.07-0.037-0.106c-0.097-0.651-0.305-1.296-0.214-1.983    c0.229,0.029,0.309,0.159,0.4,0.269c1.584,1.891,3.467,3.29,5.962,3.767c2.516,0.481,4.319,1.95,5.599,4.15    c0.666,1.146,1.729,1.876,2.965,2.443c0-0.189,0.016-0.321,0-0.448c-0.44-3.1-0.883-6.199-1.317-9.298    c-0.055-0.381-0.117-0.783,0.355-1.089c1.963,2.719,3.627,5.605,5.423,8.414c-0.037-0.701-0.282-1.364-0.198-2.068    c0.148-1.303,0.552-2.54,1.082-3.715c0.491-1.088,0.522-2.158,0.333-3.294c-0.632-3.805-1.119-3.168,0.923-6.582    c0.058-0.096,0.094-0.207,0.162-0.294c0.38-0.486,0.678-1.044,1.266-1.532c0,0.369,0.003,0.572,0,0.775    c-0.035,1.672-0.095,3.341,0.632,4.923c0.407,0.891,0.954,1.701,1.413,2.56c0.771,1.438,1.001,2.96,0.833,4.575    c-0.104,0.987-0.486,1.926-0.429,2.941c0.046,0.819,0.243,1.589,0.519,2.429c0.125-0.15,0.187-0.218,0.24-0.292    c1.937-2.562,3.875-5.121,5.804-7.687c0.218-0.292,0.447-0.496,0.932-0.419c-0.532,3.287-1.39,6.495-2.099,9.741    c0.524-0.596,0.884-1.31,1.558-1.762c1.05-0.705,2.167-1.279,3.339-1.738c0.408-0.16,0.778-0.357,1.123-0.625    c1.049-0.819,1.657-1.984,2.364-3.06c0.655-0.997,1.472-1.674,2.658-1.91c0.566-0.114,1.113-0.33,1.678-0.461    c0.661-0.154,1.331-0.295,2.028-0.245c-0.014,0.111-0.006,0.158-0.026,0.18c-0.076,0.082-0.159,0.161-0.245,0.232    c-1.901,1.604-3.295,3.504-3.774,6.022c-0.475,2.495-1.96,4.278-4.139,5.544c-1.153,0.669-1.874,1.744-2.471,3.014    c0.736-0.104,1.397-0.201,2.06-0.292c2.652-0.364,5.309-0.723,7.964-1.093c0.328-0.045,0.585,0.024,0.857,0.364    c-2.725,1.966-5.621,3.635-8.588,5.485c0.859-0.078,1.521-0.37,2.224-0.266c1.42,0.212,2.768,0.666,4.074,1.248    c0.896,0.398,1.816,0.36,2.76,0.217c0.02-0.183,0.044-0.312,0.049-0.441c0.149-4.337,0.085-8.673-0.072-13.011    C73.617,23.481,73.892,19.18,73.855,14.878z" fill-rule="evenodd"/><path clip-rule="evenodd" d="M73.516,45.892c-1.258,0.52-2.553,0.665-3.913,0.54    c-0.864-0.079-1.673-0.396-2.546-0.435c-0.985-0.042-1.891,0.21-2.868,0.507c0.151,0.138,0.227,0.22,0.316,0.286    c2.519,1.901,5.035,3.801,7.557,5.698c0.306,0.229,0.61,0.449,0.5,0.997c-3.278-0.516-6.477-1.386-9.726-2.075    c0.739,0.538,1.49,1.034,1.967,1.833c0.561,0.936,1.11,1.883,1.477,2.909c0.365,1.025,1.021,1.777,1.884,2.384    c0.674,0.475,1.35,0.955,2.051,1.388c0.903,0.556,1.437,1.347,1.679,2.363c0.16,0.655,0.381,1.296,0.52,1.955    c0.133,0.624,0.31,1.257,0.086,1.962c-0.125-0.071-0.177-0.196-0.258-0.295c-1.581-1.924-3.484-3.318-5.998-3.8    c-2.517-0.483-4.314-1.967-5.594-4.162c-0.677-1.161-1.766-1.877-3.021-2.47c0.04,0.225,0.07,0.369,0.092,0.515    c0.441,3.174,0.881,6.349,1.328,9.522c0.048,0.337-0.064,0.577-0.379,0.858c-1.954-2.696-3.597-5.565-5.405-8.336    c0.059,0.741,0.278,1.452,0.154,2.188c-0.208,1.208-0.556,2.383-1.067,3.49c-0.504,1.097-0.532,2.184-0.334,3.345    c0.608,3.569,1.108,3.222-0.841,6.38c-0.119,0.19-0.189,0.418-0.335,0.585c-0.374,0.439-0.607,1.015-1.199,1.338    c0-0.125-0.003-0.177,0-0.229c0.009-0.111,0.024-0.222,0.029-0.332c0.077-1.714,0.079-3.415-0.622-5.036    c-0.397-0.917-0.963-1.739-1.437-2.612c-0.966-1.775-1.109-3.666-0.639-5.575c0.369-1.498,0.232-2.905-0.271-4.373    c-0.104,0.125-0.18,0.207-0.247,0.294c-1.921,2.548-3.843,5.097-5.762,7.647c-0.22,0.292-0.441,0.562-0.958,0.45    c0.493-3.251,1.374-6.415,2.04-9.637c-0.505,0.564-0.864,1.229-1.497,1.663c-1.011,0.694-2.088,1.277-3.232,1.701    c-1.041,0.385-1.797,1.059-2.41,1.938c-0.461,0.662-0.91,1.333-1.358,2.005c-0.381,0.57-0.807,1.104-1.466,1.354    c-1.104,0.417-2.25,0.711-3.407,0.938c-0.431,0.083-0.878,0.233-1.362,0.076c0.056-0.231,0.221-0.304,0.345-0.41    c0.806-0.682,1.519-1.457,2.175-2.28c0.94-1.181,1.291-2.612,1.635-4.035c0.553-2.294,1.929-3.938,3.924-5.122    c1.21-0.719,1.99-1.798,2.601-3.091c-0.133,0-0.188-0.007-0.242,0c-3.266,0.456-6.534,0.907-9.797,1.378    c-0.348,0.05-0.562-0.093-0.878-0.341c2.744-1.981,5.624-3.648,8.435-5.447c-0.229-0.007-0.444,0.03-0.658,0.068    c-0.535,0.097-1.062,0.194-1.62,0.091c-1.334-0.249-2.605-0.676-3.85-1.219c-0.828-0.36-1.687-0.397-2.564-0.201    c-0.02,0.199-0.041,0.328-0.04,0.458c0.037,2.291-0.18,4.583-0.023,6.869c0.185,2.738-0.033,5.48,0.129,8.219    c0.081,1.362-0.104,2.739-0.079,4.108c0.025,1.2,0.041,2.395-0.007,3.594c-0.043,1.062-0.089,2.126-0.004,3.213    c0.516,0,0.983,0.004,1.448-0.001c1.621-0.019,3.225,0.067,4.691,0.883c0.456,0.254,0.908,0.575,1.401,0.701    c2.007,0.509,3.615,1.676,5.154,2.978c0.644,0.545,1.273,1.145,2.141,1.298c0.938,0.165,1.89,0.257,2.84,0.367    c2.034,0.235,3.603,1.175,4.584,3.011c0.15,0.277,0.233,0.594,0.46,0.828c1.321,0,2.636,0.007,3.948-0.003    c0.667-0.005,1.322,0.02,1.993-0.207c2.334-0.79,4.294-2.041,5.598-4.189c0.34-0.562,0.667-1.134,1.037-1.675    c1.568-2.288,3.613-3.669,6.52-3.41c0.309,0.027,0.595,0.158,0.938,0.057c1.721-0.507,2.822-1.723,3.688-3.195    c0.211-0.358,0.51-0.702,0.524-1.166c0.031-0.977,0.107-1.952,0.11-2.927c0.012-3.511,0.214-7.019,0.064-10.533    c-0.105-2.476,0.027-4.956,0.149-7.432c0.017-0.342,0.002-0.687,0.002-1.064C73.657,45.852,73.583,45.864,73.516,45.892z     M42.684,73.762c-0.214,0.334-0.555,0.308-0.891,0.208c-0.188-0.387-0.066-0.688,0.221-0.911c0.197-0.152,0.425-0.109,0.605,0.08    C42.804,73.331,42.796,73.584,42.684,73.762z M55.824,78.086c-0.371,0.012-0.464-0.267-0.453-0.569    c0.009-0.334,0.173-0.583,0.54-0.577c0.357,0.005,0.456,0.262,0.461,0.654C56.367,77.876,56.164,78.074,55.824,78.086z     M66.558,67.524c-0.313-0.011-0.565-0.17-0.528-0.52c0.031-0.304,0.169-0.609,0.534-0.622c0.395-0.013,0.462,0.309,0.517,0.569    C67.069,67.335,66.895,67.536,66.558,67.524z" fill-rule="evenodd"/><path clip-rule="evenodd" d="M47.18,81.756c0.478,0,0.913-0.129,1.386-0.227    c-0.082-0.499-0.454-0.796-0.679-1.175c-0.603-1.022-1.523-1.645-2.655-1.917c-0.723-0.175-1.473-0.312-2.215-0.333    c-1.711-0.047-3.081-0.809-4.355-1.856c-1.256-1.034-2.645-1.524-4.266-0.93c-0.473,0.173-0.961,0.315-1.43,0.5    c-2.566,1.007-4.609,2.702-6.323,4.825c-0.26,0.321-0.191,1.083,0.088,1.086c0.569,0.007,1.097,0.243,1.657,0.24    c1.63-0.009,3.26-0.099,4.887-0.13C37.91,81.751,42.545,81.768,47.18,81.756z" fill-rule="evenodd"/><path clip-rule="evenodd" d="M68.898,76.225c-1.658-0.82-3.193-0.792-4.657,0.402    c-0.843,0.686-1.645,1.419-2.587,1.982c-1.799,1.077-3.572,2.194-5.763,2.889c5.919,0,11.665,0,17.453,0c0-1.587,0-3.094,0-4.618    c-0.333,0.068-0.64,0.154-0.952,0.191C71.125,77.22,69.987,76.764,68.898,76.225z" fill-rule="evenodd"/><path clip-rule="evenodd" d="M60.789,86.228c-0.808,0.331-1.509,0.864-2.016,1.581    c-0.458,0.646-1.037,0.899-1.811,0.897c-0.92-0.003-1.838,0-2.755-0.095c-0.16-0.017-0.342,0.018-0.493-0.2    c1.902-0.686,2.657-2.237,3.153-3.985c-0.194-0.132-0.298-0.092-0.409-0.063c-1.71,0.438-2.757,1.624-3.421,3.164    c-0.258,0.592-0.526,0.708-1.104,0.507c-1.483-0.516-2.966-1.039-4.522-1.303c-0.075-0.013-0.191-0.04-0.15-0.173    c1.467-0.229,3.002-1.776,2.873-2.914c-0.679,0.061-1.329,0.214-1.929,0.543c-0.98,0.541-1.629,1.405-2.192,2.371    c-1.63-0.258-3.218-0.064-4.962,0.349c0.471-0.948,1.176-1.668,0.99-2.674c-0.229-0.104-0.411,0.035-0.6,0.097    c-1.05,0.349-1.871,1.081-2.163,2.075c-0.345,1.187-1.068,1.93-2.008,2.581c-0.162,0.113-0.344,0.25-0.148,0.636    c1.276-0.734,2.511-1.57,3.968-1.896c0.998,1.773,2.575,2.601,4.428,3.036c-0.367-1.663-1.284-2.842-2.898-3.484    c1.22-0.353,3.534-0.396,4.562,0.097c0.422,2.068,2.53,3.085,3.927,3.014c0.065-0.974-0.57-1.634-1.088-2.377    c1.67,0.629,3.355,1.067,5.068,1.325c0.222,1.197,1.047,1.724,2.048,1.979c0.496,0.127,1.075,0.139,1.466-0.378    c-0.605-0.563-1.198-1.071-1.925-1.558c2.709-0.399,5.357-0.722,7.34-3.007C62.856,85.899,61.818,85.806,60.789,86.228z     M39.399,87.556c-0.071-0.933,1.214-2.513,2.196-2.666C41.119,86.025,40.506,86.968,39.399,87.556z M44.737,90.046    c-0.894-0.045-2.697-1.479-2.886-2.297C42.736,87.556,44.273,88.941,44.737,90.046z M46.907,86.025    c0.65-0.974,1.562-1.471,2.727-1.858C48.985,85.363,47.825,86.138,46.907,86.025z M50.392,89.842    c-0.961-0.098-2.178-1.133-2.353-2.004C48.943,87.81,50.203,88.88,50.392,89.842z M56.138,85.1    c-0.585,1.414-1.491,2.351-2.769,3.026C53.398,87.138,54.927,85.442,56.138,85.1z M57.693,90.721    c-0.744,0.272-1.77-0.314-2.037-1.224C56.493,89.752,57.167,90.098,57.693,90.721z M59.159,88.351    c0.738-1.377,2.328-2.066,3.534-1.566C61.714,87.728,60.503,88.07,59.159,88.351z" fill-rule="evenodd"/><path clip-rule="evenodd" d="M37.726,42.813c-0.138,7.319,5.915,12.346,12.094,12.304    c7.472-0.051,12.258-5.671,12.407-12.094c0.032-6.857-5.745-12.247-12.418-12.061C42.857,31.156,37.843,36.636,37.726,42.813z     M45.05,32.503c4.009-1.599,8.064-1.62,11.706,0.989c3.669,2.63,5.293,6.265,4.991,10.865c-0.328,4.967-4.778,9.254-9.668,10.137    c-0.736,0.133-1.488,0.219-2.102,0.148c-5.689-0.161-11.207-3.968-11.864-10.574c-0.144-1.427,0.207-2.801,0.62-4.151    C39.768,36.536,41.712,33.833,45.05,32.503z" fill-rule="evenodd"/><path clip-rule="evenodd" d="M69.622,72.834c-1.763-0.539-3.434-0.279-5.018,0.66    c-2.026,1.201-2.84,3.372-4.16,5.135c1.309-0.708,2.531-1.504,3.645-2.466c0.798-0.692,1.719-1.024,2.798-0.94    c0.729,0.056,1.373,0.315,2.033,0.588c1.442,0.594,2.894,1.246,4.457,0.243c0-1.225,0-2.467,0-3.779    c-0.189,0.093-0.313,0.138-0.417,0.207C71.907,73.174,70.798,73.195,69.622,72.834z" fill-rule="evenodd"/><path clip-rule="evenodd" d="M29.232,77.312c2.153-1.558,4.463-2.725,7.241-2.615    c-0.651-0.525-1.39-0.968-2.246-1.112c-2.71-0.458-5.158,0.301-7.454,1.694c-0.137,0.083-0.216,0.19-0.215,0.364    c0.002,1.329,0,2.658,0,4.036C27.352,78.791,28.264,78.011,29.232,77.312z" fill-rule="evenodd"/><path clip-rule="evenodd" d="M67.662,25.75c-0.734,1.794-1.882,3.159-3.584,4.097    c-1.159,0.64-2.14,1.518-2.953,2.571c-0.309,0.4-0.595,0.813-0.719,1.324c0.398,0.488,0.789,0.963,1.224,1.497    c0.775-1.815,2.208-2.912,3.78-3.875c1.536-0.943,2.459-2.301,2.855-4.07c0.408-1.818,0.929-3.607,2.317-4.981    c0.018-0.017,0.004-0.063,0.008-0.128c-0.294,0.062-0.493,0.255-0.707,0.425C68.837,23.441,68.153,24.551,67.662,25.75z" fill-rule="evenodd"/><path clip-rule="evenodd" d="M48.478,67.274c1.024,1.592,1.93,3.262,1.854,5.272    c0.207-0.341,0.263-0.7,0.285-1.074c0.083-1.343-0.252-2.611-0.739-3.836c-0.598-1.502-0.849-3.009-0.427-4.611    c0.405-1.548,0.66-3.123,0.369-4.732c-0.073-0.401-0.12-0.812-0.37-1.16c-0.604-0.076-1.194-0.149-1.845-0.23    c0,0.119-0.015,0.179,0.002,0.228c0.556,1.563,0.458,3.145,0.052,4.706C47.156,63.782,47.378,65.56,48.478,67.274z" fill-rule="evenodd"/><path clip-rule="evenodd" d="M67.239,60.595c-1.466-0.634-2.699-1.52-3.524-2.933    c-0.711-1.219-1.525-2.367-2.64-3.268c-0.464-0.376-0.926-0.753-1.521-0.908c-0.497,0.403-0.976,0.789-1.504,1.216    c1.734,0.768,2.814,2.142,3.747,3.67c0.957,1.572,2.326,2.533,4.146,2.939c1.837,0.41,3.647,0.938,5.014,2.372    c0.012,0.013,0.061-0.01,0.114-0.021c-0.135-0.341-0.353-0.615-0.59-0.883C69.586,61.769,68.45,61.122,67.239,60.595z" fill-rule="evenodd"/><path clip-rule="evenodd" d="M51.669,18.941c-0.972-1.495-1.813-3.077-1.792-4.952    c0.001-0.045-0.052-0.092-0.101-0.178c-0.05,0.116-0.097,0.193-0.115,0.277c-0.033,0.146-0.054,0.294-0.069,0.443    c-0.146,1.398,0.152,2.732,0.676,4.009c0.663,1.613,0.877,3.235,0.402,4.936c-0.366,1.311-0.498,2.652-0.38,4.012    c0.05,0.556,0.122,1.11,0.423,1.604c0.614,0.068,1.199,0.189,1.803,0.131c0.006-0.082,0.024-0.142,0.008-0.19    c-0.501-1.553-0.391-3.109-0.001-4.659C53.009,22.437,52.781,20.651,51.669,18.941z" fill-rule="evenodd"/><path clip-rule="evenodd" d="M38.335,27.822c-0.908-1.479-2.189-2.426-3.896-2.828    c-1.902-0.448-3.805-0.928-5.259-2.409c0.016,0.303,0.188,0.499,0.348,0.699c0.934,1.167,2.214,1.824,3.53,2.44    c1.178,0.55,2.31,1.162,3.022,2.335c0.457,0.752,0.947,1.49,1.482,2.188c0.79,1.031,1.702,1.94,2.893,2.497    c0.54-0.411,1.043-0.791,1.603-1.214C40.333,30.728,39.268,29.342,38.335,27.822z" fill-rule="evenodd"/><path clip-rule="evenodd" d="M70.802,21.483c-0.259,0.075-0.514,0.171-0.778,0.22    c-1.119,0.21-1.949,0.795-2.523,1.791c-0.377,0.648-0.83,1.25-1.261,1.864c-0.685,0.977-1.564,1.675-2.707,2.096    c-2.271,0.834-3.946,2.387-5.097,4.532c0.476,0.405,0.969,0.827,1.502,1.278c0.979-1.862,2.53-3.116,4.243-4.202    c1.503-0.953,2.581-2.228,3.259-3.895c0.438-1.078,1.141-2.03,2.093-2.746c0.415-0.311,0.866-0.577,1.3-0.864    C70.823,21.534,70.813,21.508,70.802,21.483z" fill-rule="evenodd"/><path clip-rule="evenodd" d="M32.495,60.536c0.736-1.841,1.935-3.217,3.665-4.171    c0.686-0.38,1.336-0.841,1.882-1.416c0.6-0.632,1.26-1.227,1.576-2.09c-0.41-0.478-0.8-0.929-1.254-1.458    c-0.801,1.552-2.055,2.543-3.455,3.386c-1.629,0.981-2.616,2.393-3.028,4.27c-0.394,1.8-0.93,3.567-2.325,4.909    c-0.017,0.014-0.002,0.062-0.002,0.14c0.315-0.116,0.554-0.309,0.796-0.512C31.336,62.765,32.027,61.705,32.495,60.536z" fill-rule="evenodd"/><path clip-rule="evenodd" d="M52.06,56.932c-0.587,0.068-1.213,0.14-1.95,0.224    c0.669,2.091,0.341,4.104-0.077,6.115c-0.322,1.543-0.236,3.029,0.375,4.514c0.507,1.234,0.793,2.544,0.54,3.901    c-0.105,0.564-0.253,1.12-0.407,1.79c0.294-0.542,0.521-0.996,0.781-1.427c0.445-0.742,0.6-1.519,0.402-2.371    c-0.147-0.639-0.271-1.284-0.387-1.928c-0.228-1.226-0.396-2.459,0.164-3.643C52.599,61.791,52.809,59.408,52.06,56.932z" fill-rule="evenodd"/><path clip-rule="evenodd" d="M47.879,28.095c0.104,0.367-0.05,0.793,0.261,1.156    c0.6-0.227,1.241-0.07,1.888-0.18c-0.151-0.719-0.297-1.393-0.331-2.091c-0.076-1.501,0.271-2.944,0.52-4.403    c0.196-1.16,0.24-2.338-0.208-3.438c-0.812-1.987-1.21-3.979-0.505-6.117c-0.215,0.394-0.417,0.792-0.646,1.177    c-0.441,0.741-0.604,1.513-0.399,2.372c0.176,0.729,0.286,1.473,0.427,2.208c0.217,1.142,0.271,2.272-0.202,3.373    C47.865,24.059,47.274,25.997,47.879,28.095z" fill-rule="evenodd"/><path clip-rule="evenodd" d="M71.422,62.737c-0.221-0.88-0.696-1.554-1.475-2.038    c-0.718-0.444-1.405-0.939-2.097-1.425c-0.81-0.57-1.544-1.245-1.883-2.19c-0.863-2.411-2.319-4.31-4.629-5.52    c-0.38,0.433-0.798,0.911-1.29,1.472c1.824,0.979,3.03,2.5,4.087,4.159c0.948,1.482,2.183,2.577,3.837,3.25    c1.133,0.46,2.134,1.187,2.87,2.201c0.325,0.446,0.602,0.927,0.899,1.393C71.667,63.591,71.531,63.167,71.422,62.737z" fill-rule="evenodd"/><path clip-rule="evenodd" d="M28.752,23.505c0.207,0.861,0.652,1.532,1.417,2.009    c0.732,0.458,1.433,0.965,2.141,1.458c0.815,0.567,1.534,1.244,1.886,2.187c0.862,2.33,2.205,4.25,4.506,5.423    c0.383-0.418,0.808-0.887,1.298-1.424c-1.747-1.006-2.927-2.476-3.953-4.089c-0.944-1.48-2.164-2.615-3.841-3.248    c-0.568-0.215-1.073-0.606-1.585-0.953c-0.982-0.67-1.638-1.624-2.197-2.661C28.506,22.652,28.648,23.074,28.752,23.505z" fill-rule="evenodd"/><path clip-rule="evenodd" d="M29.155,64.85c0.425-0.128,0.842-0.284,1.273-0.38    c0.935-0.208,1.62-0.72,2.122-1.533c0.421-0.687,0.891-1.345,1.357-2.003c0.631-0.885,1.38-1.629,2.432-2.015    c2.258-0.83,4.072-2.193,5.195-4.396c-0.453-0.382-0.938-0.789-1.443-1.214c-0.231,0.328-0.444,0.636-0.664,0.935    c-1.011,1.375-2.434,2.264-3.807,3.215c-1.177,0.815-2.099,1.824-2.664,3.184c-0.536,1.288-1.284,2.466-2.458,3.296    c-0.438,0.31-0.91,0.575-1.365,0.86C29.139,64.815,29.148,64.833,29.155,64.85z" fill-rule="evenodd"/><path clip-rule="evenodd" d="M73.25,43.767c-0.938,0.3-1.876,0.28-2.835,0.08    c-1.135-0.236-2.259-0.566-3.435-0.547c-0.95,0.017-1.915-0.038-2.84,0.441c0.064,0.609-0.201,1.201-0.089,1.878    c1.791-0.637,3.534-0.354,5.291,0.038c1.165,0.261,2.345,0.289,3.481-0.204c1.111-0.481,1.117-0.476,0.954-1.785    C73.577,43.705,73.407,43.717,73.25,43.767z" fill-rule="evenodd"/><path clip-rule="evenodd" d="M33.271,41.005c-0.867-0.055-1.696-0.286-2.542-0.436    c-1.16-0.203-2.306-0.251-3.418,0.253c-1.01,0.458-1.059,0.53-0.828,1.664c0.146,0.078,0.294,0.052,0.438,0.003    c0.973-0.326,1.947-0.292,2.936-0.059c0.673,0.159,1.355,0.288,2.036,0.407c1.249,0.217,2.489,0.173,3.772-0.142    c0.065-0.648,0.126-1.267,0.193-1.936C34.946,40.932,34.122,41.059,33.271,41.005z" fill-rule="evenodd"/><path clip-rule="evenodd" d="M73.761,42.054c-1.087,0.106-2.087-0.054-3.078-0.501    c-2.134-0.96-4.351-1.153-6.658-0.401c0.047,0.573,0.101,1.199,0.155,1.874c0.525-0.086,1.015-0.188,1.509-0.245    c1.551-0.179,3.059,0.116,4.569,0.407c1.184,0.228,2.366,0.313,3.586-0.085C73.798,42.739,73.941,42.391,73.761,42.054z" fill-rule="evenodd"/><path clip-rule="evenodd" d="M29.628,43.018c-1.014-0.19-2.046-0.26-3.099,0.095    c-0.091,0.369-0.075,0.693,0.041,1.045c1.142-0.064,2.176,0.228,3.22,0.658c1.93,0.793,3.93,1.078,5.994,0.326    c-0.042-0.581-0.085-1.19-0.135-1.874C33.57,43.807,31.603,43.386,29.628,43.018z" fill-rule="evenodd"/><path clip-rule="evenodd" d="M26.548,71.924c0,0.988,0,1.937,0,3.075c2.059-1.518,4.239-2.103,6.757-2    C31.083,71.64,28.832,71.668,26.548,71.924z" fill-rule="evenodd"/><path clip-rule="evenodd" d="M58.328,63.853c-0.379-2.875-0.759-5.75-1.144-8.657    c-0.609,0.296-1.16,0.564-1.767,0.86c0.96,2.62,1.911,5.214,2.862,7.808C58.296,63.861,58.312,63.857,58.328,63.853z" fill-rule="evenodd"/><path clip-rule="evenodd" d="M70.694,34.9c-2.825,0.375-5.651,0.75-8.528,1.131    c0.314,0.616,0.585,1.147,0.893,1.751c2.573-0.945,5.115-1.878,7.657-2.811C70.707,34.948,70.702,34.924,70.694,34.9z" fill-rule="evenodd"/><path clip-rule="evenodd" d="M53.638,29.527c0.642,0.215,1.233,0.417,1.85,0.625    c1.151-2.483,2.284-4.927,3.413-7.37c-0.019-0.014-0.038-0.028-0.059-0.042C57.119,24.989,55.394,27.236,53.638,29.527z" fill-rule="evenodd"/><path clip-rule="evenodd" d="M46.542,56.714c-0.666-0.2-1.268-0.38-1.883-0.565    c-1.13,2.441-2.237,4.834-3.344,7.227c0.025,0.018,0.054,0.036,0.081,0.054C43.107,61.196,44.818,58.965,46.542,56.714z" fill-rule="evenodd"/><path clip-rule="evenodd" d="M70.378,51.812c-2.199-1.688-4.4-3.375-6.641-5.092    c-0.215,0.62-0.414,1.197-0.633,1.833c2.45,1.133,4.837,2.236,7.224,3.34C70.345,51.866,70.363,51.838,70.378,51.812z" fill-rule="evenodd"/><path clip-rule="evenodd" d="M59.388,23.313c-0.028-0.009-0.059-0.02-0.085-0.029    c-1.091,2.369-2.183,4.738-3.273,7.107c0.554,0.359,1.068,0.695,1.663,1.081C58.266,28.707,58.827,26.01,59.388,23.313z" fill-rule="evenodd"/><path clip-rule="evenodd" d="M52.98,56.794c1.557,2.374,3.072,4.691,4.59,7.007    c0.022-0.012,0.044-0.024,0.065-0.036c-0.918-2.484-1.837-4.97-2.775-7.512C54.205,56.442,53.623,56.609,52.98,56.794z" fill-rule="evenodd"/><path clip-rule="evenodd" d="M41.851,22.461c0.372,2.79,0.742,5.58,1.121,8.415    c0.588-0.299,1.129-0.575,1.712-0.871c-0.935-2.546-1.854-5.053-2.772-7.56C41.892,22.451,41.871,22.457,41.851,22.461z" fill-rule="evenodd"/><path clip-rule="evenodd" d="M70.656,35.603c-2.448,0.906-4.896,1.812-7.374,2.729    c0.192,0.632,0.363,1.202,0.56,1.848c2.341-1.537,4.598-3.019,6.857-4.5C70.685,35.653,70.668,35.628,70.656,35.603z" fill-rule="evenodd"/><path clip-rule="evenodd" d="M61.908,50.767c2.738,0.57,5.407,1.126,8.074,1.682    c0.009-0.024,0.016-0.048,0.024-0.072c-2.377-1.093-4.751-2.186-7.154-3.292C62.533,49.657,62.233,50.187,61.908,50.767z" fill-rule="evenodd"/><path clip-rule="evenodd" d="M47.086,29.3c-1.512-2.307-2.986-4.559-4.462-6.811    c-0.025,0.012-0.05,0.024-0.075,0.037c0.9,2.428,1.798,4.856,2.701,7.296C45.875,29.643,46.433,29.485,47.086,29.3z" fill-rule="evenodd"/><path clip-rule="evenodd" d="M40.748,63.099c0.019,0.007,0.039,0.013,0.059,0.019    c1.098-2.39,2.197-4.779,3.305-7.189c-0.579-0.298-1.094-0.562-1.686-0.868C41.859,57.779,41.303,60.439,40.748,63.099z" fill-rule="evenodd"/><path clip-rule="evenodd" d="M29.673,34.36c2.159,1.647,4.315,3.295,6.519,4.976    c0.241-0.624,0.446-1.158,0.667-1.728c-2.411-1.117-4.779-2.215-7.148-3.312C29.698,34.317,29.687,34.338,29.673,34.36z" fill-rule="evenodd"/><path clip-rule="evenodd" d="M29.501,51.267c0.006,0.026,0.013,0.053,0.021,0.08    c2.692-0.356,5.385-0.714,8.12-1.077c-0.301-0.564-0.578-1.085-0.888-1.664C34.296,49.507,31.9,50.387,29.501,51.267z" fill-rule="evenodd"/><path clip-rule="evenodd" d="M30.148,33.868c2.294,1.056,4.59,2.112,6.948,3.198    c0.327-0.549,0.623-1.045,0.963-1.62c-2.67-0.558-5.28-1.103-7.892-1.647C30.16,33.822,30.154,33.845,30.148,33.868z" fill-rule="evenodd"/><path clip-rule="evenodd" d="M29.426,50.687c2.358-0.875,4.72-1.749,7.099-2.631    c-0.177-0.593-0.338-1.126-0.525-1.755c-2.243,1.467-4.426,2.894-6.607,4.32C29.404,50.643,29.416,50.665,29.426,50.687z" fill-rule="evenodd"/><path clip-rule="evenodd" d="M70,72.356c0.149,0.061,0.209,0.096,0.272,0.109    c1.107,0.224,2.056-0.203,2.973-0.74c0.069-0.04,0.132-0.152,0.134-0.231c0.012-0.587,0.006-1.174,0.006-1.953    C72.392,70.797,71.449,71.83,70,72.356z" fill-rule="evenodd"/><path clip-rule="evenodd" d="M67.564,86.918c-0.395,0-0.793,0.407-0.789,0.807    c0.004,0.441,0.426,0.885,0.854,0.894c0.439,0.01,0.847-0.369,0.858-0.798C68.5,87.41,67.999,86.919,67.564,86.918z M67.626,88.15    c-0.295-0.003-0.467-0.099-0.45-0.361c0.021-0.307,0.234-0.403,0.509-0.396c0.239,0.005,0.42,0.126,0.405,0.366    C68.07,88.051,67.839,88.147,67.626,88.15z" fill-rule="evenodd"/><path clip-rule="evenodd" d="M32.742,87.18c-0.401-0.002-0.816,0.402-0.806,0.783    c0.014,0.417,0.393,0.787,0.804,0.784c0.426-0.005,0.81-0.337,0.809-0.704C33.548,87.618,33.141,87.182,32.742,87.18z     M32.685,88.303c-0.193-0.014-0.313-0.127-0.306-0.329c0.008-0.238,0.12-0.388,0.385-0.374c0.214,0.013,0.376,0.108,0.343,0.342    C33.075,88.162,32.934,88.321,32.685,88.303z" fill-rule="evenodd"/><path clip-rule="evenodd" d="M26.313,31.25c0.007,0,0.015,0,0.022,0c0-0.423,0-0.847,0-1.272    c-0.008-0.003-0.016-0.007-0.022-0.012C26.313,30.395,26.313,30.822,26.313,31.25z" fill-rule="evenodd"/><path clip-rule="evenodd" d="M73.988,25.502c0.011-0.008,0.022-0.015,0.035-0.022c0-0.246,0-0.491,0-0.737    c-0.013,0-0.024,0-0.035,0.001C73.988,24.997,73.988,25.25,73.988,25.502z" fill-rule="evenodd"/></g></g><g id="From_selection_xA0_Image"/><g id="Inserted_Image_xA0_Image"/></svg>