<?xml version="1.0" ?><!DOCTYPE svg  PUBLIC '-//W3C//DTD SVG 1.1//EN'  'http://www.w3.org/Graphics/SVG/1.1/DTD/svg11.dtd'><svg height="43.3492mm" style="shape-rendering:geometricPrecision; text-rendering:geometricPrecision; image-rendering:optimizeQuality; fill-rule:evenodd; clip-rule:evenodd" version="1.1" viewBox="0 0 4335 4335" width="43.3492mm" xml:space="preserve" xmlns="http://www.w3.org/2000/svg" xmlns:xlink="http://www.w3.org/1999/xlink"><defs><style type="text/css">
   <![CDATA[
    .fil0 {fill:#fff}
   ]]>
  </style></defs><g id="Layer_x0020_1"><path class="fil0" d="M3531 2328c-3,32 -34,102 -45,141 -15,51 -28,96 -39,147 109,-9 134,-65 177,-120 30,-39 26,-43 52,-50 -14,60 -66,130 -111,160 -189,124 -493,-28 -321,-245 15,-19 20,-22 51,-25 -6,24 -133,230 42,271 3,-32 17,-63 31,-88l164 -192zm-1527 -1024l159 -212 149 212c3,2 7,4 11,6 167,92 94,250 90,291 66,0 330,36 399,50 62,12 120,22 182,38 63,16 116,34 173,47 67,-45 62,-65 169,-119 195,-98 85,-54 169,-110 0,71 19,125 32,179 18,73 19,103 19,193 73,39 59,26 136,76 25,17 95,70 110,93 56,-37 302,-182 356,-195 -16,30 -24,55 -39,88 -15,32 -25,48 -38,81l-78 168c-14,27 -29,61 -40,87 -25,64 29,146 -78,167 -52,10 -46,15 -119,126l-99 146c-90,120 15,83 -44,168 -24,35 -50,25 -77,42 -6,4 -23,27 -40,54 -386,-85 -852,-134 -1354,-134 -497,0 -958,48 -1342,132 -15,-17 -32,-30 -48,-38 -97,-45 -33,-107 -68,-160l-197 -295c-48,-61 -107,-1 -116,-130 -3,-49 -120,-283 -149,-342l-87 -158c32,15 76,27 110,42 195,88 166,105 263,169 31,-8 36,-26 63,-47 106,-83 78,-72 200,-131 0,-153 42,-120 42,-389 27,20 52,91 141,138 251,135 76,129 350,56 114,-30 280,-62 400,-75l219 -18c-100,-149 -8,-255 74,-296zm1535 1008l-8 17 8 -17zm8 -17l-8 17 8 -17zm8 -17l-8 17 8 -17zm8 -17l-8 17 8 -17zm-2802 -8c24,18 14,10 27,41 10,23 11,26 27,49 85,116 154,149 183,274 154,-82 59,-176 59,-271 64,17 122,177 8,262 -35,26 -48,38 -91,44 -179,28 -314,-99 -323,-204 80,54 84,195 288,195l-59 -76c-19,-29 -34,-58 -47,-97 -14,-42 -21,-69 -35,-109 -12,-36 -30,-77 -37,-107zm2802 8c6,-24 -1,-13 17,-25 -6,24 1,13 -17,25zm-2811 -25l8 17 -8 -17zm2828 0c3,-40 13,-27 17,-68 9,-83 -38,-133 -127,-135 5,-22 8,-25 17,-42 52,4 213,126 237,161 -109,0 -90,23 -144,85zm-2828 0c-34,-25 -23,-82 -135,-85l229 -161 17 34c-131,63 -148,53 -111,212zm1626 -364c13,-55 25,-28 25,-119 189,0 573,27 728,102l0 85c-115,-77 -236,-31 -305,59 -159,209 -1,328 -110,534 135,0 206,-65 242,-173 16,-45 18,-72 71,-73 68,285 -599,447 -712,61 -14,-46 -18,-128 18,-128 95,0 41,112 74,189 25,59 93,97 172,99 0,-140 -7,-121 59,-254 25,-49 52,-91 71,-149 40,-123 -41,-257 -164,-257 -57,0 -120,2 -169,25zm-440 -8c-81,-19 -195,-56 -282,23 -118,107 -26,280 22,381 45,92 48,125 48,257 320,-75 145,-305 254,-305 62,0 42,183 -81,275 -278,209 -708,-49 -597,-216 105,28 -3,246 296,246 -18,-76 -34,-81 -34,-186 0,-61 5,-170 -6,-214 -73,-289 -330,-193 -375,-192 0,-95 -7,-78 66,-95l274 -56c125,-21 252,-35 397,-35 -21,43 8,80 17,119z"/></g></svg>
