<?xml version="1.0" ?><svg height="430" id="svg8" version="1.1" viewBox="0 0 113.77083 113.77083" width="430" xmlns="http://www.w3.org/2000/svg" xmlns:cc="http://creativecommons.org/ns#" xmlns:dc="http://purl.org/dc/elements/1.1/" xmlns:inkscape="http://www.inkscape.org/namespaces/inkscape" xmlns:rdf="http://www.w3.org/1999/02/22-rdf-syntax-ns#" xmlns:sodipodi="http://sodipodi.sourceforge.net/DTD/sodipodi-0.dtd" xmlns:svg="http://www.w3.org/2000/svg" xmlns:xlink="http://www.w3.org/1999/xlink"><defs id="defs2"><linearGradient id="linearGradient4610"><stop id="stop4606" offset="0" style="stop-color:#afe9dd;stop-opacity:1;"/><stop id="stop4608" offset="1" style="stop-color:#c8f0e8;stop-opacity:1"/></linearGradient><linearGradient id="linearGradient4602"><stop id="stop4598" offset="0" style="stop-color:#ffeda5;stop-opacity:1"/><stop id="stop4600" offset="1" style="stop-color:#ffe680;stop-opacity:1"/></linearGradient><linearGradient id="linearGradient4594"><stop id="stop4590" offset="0" style="stop-color:#fbcaa9;stop-opacity:1"/><stop id="stop4592" offset="1" style="stop-color:#fabe96;stop-opacity:1"/></linearGradient><linearGradient gradientUnits="userSpaceOnUse" id="linearGradient4649" x1="0.60742188" x2="83.857422" xlink:href="#linearGradient4594" y1="802.82617" y2="1026.5762"/><linearGradient gradientTransform="matrix(0.25106587,0,0,0.25106587,56.949406,-182.06257)" gradientUnits="userSpaceOnUse" id="linearGradient4780" x1="0.60742188" x2="83.857422" xlink:href="#linearGradient4594" y1="802.82617" y2="1026.5762"/><linearGradient gradientTransform="matrix(0.25106587,0,0,0.25106587,56.949406,-182.06257)" gradientUnits="userSpaceOnUse" id="linearGradient4782" x1="-75.642578" x2="0.60742188" xlink:href="#linearGradient4610" y1="1029.5762" y2="802.82617"/><linearGradient gradientUnits="userSpaceOnUse" id="linearGradient4886" x1="350.87057" x2="190.0551" xlink:href="#linearGradient4602" y1="252.42262" y2="183.80746"/></defs><g id="g4536"><g aria-label="4" id="text4756" style="font-style:normal;font-variant:normal;font-weight:normal;font-stretch:normal;font-size:7.76111126px;line-height:125%;font-family:'Facile Sans';-inkscape-font-specification:'Facile Sans';letter-spacing:0px;word-spacing:0px;fill:#ac9393;fill-opacity:1;stroke:none;stroke-width:0.27882856px;stroke-linecap:butt;stroke-linejoin:miter;stroke-opacity:1" transform="matrix(0.82178051,-0.4744552,0.4744552,0.82178051,-44.169691,-182.06257)"><path d="m -25.418031,294.96005 v -1.41252 h -2.219678 v -1.07879 l 2.204156,-3.39161 h 1.18745 v 3.29847 h 0.473428 v 1.17193 h -0.473428 v 1.41252 z m -0.752828,-2.58445 h 0.752828 v -1.16416 z" id="path4787" style="font-size:7.76111126px;fill:#ac9393;fill-opacity:1;stroke-width:0.27882856px"/></g><g aria-label="1" id="text4760" style="font-style:normal;font-variant:normal;font-weight:normal;font-stretch:normal;font-size:7.76111126px;line-height:125%;font-family:'Facile Sans';-inkscape-font-specification:'Facile Sans';letter-spacing:0px;word-spacing:0px;fill:#ac9393;fill-opacity:1;stroke:none;stroke-width:0.27882856px;stroke-linecap:butt;stroke-linejoin:miter;stroke-opacity:1" transform="matrix(0,0.9489104,-0.9489104,0,-44.169691,-182.06257)"><path d="m 252.96343,-107.5258 v -4.70324 h -0.47342 l 0.47342,-1.17968 h 1.17193 v 5.88292 z" id="path4790" style="font-size:7.76111126px;fill:#ac9393;fill-opacity:1;stroke-width:0.27882856px"/></g><g aria-label="3" id="text4764" style="font-style:normal;font-variant:normal;font-weight:normal;font-stretch:normal;font-size:7.76111126px;line-height:125%;font-family:'Facile Sans';-inkscape-font-specification:'Facile Sans';letter-spacing:0px;word-spacing:0px;fill:#ac9393;fill-opacity:1;stroke:none;stroke-width:0.27882856px;stroke-linecap:butt;stroke-linejoin:miter;stroke-opacity:1" transform="matrix(-0.67098098,-0.67098098,0.67098098,-0.67098098,-44.169691,-182.06257)"><path d="m -257.27348,-83.612324 q 0.27164,0.256117 0.42687,0.605367 0.15522,0.34925 0.15522,0.760589 0,0.388055 -0.14746,0.729544 -0.14746,0.341489 -0.40358,0.597606 -0.25612,0.256116 -0.59761,0.403578 -0.34149,0.147461 -0.72954,0.147461 -0.46567,0 -0.89253,-0.131939 -0.4191,-0.1397 -0.77611,-0.388056 l 0.47343,-1.125361 q 0.23283,0.225072 0.53551,0.34925 0.31045,0.124178 0.6597,0.124178 0.29492,0 0.49671,-0.201789 0.20955,-0.20955 0.20955,-0.504472 0,-0.147461 -0.0543,-0.271639 -0.0543,-0.131939 -0.15522,-0.225072 -0.0931,-0.100895 -0.22507,-0.155223 -0.12418,-0.05433 -0.27164,-0.05433 h -0.23283 v -1.179689 h 0.23283 q 0.18627,-0.0078 0.3182,-0.1397 0.13194,-0.1397 0.13194,-0.325967 0,-0.201789 -0.1397,-0.333728 -0.13194,-0.1397 -0.33372,-0.1397 -0.19403,0 -0.33373,0.1397 -0.1397,0.131939 -0.1397,0.333728 l -0.90029,-0.90805 q 0.22507,-0.341489 0.58208,-0.543278 0.35701,-0.201789 0.79164,-0.201789 0.34148,0 0.63641,0.131939 0.30268,0.124178 0.52775,0.34925 0.22507,0.225072 0.34925,0.527756 0.13194,0.302683 0.13194,0.644172 0,0.271639 -0.0854,0.527756 -0.0854,0.248355 -0.2406,0.457905 z" id="path4793" style="font-size:7.76111126px;fill:#ac9393;fill-opacity:1;stroke-width:0.27882856px"/></g><path d="m 56.120833,18.245337 c -0.004,2.98e-4 -0.008,6.14e-4 -0.0118,9.48e-4 -0.0251,0.0011 -0.0501,0.003 -0.0751,0.0057 -0.0165,0.0012 -0.0331,0.0028 -0.0495,0.0047 -0.0258,0.0039 -0.0515,0.0087 -0.077,0.01423 -0.0156,0.003 -0.0311,0.0062 -0.0466,0.0098 -0.0207,0.0052 -0.0413,0.01092 -0.0618,0.01717 -0.0219,0.0063 -0.0436,0.01314 -0.0652,0.02059 -0.0151,0.0057 -0.0302,0.01179 -0.0451,0.01812 -0.0228,0.009 -0.0454,0.01863 -0.0677,0.02894 -0.0172,0.0083 -0.0342,0.01695 -0.051,0.026 -0.0211,0.01102 -0.0418,0.02263 -0.0623,0.03482 -0.0134,0.0084 -0.0266,0.01708 -0.0397,0.026 -0.0214,0.01375 -0.0423,0.02815 -0.0628,0.04317 -0.0155,0.01192 -0.0307,0.02419 -0.0456,0.03682 -0.0165,0.01331 -0.0327,0.02705 -0.0486,0.04118 -0.0146,0.0137 -0.0288,0.02775 -0.0427,0.04213 -0.0175,0.01684 -0.0345,0.03418 -0.051,0.052 L 17.745982,61.035066 c -0.467025,0.528319 -0.407451,1.337549 0.131908,1.79178 l 37.471583,31.571539 c 0.005,0.0043 0.0111,0.0085 0.0167,0.01272 0.014,0.01109 0.0282,0.02188 0.0427,0.03236 0.0197,0.01479 0.0398,0.029 0.0603,0.04261 0.0123,0.0081 0.0247,0.01591 0.0373,0.02353 0.024,0.01471 0.0486,0.0286 0.0735,0.04166 0.0115,0.0057 0.0231,0.01131 0.0348,0.0167 0.0243,0.0119 0.049,0.02301 0.074,0.03331 0.0188,0.0073 0.0377,0.01418 0.0568,0.02059 0.0199,0.0072 0.0401,0.01392 0.0603,0.02012 0.0171,0.0048 0.0343,0.0092 0.0515,0.01319 0.0248,0.0063 0.0499,0.0119 0.0751,0.0167 0.0152,0.0025 0.0304,0.0047 0.0456,0.0066 0.0254,0.0039 0.0509,0.0071 0.0765,0.0095 0.0165,0.0013 0.033,0.0022 0.0495,0.0028 0.0261,0.0015 0.0523,0.0021 0.0785,0.0019 0.015,-3.63e-4 0.0301,-9.97e-4 0.0451,-0.0019 0.0254,-0.0011 0.0507,-0.003 0.076,-0.0057 0.0203,-0.0027 0.0406,-0.0058 0.0608,-0.0095 0.0202,-0.0033 0.0403,-0.007 0.0603,-0.01129 0.0216,-0.0048 0.043,-0.01019 0.0642,-0.01613 0.0186,-0.0048 0.0371,-0.01002 0.0554,-0.01566 0.0231,-0.0078 0.046,-0.01635 0.0687,-0.02553 0.0161,-0.0061 0.0322,-0.01245 0.048,-0.01917 0.0198,-0.0089 0.0395,-0.01841 0.0588,-0.02837 0.0192,-0.0093 0.0381,-0.01913 0.0568,-0.02942 0.0186,-0.01082 0.0369,-0.02212 0.0549,-0.03388 0.0159,-0.0098 0.0316,-0.0199 0.0471,-0.03037 0.0302,-0.02094 0.0595,-0.0432 0.0878,-0.06671 l 4.8e-4,-5.03e-4 37.4711,-31.571036 c 0.53936,-0.454231 0.59893,-1.263461 0.1319,-1.79178 l -37.47116,-42.36727 c -0.0154,-0.01662 -0.0313,-0.03282 -0.0475,-0.04858 -0.008,-0.0088 -0.0169,-0.01746 -0.0255,-0.026 -0.0229,-0.02163 -0.0466,-0.0424 -0.0711,-0.06225 -0.007,-0.0063 -0.0147,-0.01248 -0.0221,-0.0186 -0.0244,-0.01872 -0.0494,-0.03654 -0.0751,-0.05342 -0.01,-0.0068 -0.0192,-0.01355 -0.0289,-0.02012 -0.0262,-0.01619 -0.053,-0.03142 -0.0804,-0.04564 -0.009,-0.0052 -0.0185,-0.01024 -0.0279,-0.01518 -0.0271,-0.01342 -0.0548,-0.02586 -0.0828,-0.03729 -0.011,-0.0049 -0.0221,-0.0096 -0.0333,-0.01423 -0.026,-0.0095 -0.0524,-0.01821 -0.079,-0.026 -0.0142,-0.0045 -0.0284,-0.0087 -0.0427,-0.01272 -0.024,-0.0061 -0.0482,-0.01154 -0.0726,-0.01623 -0.0169,-0.0038 -0.0339,-0.0072 -0.051,-0.01034 -0.0239,-0.0035 -0.048,-0.0064 -0.0721,-0.0085 -0.0175,-0.0019 -0.035,-0.0035 -0.0525,-0.0047 -0.006,-6.75e-4 -0.0118,-0.0013 -0.0176,-0.0019 -0.0196,-4.6e-4 -0.0392,-4.6e-4 -0.0588,0 -0.0123,-3.44e-4 -0.0245,-5.09e-4 -0.0368,-4.93e-4 z m 1.29259,4.568709 34.42398,38.921581 -34.42398,29.004006 z" id="path4778" style="color:#000000;font-style:normal;font-variant:normal;font-weight:normal;font-stretch:normal;font-size:medium;line-height:normal;font-family:sans-serif;font-variant-ligatures:normal;font-variant-position:normal;font-variant-caps:normal;font-variant-numeric:normal;font-variant-alternates:normal;font-feature-settings:normal;text-indent:0;text-align:start;text-decoration:none;text-decoration-line:none;text-decoration-style:solid;text-decoration-color:#000000;letter-spacing:normal;word-spacing:normal;text-transform:none;writing-mode:lr-tb;direction:ltr;text-orientation:mixed;dominant-baseline:auto;baseline-shift:baseline;text-anchor:start;white-space:normal;shape-padding:0;clip-rule:nonzero;display:inline;overflow:visible;visibility:visible;opacity:1;isolation:auto;mix-blend-mode:normal;color-interpolation:sRGB;color-interpolation-filters:linearRGB;solid-color:#000000;solid-opacity:1;vector-effect:none;fill:#ac9393;fill-opacity:1;fill-rule:nonzero;stroke:none;stroke-width:2.64583325;stroke-linecap:round;stroke-linejoin:round;stroke-miterlimit:10;stroke-dasharray:none;stroke-dashoffset:56.27999878;stroke-opacity:1;color-rendering:auto;image-rendering:auto;shape-rendering:auto;text-rendering:auto;enable-background:accumulate"/></g></svg>