<?xml version="1.0" ?><svg height="430" id="svg8" version="1.1" viewBox="0 0 113.77083 113.77083" width="430" xmlns="http://www.w3.org/2000/svg" xmlns:cc="http://creativecommons.org/ns#" xmlns:dc="http://purl.org/dc/elements/1.1/" xmlns:inkscape="http://www.inkscape.org/namespaces/inkscape" xmlns:rdf="http://www.w3.org/1999/02/22-rdf-syntax-ns#" xmlns:sodipodi="http://sodipodi.sourceforge.net/DTD/sodipodi-0.dtd" xmlns:svg="http://www.w3.org/2000/svg" xmlns:xlink="http://www.w3.org/1999/xlink"><defs id="defs2"><linearGradient id="linearGradient4610"><stop id="stop4606" offset="0" style="stop-color:#afe9dd;stop-opacity:1;"/><stop id="stop4608" offset="1" style="stop-color:#c8f0e8;stop-opacity:1"/></linearGradient><linearGradient id="linearGradient4602"><stop id="stop4598" offset="0" style="stop-color:#ffeda5;stop-opacity:1"/><stop id="stop4600" offset="1" style="stop-color:#ffe680;stop-opacity:1"/></linearGradient><linearGradient id="linearGradient4594"><stop id="stop4590" offset="0" style="stop-color:#fbcaa9;stop-opacity:1"/><stop id="stop4592" offset="1" style="stop-color:#fabe96;stop-opacity:1"/></linearGradient><linearGradient gradientUnits="userSpaceOnUse" id="linearGradient4649" x1="0.60742188" x2="83.857422" xlink:href="#linearGradient4594" y1="802.82617" y2="1026.5762"/><linearGradient gradientUnits="userSpaceOnUse" id="linearGradient4886" x1="350.87057" x2="190.0551" xlink:href="#linearGradient4602" y1="252.42262" y2="183.80746"/><linearGradient gradientTransform="translate(-437.68424,-189.29752)" gradientUnits="userSpaceOnUse" id="linearGradient5219" x1="494.37033" x2="494.36981" xlink:href="#linearGradient4602" y1="257.03186" y2="204.44023"/><linearGradient gradientTransform="translate(-437.68424,-189.29752)" gradientUnits="userSpaceOnUse" id="linearGradient5227" x1="494.36987" x2="450.8924" xlink:href="#linearGradient4610" y1="201.54376" y2="251.65233"/><linearGradient gradientTransform="translate(-437.68424,-189.29752)" gradientUnits="userSpaceOnUse" id="linearGradient5259" x1="539.16968" x2="494.36987" xlink:href="#linearGradient4594" y1="253.53699" y2="201.54376"/></defs><g id="g4562"><g aria-label="2" id="text5101" style="font-style:normal;font-variant:normal;font-weight:normal;font-stretch:normal;font-size:14.11111069px;line-height:125%;font-family:'Facile Sans';-inkscape-font-specification:'Facile Sans';letter-spacing:0px;word-spacing:0px;fill:#ac9393;fill-opacity:1;stroke:none;stroke-width:0.26458332px;stroke-linecap:butt;stroke-linejoin:miter;stroke-opacity:1" transform="matrix(0.65629945,0.50582258,-0.80909068,0.900113,-437.68424,-189.29752)"><path d="m 608.17912,-90.420351 q 0.70556,0 1.32644,0.268111 0.62089,0.268112 1.08656,0.733778 0.46567,0.465667 0.73378,1.100667 0.26811,0.620889 0.26811,1.326444 0,0.691445 -0.254,1.298222 -0.23989,0.606778 -0.69145,1.058334 -0.254,0.268111 -0.56444,0.479778 -0.381,0.254 -0.83256,0.479777 -0.43744,0.225778 -0.83255,0.479778 -0.381,0.254 -0.635,0.578556 -0.254,0.310444 -0.254,0.762 h 4.064 v 2.130777 h -6.19478 v -2.130777 q 0,-0.790223 0.35278,-1.538112 0.21167,-0.395111 0.47978,-0.705555 0.26811,-0.324556 0.59266,-0.578556 0.32456,-0.254 0.67734,-0.465666 0.36689,-0.211667 0.74789,-0.423334 0.28222,-0.155222 0.55033,-0.296333 0.26811,-0.155222 0.45155,-0.423333 0.21167,-0.324556 0.21167,-0.705556 0,-0.536222 -0.381,-0.903111 -0.36689,-0.381 -0.90311,-0.381 -0.42333,0 -0.74789,0.239889 -0.32455,0.239889 -0.46567,0.620889 l -1.56633,-1.580444 q 0.46567,-0.649112 1.18533,-1.030112 0.73378,-0.395111 1.59456,-0.395111 z" id="path5244" style="font-size:14.11111069px;fill:#ac9393;fill-opacity:1;stroke-width:0.26458332px"/></g><path d="m 56.68093,10.92333 c -0.0091,5.72e-4 -0.01827,0.0012 -0.0274,0.002 -0.0136,-2.1e-4 -0.0272,-2.1e-4 -0.0408,0 -0.0083,9.21e-4 -0.01661,0.0019 -0.0249,0.003 -0.0098,5.58e-4 -0.01961,0.0012 -0.0294,0.002 -0.0157,0.0017 -0.03137,0.0037 -0.047,0.006 -0.01675,0.0023 -0.03345,0.005 -0.0501,0.008 -0.01209,0.0018 -0.02416,0.0038 -0.0362,0.006 -0.01315,0.0028 -0.02625,0.0058 -0.0393,0.009 -0.01803,0.0041 -0.03596,0.0086 -0.0538,0.0134 -0.01157,0.0028 -0.02311,0.0058 -0.0346,0.009 -0.01247,0.0043 -0.02487,0.0087 -0.0372,0.0134 -10e-4,3.32e-4 -0.002,6.65e-4 -0.003,0.001 -10e-4,1.76e-4 -0.002,3.52e-4 -0.003,5.3e-4 -0.01614,0.0054 -0.03218,0.01109 -0.0481,0.0171 -0.01264,0.0046 -0.02521,0.0095 -0.0377,0.0145 -0.01161,0.0053 -0.02315,0.01083 -0.0346,0.0165 v 5.2e-4 c -0.01459,0.0066 -0.02906,0.01354 -0.0434,0.0207 -0.01304,0.0063 -0.02597,0.01286 -0.0388,0.0196 -0.008,0.0046 -0.01591,0.0092 -0.0238,0.0139 -0.0038,0.0023 -0.0076,0.0046 -0.0114,0.007 -0.002,9.95e-4 -0.004,0.002 -0.006,0.003 -0.01218,0.007 -0.02425,0.01427 -0.0362,0.0217 -0.01236,0.0077 -0.0246,0.01567 -0.0367,0.0238 -0.01028,0.0074 -0.02044,0.01499 -0.0305,0.0227 -10e-4,3.32e-4 -0.002,6.65e-4 -0.003,10e-4 v 5.3e-4 c -0.01558,0.01103 -0.03091,0.0224 -0.046,0.0341 -0.008,0.0061 -0.01594,0.01231 -0.0238,0.0186 -0.0042,0.0038 -0.0083,0.0076 -0.0124,0.0114 -0.0017,0.0017 -0.0033,0.0033 -0.005,0.005 L 11.02319,49.73743 c -0.292724,0.251458 -0.461082,0.61818 -0.46096,1.00408 v 13.49765 c 8.3e-4,0.01225 0.0018,0.02448 0.003,0.0367 4.39e-4,0.0281 0.0018,0.05618 0.004,0.0842 0.0017,0.01587 0.0037,0.0317 0.006,0.0475 0.0033,0.02769 0.0074,0.05527 0.0124,0.0827 0.0036,0.01678 0.0076,0.03348 0.0119,0.0501 0.006,0.02674 0.01291,0.05329 0.0206,0.0796 0.0044,0.01367 0.0091,0.02728 0.014,0.0408 0.0095,0.02895 0.02001,0.05757 0.0315,0.0858 0.0042,0.0097 0.0086,0.01932 0.013,0.0289 0.01332,0.03067 0.0278,0.06083 0.0434,0.0904 0.0062,0.01112 0.01251,0.02216 0.019,0.0331 0.01528,0.02676 0.03149,0.05297 0.0486,0.0786 0.0071,0.01027 0.01432,0.02044 0.0217,0.0305 0.01916,0.02729 0.03934,0.05384 0.0605,0.0796 0.0053,0.0059 0.01068,0.01178 0.0161,0.0176 0.02259,0.02642 0.0462,0.05194 0.0708,0.0765 0.0066,0.0063 0.01334,0.01247 0.0201,0.0186 0.01483,0.01466 0.03,0.02896 0.0455,0.0429 l 44.79883,38.49431 c 0.0065,0.005 0.01302,0.0101 0.0196,0.0151 0.01738,0.0142 0.03512,0.028 0.0532,0.0413 0.01709,0.013 0.0345,0.0256 0.0522,0.0377 0.02063,0.0137 0.04164,0.0268 0.063,0.0393 0.01564,0.009 0.03148,0.0186 0.0475,0.0274 0.02124,0.0113 0.04278,0.0219 0.0646,0.032 0.01909,0.009 0.0384,0.0177 0.0579,0.0259 0.02233,0.009 0.04491,0.0175 0.0677,0.0254 0.0178,0.006 0.03574,0.0124 0.0538,0.018 0.02392,0.007 0.04803,0.0134 0.0723,0.019 0.0192,0.005 0.03851,0.009 0.0579,0.013 0.023,0.004 0.0461,0.008 0.0693,0.0114 0.02077,0.003 0.04161,0.006 0.0625,0.008 0.02286,0.002 0.04577,0.003 0.0687,0.004 0.02153,5.3e-4 0.04307,5.3e-4 0.0646,0 0.02105,-5e-4 0.04209,-0.002 0.0631,-0.003 0.02347,-0.001 0.04691,-0.003 0.0703,-0.005 0.02057,-0.003 0.04107,-0.006 0.0615,-0.009 0.02338,-0.004 0.04665,-0.008 0.0698,-0.013 0.01974,-0.004 0.03938,-0.009 0.0589,-0.0145 0.02256,-0.006 0.04497,-0.0121 0.0672,-0.019 0.01979,-0.006 0.03943,-0.0133 0.0589,-0.0206 0.02281,-0.008 0.04538,-0.0173 0.0677,-0.0269 0.01636,-0.007 0.03256,-0.0152 0.0486,-0.0233 0.02413,-0.0115 0.04791,-0.0238 0.0713,-0.0367 0.01552,-0.009 0.03086,-0.0183 0.046,-0.0279 0.0216,-0.0134 0.04281,-0.0273 0.0636,-0.0419 0.0193,-0.0135 0.03824,-0.0274 0.0568,-0.0419 0.01186,-0.009 0.02356,-0.0184 0.0351,-0.0279 0.0036,-0.003 0.0073,-0.005 0.0109,-0.008 l 44.79882,-38.4943 c 0.008,-0.0075 0.016,-0.01503 0.0238,-0.0227 0.0135,-0.01213 0.0268,-0.02453 0.0398,-0.0372 0.0188,-0.01838 0.0371,-0.03733 0.0548,-0.0568 0.0124,-0.01371 0.0244,-0.02768 0.0362,-0.0419 0.0157,-0.01871 0.0309,-0.03785 0.0455,-0.0574 0.0121,-0.01643 0.0238,-0.03313 0.0351,-0.0501 0.0139,-0.02082 0.0271,-0.04203 0.0398,-0.0636 0.009,-0.01532 0.018,-0.03082 0.0265,-0.0465 0.0118,-0.02155 0.023,-0.04343 0.0336,-0.0656 0.01,-0.0206 0.0185,-0.04144 0.0269,-0.0625 0.008,-0.01929 0.0153,-0.03876 0.0222,-0.0584 0.007,-0.02 0.0139,-0.04017 0.0201,-0.0605 0.007,-0.02292 0.0133,-0.04603 0.019,-0.0693 0.005,-0.02007 0.009,-0.04024 0.0124,-0.0605 0.005,-0.02349 0.009,-0.0471 0.0119,-0.0708 0.002,-0.01806 0.004,-0.03616 0.006,-0.0543 0.003,-0.02594 0.005,-0.05195 0.006,-0.078 0.001,-0.01601 0.002,-0.03205 0.003,-0.0481 V 50.74008 c 1.2e-4,-0.385896 -0.16824,-0.752614 -0.46096,-1.00407 l -44.76366,-38.46328 -0.0352,-0.0305 v -10e-4 c -0.01386,-0.01165 -0.02797,-0.02302 -0.0423,-0.0341 -0.0144,-0.01134 -0.02904,-0.02237 -0.0439,-0.0331 -0.0082,-0.0061 -0.01653,-0.01216 -0.0249,-0.0181 -0.0104,-0.007 -0.0209,-0.01395 -0.0315,-0.0207 -0.01999,-0.01311 -0.04033,-0.02569 -0.061,-0.0377 -0.0013,-6.69e-4 -0.0027,-0.0013 -0.004,-0.002 -0.0041,-0.0027 -0.0083,-0.0054 -0.0124,-0.008 -0.01263,-0.0067 -0.02536,-0.01327 -0.0382,-0.0196 -0.02041,-0.01037 -0.04108,-0.02021 -0.062,-0.0295 v -5.3e-4 c -0.0041,-0.002 -0.0083,-0.004 -0.0124,-0.006 -10e-4,-3.35e-4 -0.002,-6.68e-4 -0.003,-10e-4 -0.01624,-0.0067 -0.03261,-0.01306 -0.0491,-0.0191 -0.01812,-0.0071 -0.03639,-0.01387 -0.0548,-0.0202 -0.001,-1.74e-4 -0.002,-3.48e-4 -0.003,-5.2e-4 -0.0074,-0.0027 -0.01478,-0.0054 -0.0222,-0.008 -0.01473,-0.0044 -0.02953,-0.0085 -0.0444,-0.0124 -0.018,-0.005 -0.0361,-0.0097 -0.0543,-0.0139 -0.011,-0.0028 -0.02203,-0.0055 -0.0331,-0.008 -0.01373,-0.0026 -0.0275,-0.0049 -0.0413,-0.007 -0.01701,-0.003 -0.03408,-0.0057 -0.0512,-0.008 -0.01357,-0.0019 -0.02717,-0.0035 -0.0408,-0.005 -0.01102,-0.0011 -0.02206,-0.0021 -0.0331,-0.003 -0.02286,-0.0019 -0.04577,-0.0033 -0.0687,-0.004 -0.006,-3.74e-4 -0.012,-7.08e-4 -0.018,-10e-4 -0.003,1.66e-4 -0.006,3.43e-4 -0.009,5.3e-4 -0.003,-1.87e-4 -0.006,-3.64e-4 -0.009,-5.3e-4 z m 0.005,4.21938 L 77.51565,55.68804 56.68643,67.73433 35.85618,55.68804 Z m -4.26641,2.51303 -19.25362,37.4804 v 0 L 13.20899,62.35482 V 51.34877 Z m 8.53435,0.003 39.20794,33.68994 V 62.3542 L 90.0968,58.7136 80.20749,55.13604 Z m 18.44178,39.99859 19.50786,7.05539 -40.89416,35.13792 v -29.823 z" id="path5192" style="color:#000000;font-style:normal;font-variant:normal;font-weight:normal;font-stretch:normal;font-size:medium;line-height:normal;font-family:sans-serif;font-variant-ligatures:normal;font-variant-position:normal;font-variant-caps:normal;font-variant-numeric:normal;font-variant-alternates:normal;font-feature-settings:normal;text-indent:0;text-align:start;text-decoration:none;text-decoration-line:none;text-decoration-style:solid;text-decoration-color:#000000;letter-spacing:normal;word-spacing:normal;text-transform:none;writing-mode:lr-tb;direction:ltr;text-orientation:mixed;dominant-baseline:auto;baseline-shift:baseline;text-anchor:start;white-space:normal;shape-padding:0;clip-rule:nonzero;display:inline;overflow:visible;visibility:visible;opacity:1;isolation:auto;mix-blend-mode:normal;color-interpolation:sRGB;color-interpolation-filters:linearRGB;solid-color:#000000;solid-opacity:1;vector-effect:none;fill:#ac9393;fill-opacity:1;fill-rule:nonzero;stroke:none;stroke-width:2.64600015;stroke-linecap:round;stroke-linejoin:round;stroke-miterlimit:10;stroke-dasharray:none;stroke-dashoffset:56.27999878;stroke-opacity:1;color-rendering:auto;image-rendering:auto;shape-rendering:auto;text-rendering:auto;enable-background:accumulate"/><g aria-label="8" id="text5940" style="font-style:normal;font-variant:normal;font-weight:normal;font-stretch:normal;font-size:16.93333244px;line-height:125%;font-family:'Facile Sans';-inkscape-font-specification:'Facile Sans';letter-spacing:0px;word-spacing:0px;fill:#ac9393;fill-opacity:1;stroke:none;stroke-width:0.26458332px;stroke-linecap:butt;stroke-linejoin:miter;stroke-opacity:1" transform="matrix(0.70710678,-0.53117455,0.70710678,0.88303901,-437.68424,-189.29752)"><path d="m 297.54114,439.97768 q 0.57574,0.5588 0.9144,1.3208 0.33867,0.762 0.33867,1.64253 0,0.84667 -0.32173,1.59174 -0.32174,0.74506 -0.88054,1.30386 -0.5588,0.5588 -1.30386,0.88054 -0.74507,0.32173 -1.59174,0.32173 h -0.0169 q -0.84667,0 -1.59173,-0.32173 -0.74507,-0.32174 -1.30387,-0.88054 -0.5588,-0.5588 -0.88053,-1.30386 -0.32174,-0.74507 -0.32174,-1.59174 0,-0.88053 0.32174,-1.64253 0.33866,-0.762 0.93133,-1.3208 -0.33867,-0.44027 -0.54187,-0.99907 -0.2032,-0.5588 -0.2032,-1.1684 0,-0.74506 0.27094,-1.38853 0.28786,-0.6604 0.77893,-1.15147 0.49107,-0.49106 1.13453,-0.77893 0.6604,-0.28787 1.40547,-0.28787 0.74507,0 1.38853,0.28787 0.6604,0.28787 1.15147,0.77893 0.49107,0.49107 0.762,1.15147 0.28787,0.64347 0.28787,1.38853 0,0.6096 -0.2032,1.1684 -0.18627,0.5588 -0.52494,0.99907 z m -2.8448,4.50427 q 0.64347,-0.0169 1.08374,-0.4572 0.44026,-0.44027 0.44026,-1.08374 0,-0.64346 -0.44026,-1.08373 -0.44027,-0.4572 -1.08374,-0.4572 h -0.0169 q -0.64347,0 -1.10067,0.4572 -0.44026,0.44027 -0.44026,1.08373 0,0.64347 0.44026,1.08374 0.4572,0.44026 1.10067,0.4572 z m 0,-5.65574 q 0.42334,0 0.7112,-0.28786 0.3048,-0.3048 0.3048,-0.72814 0,-0.44026 -0.3048,-0.72813 -0.28786,-0.3048 -0.72813,-0.3048 -0.42333,0 -0.72813,0.3048 -0.28787,0.28787 -0.28787,0.72813 0,0.42334 0.28787,0.72814 0.3048,0.28786 0.72813,0.28786 z" id="path5950" style="font-size:16.93333244px;fill:#ac9393;fill-opacity:1;stroke-width:0.26458332px"/></g><g aria-label="7" id="text5944" style="font-style:normal;font-variant:normal;font-weight:normal;font-stretch:normal;font-size:16.93333244px;line-height:125%;font-family:'Facile Sans';-inkscape-font-specification:'Facile Sans';letter-spacing:0px;word-spacing:0px;fill:#ac9393;fill-opacity:1;stroke:none;stroke-width:0.26458332px;stroke-linecap:butt;stroke-linejoin:miter;stroke-opacity:1" transform="matrix(-0.93849661,0.04513127,0.2239525,-1.0763036,-437.68424,-189.29752)"><path d="m -608.92657,-265.70755 h -2.76014 l 4.13174,-10.2616 h -4.13174 v -2.57387 h 7.94174 z" id="path5953" style="font-size:16.93333244px;fill:#ac9393;fill-opacity:1;stroke-width:0.26458332px"/></g><g aria-label="10" id="text5948" style="font-style:normal;font-variant:normal;font-weight:normal;font-stretch:normal;font-size:16.93333244px;line-height:125%;font-family:'Facile Sans';-inkscape-font-specification:'Facile Sans';letter-spacing:0px;word-spacing:0px;fill:#ac9393;fill-opacity:1;stroke:none;stroke-width:0.26458332px;stroke-linecap:butt;stroke-linejoin:miter;stroke-opacity:1" transform="translate(-437.68424,-189.29752)"><path d="m 488.77308,240.78511 v -10.2616 h -1.03294 l 1.03294,-2.57387 h 2.55693 v 12.83547 z" id="path5956" style="font-size:16.93333244px;fill:#ac9393;fill-opacity:1;stroke-width:0.26458332px"/><path d="m 496.60051,227.94964 q 0.84667,0 1.59173,0.32174 0.762,0.32173 1.3208,0.88053 0.5588,0.5588 0.88054,1.3208 0.32173,0.74507 0.32173,1.59173 v 4.6228 q 0,0.84667 -0.32173,1.59174 -0.32174,0.74506 -0.88054,1.30386 -0.5588,0.5588 -1.3208,0.88054 -0.74506,0.32173 -1.59173,0.32173 -0.84667,0 -1.59173,-0.32173 -0.74507,-0.32174 -1.30387,-0.88054 -0.5588,-0.5588 -0.88053,-1.30386 -0.32174,-0.74507 -0.32174,-1.59174 v -4.6228 q 0,-0.84666 0.32174,-1.59173 0.32173,-0.762 0.88053,-1.3208 0.5588,-0.5588 1.30387,-0.88053 0.74506,-0.32174 1.59173,-0.32174 z m -1.54093,8.7376 q 0,0.64347 0.44026,1.10067 0.4572,0.44027 1.10067,0.44027 0.32173,0 0.59267,-0.11854 0.28786,-0.11853 0.49106,-0.32173 0.22014,-0.22013 0.33867,-0.49107 0.11853,-0.28786 0.11853,-0.6096 v -4.6228 q 0,-0.32173 -0.11853,-0.59266 -0.11853,-0.28787 -0.33867,-0.49107 -0.2032,-0.22013 -0.49106,-0.33867 -0.27094,-0.11853 -0.59267,-0.11853 -0.64347,0 -1.10067,0.4572 -0.44026,0.44027 -0.44026,1.08373 z" id="path5958" style="font-size:16.93333244px;fill:#ac9393;fill-opacity:1;stroke-width:0.26458332px"/></g></g></svg>