<?xml version="1.0" ?><svg height="430" id="svg8" version="1.1" viewBox="0 0 113.77083 113.77083" width="430" xmlns="http://www.w3.org/2000/svg" xmlns:cc="http://creativecommons.org/ns#" xmlns:dc="http://purl.org/dc/elements/1.1/" xmlns:inkscape="http://www.inkscape.org/namespaces/inkscape" xmlns:rdf="http://www.w3.org/1999/02/22-rdf-syntax-ns#" xmlns:sodipodi="http://sodipodi.sourceforge.net/DTD/sodipodi-0.dtd" xmlns:svg="http://www.w3.org/2000/svg" xmlns:xlink="http://www.w3.org/1999/xlink"><defs id="defs2"><linearGradient id="linearGradient4610"><stop id="stop4606" offset="0" style="stop-color:#afe9dd;stop-opacity:1;"/><stop id="stop4608" offset="1" style="stop-color:#c8f0e8;stop-opacity:1"/></linearGradient><linearGradient id="linearGradient4602"><stop id="stop4598" offset="0" style="stop-color:#ffeda5;stop-opacity:1"/><stop id="stop4600" offset="1" style="stop-color:#ffe680;stop-opacity:1"/></linearGradient><linearGradient id="linearGradient4594"><stop id="stop4590" offset="0" style="stop-color:#fbcaa9;stop-opacity:1"/><stop id="stop4592" offset="1" style="stop-color:#fabe96;stop-opacity:1"/></linearGradient><linearGradient gradientTransform="translate(150.94408,-82.341894)" gradientUnits="userSpaceOnUse" id="linearGradient4742" x1="-132.66093" x2="-92.973427" xlink:href="#linearGradient4610" y1="162.0361" y2="138.88506"/><linearGradient gradientTransform="translate(150.94408,-82.341894)" gradientUnits="userSpaceOnUse" id="linearGradient4744" x1="-92.973427" x2="-53.285931" xlink:href="#linearGradient4594" y1="138.88506" y2="162.0361"/><linearGradient gradientTransform="translate(150.94408,-82.341894)" gradientUnits="userSpaceOnUse" id="linearGradient4746" x1="-92.973427" x2="-92.973427" xlink:href="#linearGradient4602" y1="138.88506" y2="92.582977"/><linearGradient gradientUnits="userSpaceOnUse" id="linearGradient4649" x1="0.60742188" x2="83.857422" xlink:href="#linearGradient4594" y1="802.82617" y2="1026.5762"/><linearGradient gradientUnits="userSpaceOnUse" id="linearGradient4886" x1="350.87057" x2="190.0551" xlink:href="#linearGradient4602" y1="252.42262" y2="183.80746"/></defs><g id="g4520"><g id="g4686" transform="rotate(-120,5.0186348,81.748006)"><circle cx="-19.473104" cy="-151.78351" id="circle4680" r="2.6458333" style="opacity:1;fill:#ac9393;fill-opacity:1;fill-rule:nonzero;stroke:none;stroke-width:2.64583325;stroke-linecap:round;stroke-linejoin:round;stroke-miterlimit:10;stroke-dasharray:none;stroke-dashoffset:56.27999878;stroke-opacity:1" transform="scale(1,-1)"/><circle cx="-29.473166" cy="-136.78317" id="circle4682" r="2.6458333" style="opacity:1;fill:#ac9393;fill-opacity:1;fill-rule:nonzero;stroke:none;stroke-width:2.64583325;stroke-linecap:round;stroke-linejoin:round;stroke-miterlimit:10;stroke-dasharray:none;stroke-dashoffset:56.27999878;stroke-opacity:1" transform="scale(1,-1)"/><circle cx="-9.4731674" cy="-166.78317" id="circle4684" r="2.6458333" style="opacity:1;fill:#ac9393;fill-opacity:1;fill-rule:nonzero;stroke:none;stroke-width:2.64583325;stroke-linecap:round;stroke-linejoin:round;stroke-miterlimit:10;stroke-dasharray:none;stroke-dashoffset:56.27999878;stroke-opacity:1" transform="scale(1,-1)"/></g><g id="g4700" transform="rotate(-120,5.7730008,81.968256)"><circle cx="11.536627" cy="145.46025" id="circle4688" r="2.6458333" style="opacity:1;fill:#ac9393;fill-opacity:1;fill-rule:nonzero;stroke:none;stroke-width:2.64583325;stroke-linecap:round;stroke-linejoin:round;stroke-miterlimit:10;stroke-dasharray:none;stroke-dashoffset:56.27999878;stroke-opacity:1"/><circle cx="31.536629" cy="133.46025" id="circle4690" r="2.6458333" style="opacity:1;fill:#ac9393;fill-opacity:1;fill-rule:nonzero;stroke:none;stroke-width:2.64583325;stroke-linecap:round;stroke-linejoin:round;stroke-miterlimit:10;stroke-dasharray:none;stroke-dashoffset:56.27999878;stroke-opacity:1"/><circle cx="11.536627" cy="157.46025" id="circle4692" r="2.6458333" style="opacity:1;fill:#ac9393;fill-opacity:1;fill-rule:nonzero;stroke:none;stroke-width:2.64583325;stroke-linecap:round;stroke-linejoin:round;stroke-miterlimit:10;stroke-dasharray:none;stroke-dashoffset:56.27999878;stroke-opacity:1"/><circle cx="31.536629" cy="145.46025" id="circle4694" r="2.6458333" style="opacity:1;fill:#ac9393;fill-opacity:1;fill-rule:nonzero;stroke:none;stroke-width:2.64583325;stroke-linecap:round;stroke-linejoin:round;stroke-miterlimit:10;stroke-dasharray:none;stroke-dashoffset:56.27999878;stroke-opacity:1"/><circle cx="11.536627" cy="169.46025" id="circle4696" r="2.6458333" style="opacity:1;fill:#ac9393;fill-opacity:1;fill-rule:nonzero;stroke:none;stroke-width:2.64583325;stroke-linecap:round;stroke-linejoin:round;stroke-miterlimit:10;stroke-dasharray:none;stroke-dashoffset:56.27999878;stroke-opacity:1"/><circle cx="31.536629" cy="157.46025" id="circle4698" r="2.6458333" style="opacity:1;fill:#ac9393;fill-opacity:1;fill-rule:nonzero;stroke:none;stroke-width:2.64583325;stroke-linecap:round;stroke-linejoin:round;stroke-miterlimit:10;stroke-dasharray:none;stroke-dashoffset:56.27999878;stroke-opacity:1"/></g><path d="m 16.706538,80.323196 c 0.117429,0.217781 0.293574,0.39827 0.50843,0.52097 l 39.894477,22.794084 c 0.0084,0.004 0.01683,0.009 0.02532,0.0129 0.01972,0.0106 0.0397,0.0208 0.05993,0.0304 0.01937,0.009 0.03895,0.0181 0.05875,0.0264 0.02034,0.009 0.04088,0.0166 0.06162,0.0241 0.02009,0.007 0.04035,0.0142 0.06077,0.0205 0.02421,0.008 0.04862,0.0143 0.07322,0.0204 0.01707,0.004 0.03422,0.008 0.05145,0.0115 0.02491,0.005 0.04996,0.01 0.07513,0.0133 0.01971,0.003 0.03949,0.006 0.05932,0.008 0.02336,0.002 0.04678,0.004 0.07023,0.005 0.02016,7.9e-4 0.04034,0.001 0.06052,0.001 0.0248,3e-5 0.0496,-6.4e-4 0.07436,-0.002 0.01908,-9.2e-4 0.03814,-0.002 0.05717,-0.004 0.0252,-0.003 0.05032,-0.006 0.07533,-0.0101 0.01824,-0.003 0.03641,-0.006 0.05451,-0.01 0.0249,-0.005 0.04966,-0.0108 0.07423,-0.0172 0.0174,-0.004 0.03471,-0.009 0.05191,-0.0145 0.0262,-0.008 0.05215,-0.0168 0.0778,-0.0264 0.01545,-0.006 0.0308,-0.012 0.04602,-0.0185 0.02448,-0.0105 0.04864,-0.0217 0.07244,-0.0337 0.01587,-0.008 0.03159,-0.0155 0.04714,-0.0238 0.01024,-0.005 0.02042,-0.0101 0.03053,-0.0153 L 98.524589,80.485976 c 0.407381,-0.235286 0.65918,-0.6692 0.661332,-1.13964 l 0.20699,-45.94668 c -4.92e-4,-0.01354 -0.0012,-0.02708 -0.0021,-0.0406 -4.55e-4,-0.02055 -0.0014,-0.04109 -0.0028,-0.0616 -0.0018,-0.02276 -0.0041,-0.04547 -0.0071,-0.0681 -0.0027,-0.02228 -0.0059,-0.04449 -0.0097,-0.0666 -0.0037,-0.02036 -0.0078,-0.04063 -0.01248,-0.0608 -0.0048,-0.0221 -0.01017,-0.04407 -0.0161,-0.0659 -0.0061,-0.0214 -0.01274,-0.04264 -0.01991,-0.0637 -0.0071,-0.02143 -0.0148,-0.04267 -0.02302,-0.0637 -0.0075,-0.01851 -0.01535,-0.03685 -0.02365,-0.055 -0.0098,-0.02232 -0.02021,-0.04436 -0.03123,-0.0661 -0.0093,-0.01906 -0.019,-0.0379 -0.02918,-0.0565 -0.01095,-0.01797 -0.02233,-0.03567 -0.03412,-0.0531 -0.01332,-0.02041 -0.0272,-0.04045 -0.04163,-0.0601 -0.01132,-0.01579 -0.02299,-0.03133 -0.035,-0.0466 -0.01567,-0.01952 -0.03189,-0.0386 -0.04864,-0.0572 -0.01307,-0.01483 -0.02648,-0.02937 -0.0402,-0.0436 -0.01524,-0.01545 -0.03087,-0.03052 -0.04685,-0.0452 -0.01726,-0.01631 -0.03496,-0.03215 -0.05307,-0.0475 -0.01615,-0.01336 -0.03261,-0.02633 -0.04938,-0.0389 -0.01735,-0.0131 -0.03503,-0.02577 -0.05301,-0.038 -0.01855,-0.01248 -0.03741,-0.02448 -0.05656,-0.036 -0.01038,-0.007 -0.02086,-0.01388 -0.03143,-0.0206 L 58.831261,9.4501759 c -0.408505,-0.233329 -0.910185,-0.2321868 -1.317623,0.003 L 17.416168,32.603456 c -0.01298,0.0082 -0.02581,0.01658 -0.0385,0.0252 -0.01482,0.0091 -0.02945,0.01858 -0.0439,0.0283 -0.02343,0.01606 -0.04635,0.03287 -0.0687,0.0504 -0.01134,0.0087 -0.02254,0.01755 -0.0336,0.0266 -0.02092,0.0175 -0.0413,0.03564 -0.0611,0.0544 -0.01469,0.01374 -0.02906,0.02781 -0.0431,0.0422 -0.01527,0.01596 -0.03015,0.0323 -0.0446,0.049 -0.01498,0.01716 -0.02952,0.03469 -0.0436,0.0526 -0.01229,0.0156 -0.02423,0.03147 -0.0358,0.0476 -0.01386,0.01927 -0.0272,0.03891 -0.04,0.0589 -0.01246,0.01968 -0.0244,0.03969 -0.0358,0.06 -0.0095,0.01663 -0.0187,0.03347 -0.0275,0.0505 -0.01124,0.02233 -0.02184,0.04497 -0.0318,0.0679 -0.0079,0.01787 -0.01533,0.0359 -0.0224,0.0541 -0.0084,0.02162 -0.01631,0.04346 -0.0236,0.0655 -0.0069,0.02084 -0.01332,0.04184 -0.0192,0.063 -0.0057,0.02117 -0.01093,0.04247 -0.0156,0.0639 -0.0048,0.02069 -0.0092,0.0415 -0.013,0.0624 -0.004,0.0245 -0.0074,0.04911 -0.01,0.0738 -0.0024,0.01975 -0.0044,0.03956 -0.006,0.0594 -0.0014,0.01818 -0.0024,0.03638 -0.003,0.0546 -4.43e-4,0.0098 -7.76e-4,0.01966 -0.001,0.0295 l -0.20698,45.94668 c -0.001,0.221473 0.05353,0.439665 0.15871,0.63457 z m 42.392205,19.868024 0.134476,-30.171424 0.05693,-12.70993 37.447155,-21.62012 -0.194086,42.88289 z M 20.734678,33.742706 58.179157,12.124126 95.413874,33.397486 57.966719,55.017616 45.081068,47.655206 Z" id="path4702" style="color:#000000;font-style:normal;font-variant:normal;font-weight:normal;font-stretch:normal;font-size:medium;line-height:normal;font-family:sans-serif;font-variant-ligatures:normal;font-variant-position:normal;font-variant-caps:normal;font-variant-numeric:normal;font-variant-alternates:normal;font-feature-settings:normal;text-indent:0;text-align:start;text-decoration:none;text-decoration-line:none;text-decoration-style:solid;text-decoration-color:#000000;letter-spacing:normal;word-spacing:normal;text-transform:none;writing-mode:lr-tb;direction:ltr;text-orientation:mixed;dominant-baseline:auto;baseline-shift:baseline;text-anchor:start;white-space:normal;shape-padding:0;clip-rule:nonzero;display:inline;overflow:visible;visibility:visible;opacity:1;isolation:auto;mix-blend-mode:normal;color-interpolation:sRGB;color-interpolation-filters:linearRGB;solid-color:#000000;solid-opacity:1;vector-effect:none;fill:#ac9393;fill-opacity:1;fill-rule:nonzero;stroke:none;stroke-width:2.64583325;stroke-linecap:round;stroke-linejoin:round;stroke-miterlimit:10;stroke-dasharray:none;stroke-dashoffset:56.27999878;stroke-opacity:1;color-rendering:auto;image-rendering:auto;shape-rendering:auto;text-rendering:auto;enable-background:accumulate"/></g></svg>