<?xml version="1.0" ?><svg height="430" id="svg8" version="1.1" viewBox="0 0 113.77083 113.77083" width="430" xmlns="http://www.w3.org/2000/svg" xmlns:cc="http://creativecommons.org/ns#" xmlns:dc="http://purl.org/dc/elements/1.1/" xmlns:inkscape="http://www.inkscape.org/namespaces/inkscape" xmlns:rdf="http://www.w3.org/1999/02/22-rdf-syntax-ns#" xmlns:sodipodi="http://sodipodi.sourceforge.net/DTD/sodipodi-0.dtd" xmlns:svg="http://www.w3.org/2000/svg" xmlns:xlink="http://www.w3.org/1999/xlink"><defs id="defs2"><linearGradient id="linearGradient4610"><stop id="stop4606" offset="0" style="stop-color:#afe9dd;stop-opacity:1;"/><stop id="stop4608" offset="1" style="stop-color:#c8f0e8;stop-opacity:1"/></linearGradient><linearGradient id="linearGradient4602"><stop id="stop4598" offset="0" style="stop-color:#ffeda5;stop-opacity:1"/><stop id="stop4600" offset="1" style="stop-color:#ffe680;stop-opacity:1"/></linearGradient><linearGradient id="linearGradient4594"><stop id="stop4590" offset="0" style="stop-color:#fbcaa9;stop-opacity:1"/><stop id="stop4592" offset="1" style="stop-color:#fabe96;stop-opacity:1"/></linearGradient><linearGradient gradientUnits="userSpaceOnUse" id="linearGradient4649" x1="0.60742188" x2="83.857422" xlink:href="#linearGradient4594" y1="802.82617" y2="1026.5762"/><linearGradient gradientUnits="userSpaceOnUse" id="linearGradient4886" x1="350.87057" x2="190.0551" xlink:href="#linearGradient4602" y1="252.42262" y2="183.80746"/><linearGradient gradientTransform="translate(-559.06796,-189.65518)" gradientUnits="userSpaceOnUse" id="linearGradient5093" x1="616.72516" x2="618.34784" xlink:href="#linearGradient4602" y1="218.51381" y2="263.9736"/><linearGradient gradientTransform="translate(-18.520834,1.5875)" gradientUnits="userSpaceOnUse" id="linearGradient5101" x1="590.63269" x2="604.65558" xlink:href="#linearGradient4610" y1="210.64246" y2="227.04662"/><linearGradient gradientTransform="translate(-559.06796,-189.65518)" gradientUnits="userSpaceOnUse" id="linearGradient5109" x1="630.4834" x2="642.90546" xlink:href="#linearGradient4594" y1="226.84019" y2="210.37166"/></defs><g id="g4577"><path d="m 57.66856,11.03644 c -0.01448,4.29e-4 -0.02895,0.0011 -0.0434,0.002 -0.0027,-8e-6 -0.0053,-8e-6 -0.008,0 -0.0034,3.2e-4 -0.0069,6.53e-4 -0.0103,0.001 -0.127018,0.0049 -0.252672,0.028 -0.37309,0.0687 L 31.14852,19.7319 c -0.264856,0.08799 -0.495108,0.257468 -0.65783,0.48421 L 14.47565,42.50157 c -0.177499,0.231962 -0.273256,0.516138 -0.27234,0.80822 l 0.14264,27.48256 c 0.0013,0.279059 0.09087,0.550552 0.2558,0.77566 l 16.26981,22.15006 c 0.01237,0.01596 0.02511,0.03163 0.0382,0.047 0.0106,0.013 0.0204,0.0265 0.0315,0.0393 0.0193,0.02165 0.03932,0.04266 0.06,0.063 0.013,0.0132 0.0257,0.0267 0.0393,0.0393 0.0208,0.01857 0.04217,0.03648 0.0641,0.0537 0.0138,0.0114 0.027,0.0233 0.0414,0.0341 0.03687,0.02765 0.07517,0.05335 0.11472,0.077 0,1.9e-4 0,0 0,0 0.04196,0.02477 0.08526,0.0472 0.1297,0.0672 0.005,0.003 0.009,0.004 0.014,0.006 0.03787,0.0166 0.0765,0.03142 0.11576,0.0444 0.005,0.003 0.01,0.004 0.0145,0.006 l 26.17928,8.35711 c 0.26574,0.0848 0.55157,0.0833 0.8165,-0.004 l 25.74054,-8.7912 c 0.3252,-0.0346 0.63551,-0.19278 0.85524,-0.49197 l 0.014,-0.0191 c 0.0985,-0.10088 0.18012,-0.21095 0.23979,-0.32816 l 15.93389,-21.78728 c 0.16767,-0.2288 0.25731,-0.50545 0.2558,-0.7891 l -0.14261,-27.40763 c 7e-5,-0.0079 7e-5,-0.01587 0,-0.0238 v -0.0434 c 2e-4,-0.281535 -0.0894,-0.555794 -0.2558,-0.7829 L 84.90363,19.93306 C 84.738107,19.708143 84.505664,19.541364 84.23958,19.4566 L 58.05823,11.09897 c -0.01592,-0.0046 -0.03192,-0.0089 -0.048,-0.0129 -0.003,-6.77e-4 -0.006,-0.0013 -0.009,-0.002 -0.03666,-0.0099 -0.07372,-0.01813 -0.11109,-0.0248 -0.0078,-0.0014 -0.01552,-0.0027 -0.0233,-0.004 -0.0387,-0.0064 -0.07767,-0.011 -0.11678,-0.0139 -0.002,-5e-6 -0.004,-5e-6 -0.006,0 -0.02545,-0.0024 -0.05096,-0.0041 -0.0765,-0.005 z m 1.31204,3.1347 24.04504,7.6755 14.74949,20.08301 -14.90245,2.28978 -23.89208,-16.0662 z m -2.64634,0.0196 V 28.17283 L 33.02714,44.65451 17.86168,42.32339 32.38894,22.1086 Z m 1.34205,16.27497 23.33344,15.69052 -8.05997,26.18703 -29.90721,0.0713 -8.13697,-25.84752 3.33468,-2.35799 z m 41.11323,13.9852 0.13282,25.46614 -14.69162,20.00601 -0.39997,-0.73948 -8.47493,-15.66106 8.22844,-26.73429 v 0 l 9.01806,-1.38648 z m -25.64908,30.5387 2.97037,5.48754 6.18258,11.42616 -24.18356,7.99642 -24.26364,-7.74425 9.02531,-17.09404 z" id="path5019" style="color:#000000;font-style:normal;font-variant:normal;font-weight:normal;font-stretch:normal;font-size:medium;line-height:normal;font-family:sans-serif;font-variant-ligatures:normal;font-variant-position:normal;font-variant-caps:normal;font-variant-numeric:normal;font-variant-alternates:normal;font-feature-settings:normal;text-indent:0;text-align:start;text-decoration:none;text-decoration-line:none;text-decoration-style:solid;text-decoration-color:#000000;letter-spacing:normal;word-spacing:normal;text-transform:none;writing-mode:lr-tb;direction:ltr;text-orientation:mixed;dominant-baseline:auto;baseline-shift:baseline;text-anchor:start;white-space:normal;shape-padding:0;clip-rule:nonzero;display:inline;overflow:visible;visibility:visible;opacity:1;isolation:auto;mix-blend-mode:normal;color-interpolation:sRGB;color-interpolation-filters:linearRGB;solid-color:#000000;solid-opacity:1;vector-effect:none;fill:#ac9393;fill-opacity:1;fill-rule:nonzero;stroke:none;stroke-width:2.64599991;stroke-linecap:round;stroke-linejoin:round;stroke-miterlimit:10;stroke-dasharray:none;stroke-dashoffset:56.27999878;stroke-opacity:1;color-rendering:auto;image-rendering:auto;shape-rendering:auto;text-rendering:auto;enable-background:accumulate"/><g aria-label="12" id="text4915" style="font-style:normal;font-variant:normal;font-weight:normal;font-stretch:normal;font-size:16.93333244px;line-height:125%;font-family:'Facile Sans';-inkscape-font-specification:'Facile Sans';letter-spacing:0px;word-spacing:0px;fill:#ac9393;fill-opacity:1;stroke:none;stroke-width:0.26458332px;stroke-linecap:butt;stroke-linejoin:miter;stroke-opacity:1" transform="translate(-559.06796,-188.15847)"><path d="m 611.96097,247.37259 v -10.2616 h -1.03293 l 1.03293,-2.57387 h 2.55694 v 12.83547 z" id="path5064" style="font-size:16.93333244px;fill:#ac9393;fill-opacity:1;stroke:none;stroke-width:0.26458332px"/><path d="m 619.02641,234.53712 q 0.84666,0 1.59173,0.32174 0.74507,0.32173 1.30387,0.88053 0.5588,0.5588 0.88053,1.3208 0.32173,0.74507 0.32173,1.59173 0,0.82974 -0.3048,1.55787 -0.28786,0.72813 -0.82973,1.27 -0.3048,0.32173 -0.67733,0.57573 -0.4572,0.3048 -0.99907,0.57574 -0.52493,0.27093 -0.99907,0.57573 -0.4572,0.3048 -0.762,0.69427 -0.3048,0.37253 -0.3048,0.9144 h 4.8768 v 2.55693 h -7.43373 v -2.55693 q 0,-0.94827 0.42333,-1.84574 0.254,-0.47413 0.57574,-0.84666 0.32173,-0.38947 0.7112,-0.69427 0.38946,-0.3048 0.8128,-0.5588 0.44026,-0.254 0.89746,-0.508 0.33867,-0.18627 0.6604,-0.3556 0.32174,-0.18627 0.54187,-0.508 0.254,-0.38947 0.254,-0.84667 0,-0.64346 -0.4572,-1.08373 -0.44027,-0.4572 -1.08373,-0.4572 -0.508,0 -0.89747,0.28787 -0.38947,0.28786 -0.5588,0.74506 l -1.8796,-1.89653 q 0.5588,-0.77893 1.4224,-1.23613 0.88053,-0.47414 1.91347,-0.47414 z" id="path5066" style="font-size:16.93333244px;fill:#ac9393;fill-opacity:1;stroke:none;stroke-width:0.26458332px"/></g><g aria-label="3" id="text4919" style="font-style:normal;font-variant:normal;font-weight:normal;font-stretch:normal;font-size:16.93333244px;line-height:125%;font-family:'Facile Sans';-inkscape-font-specification:'Facile Sans';letter-spacing:0px;word-spacing:0px;fill:#ac9393;fill-opacity:1;stroke:none;stroke-width:0.26458332px;stroke-linecap:butt;stroke-linejoin:miter;stroke-opacity:1" transform="rotate(-45,-508.46804,580.02714)"><path d="m 270.31338,576.38445 q 0.59267,0.5588 0.93133,1.3208 0.33867,0.762 0.33867,1.65947 0,0.84667 -0.32173,1.59173 -0.32174,0.74507 -0.88054,1.30387 -0.5588,0.5588 -1.30386,0.88053 -0.74507,0.32174 -1.59173,0.32174 -1.016,0 -1.94734,-0.28787 -0.9144,-0.3048 -1.69333,-0.84667 l 1.03293,-2.45533 q 0.508,0.49107 1.1684,0.762 0.67734,0.27093 1.43934,0.27093 0.64346,0 1.08373,-0.44026 0.4572,-0.4572 0.4572,-1.10067 0,-0.32173 -0.11853,-0.59267 -0.11854,-0.28786 -0.33867,-0.49106 -0.2032,-0.22014 -0.49107,-0.33867 -0.27093,-0.11853 -0.59266,-0.11853 h -0.508 v -2.57387 h 0.508 q 0.4064,-0.0169 0.69426,-0.3048 0.28787,-0.3048 0.28787,-0.7112 0,-0.44027 -0.3048,-0.72813 -0.28787,-0.3048 -0.72813,-0.3048 -0.42334,0 -0.72814,0.3048 -0.3048,0.28786 -0.3048,0.72813 l -1.96426,-1.9812 q 0.49106,-0.74507 1.27,-1.18533 0.77893,-0.44027 1.7272,-0.44027 0.74506,0 1.38853,0.28787 0.6604,0.27093 1.15146,0.762 0.49107,0.49106 0.762,1.15146 0.28787,0.6604 0.28787,1.40547 0,0.59267 -0.18627,1.15147 -0.18626,0.54186 -0.52493,0.99906 z" id="path5084" style="font-size:16.93333244px;fill:#ac9393;fill-opacity:1;stroke:none;stroke-width:0.26458332px"/></g><g aria-label="6" id="text4927" style="font-style:normal;font-variant:normal;font-weight:normal;font-stretch:normal;font-size:16.93333244px;line-height:125%;font-family:'Facile Sans';-inkscape-font-specification:'Facile Sans';letter-spacing:0px;word-spacing:0px;fill:#ac9393;fill-opacity:1;stroke:none;stroke-width:0.26458332px;stroke-linecap:butt;stroke-linejoin:miter;stroke-opacity:1" transform="translate(-559.06796,-189.65518)"><path d="m 617.65783,275.37186 q 0.762,0.0847 1.40547,0.44027 0.6604,0.3556 1.13453,0.89746 0.49107,0.54187 0.762,1.25307 0.28787,0.69427 0.28787,1.4732 0,0.84667 -0.32173,1.60867 -0.32174,0.74506 -0.88054,1.30386 -0.5588,0.5588 -1.30386,0.88054 -0.74507,0.32173 -1.59174,0.32173 -0.84666,0 -1.59173,-0.32173 -0.74507,-0.32174 -1.30387,-0.88054 -0.5588,-0.5588 -0.89746,-1.30386 -0.32174,-0.74507 -0.32174,-1.59174 v -0.0169 q 0,-0.82973 0.3048,-1.49013 0.32174,-0.6604 0.7112,-1.35467 l 3.2512,-5.87587 h 2.92947 z m -2.04893,4.08093 q 0,0.64347 0.44027,1.08374 0.4572,0.44026 1.10066,0.44026 0.64347,0 1.08374,-0.44026 0.4572,-0.4572 0.4572,-1.10067 0,-0.64347 -0.4572,-1.08373 -0.44027,-0.4572 -1.08374,-0.4572 -0.32173,0 -0.6096,0.11853 -0.27093,0.11853 -0.49106,0.33867 -0.2032,0.2032 -0.32174,0.49106 -0.11853,0.27094 -0.11853,0.59267 z" id="path5069" style="font-size:16.93333244px;fill:#ac9393;fill-opacity:1;stroke:none;stroke-width:0.26458332px"/></g><g aria-label="8" id="text4939" style="font-style:normal;font-variant:normal;font-weight:normal;font-stretch:normal;font-size:16.93333244px;line-height:125%;font-family:'Facile Sans';-inkscape-font-specification:'Facile Sans';letter-spacing:0px;word-spacing:0px;fill:#ac9393;fill-opacity:1;stroke:none;stroke-width:0.26458332px;stroke-linecap:butt;stroke-linejoin:miter;stroke-opacity:1" transform="rotate(45,-50.599928,-769.68232)"><path d="m 608.01142,-296.23381 q 0.57573,0.5588 0.9144,1.3208 0.33867,0.762 0.33867,1.64254 0,0.84666 -0.32174,1.59173 -0.32173,0.74507 -0.88053,1.30387 -0.5588,0.5588 -1.30387,0.88053 -0.74506,0.32173 -1.59173,0.32173 h -0.0169 q -0.84667,0 -1.59174,-0.32173 -0.74506,-0.32173 -1.30386,-0.88053 -0.5588,-0.5588 -0.88054,-1.30387 -0.32173,-0.74507 -0.32173,-1.59173 0,-0.88054 0.32173,-1.64254 0.33867,-0.762 0.93134,-1.3208 -0.33867,-0.44026 -0.54187,-0.99906 -0.2032,-0.5588 -0.2032,-1.1684 0,-0.74507 0.27093,-1.38854 0.28787,-0.6604 0.77894,-1.15146 0.49106,-0.49107 1.13453,-0.77894 0.6604,-0.28786 1.40547,-0.28786 0.74506,0 1.38853,0.28786 0.6604,0.28787 1.15147,0.77894 0.49106,0.49106 0.762,1.15146 0.28786,0.64347 0.28786,1.38854 0,0.6096 -0.2032,1.1684 -0.18626,0.5588 -0.52493,0.99906 z m -2.8448,4.50427 q 0.64347,-0.0169 1.08373,-0.4572 0.44027,-0.44027 0.44027,-1.08373 0,-0.64347 -0.44027,-1.08374 -0.44026,-0.4572 -1.08373,-0.4572 h -0.0169 q -0.64347,0 -1.10067,0.4572 -0.44027,0.44027 -0.44027,1.08374 0,0.64346 0.44027,1.08373 0.4572,0.44027 1.10067,0.4572 z m 0,-5.65573 q 0.42333,0 0.7112,-0.28787 0.3048,-0.3048 0.3048,-0.72813 0,-0.44027 -0.3048,-0.72814 -0.28787,-0.3048 -0.72813,-0.3048 -0.42334,0 -0.72814,0.3048 -0.28786,0.28787 -0.28786,0.72814 0,0.42333 0.28786,0.72813 0.3048,0.28787 0.72814,0.28787 z" id="path5076" style="font-size:16.93333244px;fill:#ac9393;fill-opacity:1;stroke:none;stroke-width:0.26458332px"/></g><g aria-label="7" id="text4943" style="font-style:normal;font-variant:normal;font-weight:normal;font-stretch:normal;font-size:16.93333244px;line-height:125%;font-family:'Facile Sans';-inkscape-font-specification:'Facile Sans';letter-spacing:0px;word-spacing:0px;fill:#ac9393;fill-opacity:1;stroke:none;stroke-width:0.26458332px;stroke-linecap:butt;stroke-linejoin:miter;stroke-opacity:1" transform="rotate(114.89525,-219.00021,-273.26982)"><path d="m -41.162211,-690.58807 h -2.760133 l 4.131733,-10.2616 h -4.131733 v -2.57387 h 7.941733 z" id="path5073" style="font-size:16.93333244px;fill:#ac9393;fill-opacity:1;stroke:none;stroke-width:0.26458332px"/></g></g></svg>