<?xml version="1.0" ?><svg height="430" id="svg8" version="1.1" viewBox="0 0 113.77083 113.77083" width="430" xmlns="http://www.w3.org/2000/svg" xmlns:cc="http://creativecommons.org/ns#" xmlns:dc="http://purl.org/dc/elements/1.1/" xmlns:inkscape="http://www.inkscape.org/namespaces/inkscape" xmlns:rdf="http://www.w3.org/1999/02/22-rdf-syntax-ns#" xmlns:sodipodi="http://sodipodi.sourceforge.net/DTD/sodipodi-0.dtd" xmlns:svg="http://www.w3.org/2000/svg" xmlns:xlink="http://www.w3.org/1999/xlink"><defs id="defs2"><linearGradient id="linearGradient4602"><stop id="stop4598" offset="0" style="stop-color:#ffeda5;stop-opacity:1"/><stop id="stop4600" offset="1" style="stop-color:#ffe680;stop-opacity:1"/></linearGradient><linearGradient id="linearGradient4594"><stop id="stop4590" offset="0" style="stop-color:#fbcaa9;stop-opacity:1"/><stop id="stop4592" offset="1" style="stop-color:#fabe96;stop-opacity:1"/></linearGradient><linearGradient gradientUnits="userSpaceOnUse" id="linearGradient4649" x1="0.60742188" x2="83.857422" xlink:href="#linearGradient4594" y1="802.82617" y2="1026.5762"/><linearGradient gradientUnits="userSpaceOnUse" id="linearGradient4886" x1="350.87057" x2="190.0551" xlink:href="#linearGradient4602" y1="252.42262" y2="183.80746"/></defs><g id="g4524"><path d="M 217.96484 36.359375 C 217.10535 36.361332 216.24651 36.584866 215.47656 37.029297 L 63.925781 124.52734 C 63.87608 124.55834 63.827864 124.58848 63.779297 124.62109 C 63.723171 124.65549 63.668009 124.69178 63.613281 124.72852 C 63.524311 124.78918 63.436413 124.85363 63.351562 124.91992 C 63.308174 124.9528 63.264949 124.98533 63.222656 125.01953 C 63.143702 125.08567 63.066909 125.15371 62.992188 125.22461 C 62.936817 125.27654 62.883029 125.33038 62.830078 125.38477 C 62.771836 125.44505 62.7153 125.50716 62.660156 125.57031 C 62.60301 125.63513 62.547848 125.70184 62.494141 125.76953 C 62.447426 125.82845 62.401416 125.88822 62.357422 125.94922 C 62.305038 126.02205 62.255409 126.09632 62.207031 126.17188 C 62.159674 126.24626 62.113664 126.32168 62.070312 126.39844 C 62.034785 126.46133 62.001405 126.52548 61.96875 126.58984 C 61.926004 126.67424 61.885527 126.75904 61.847656 126.8457 C 61.818554 126.91324 61.791817 126.98203 61.765625 127.05078 C 61.733121 127.13249 61.701872 127.21357 61.673828 127.29688 C 61.647749 127.37564 61.623522 127.45522 61.601562 127.53516 C 61.579263 127.61513 61.559157 127.69635 61.541016 127.77734 C 61.522874 127.85554 61.50655 127.93468 61.492188 128.01367 C 61.477069 128.10627 61.464905 128.19965 61.455078 128.29297 C 61.440716 128.3675 61.426976 128.44248 61.416016 128.51758 C 61.414595 128.58637 61.414595 128.65387 61.416016 128.72266 C 61.4156 128.7597 61.4156 128.79683 61.416016 128.83398 L 60.634766 302.49219 C 60.630986 303.32925 60.836844 304.15397 61.234375 304.89062 L 61.242188 304.88477 C 61.685983 305.70786 62.35205 306.38975 63.164062 306.85352 L 213.94727 393.00391 C 213.97864 393.01902 214.00934 393.03799 214.04102 393.05273 C 214.11562 393.0928 214.193 393.13169 214.26953 393.16797 C 214.34304 393.20198 214.41705 393.23621 214.49219 393.26758 C 214.56952 393.30159 214.64768 393.33103 214.72656 393.35938 C 214.80276 393.38583 214.87955 393.41369 214.95703 393.4375 C 215.04823 393.46396 215.13975 393.49062 215.23242 393.51367 C 215.29637 393.52879 215.36126 393.54341 215.42578 393.55664 C 215.51978 393.57554 215.61404 393.59495 215.70898 393.60742 C 215.78306 393.61876 215.85711 393.62916 215.93164 393.63672 C 216.01967 393.64428 216.10698 393.65247 216.19531 393.65625 C 216.27211 393.65927 216.34891 393.66016 216.42578 393.66016 C 216.51906 393.66023 216.6139 393.65748 216.70703 393.65234 C 216.77896 393.64887 216.85018 393.64428 216.92188 393.63672 C 217.0167 393.62538 217.11097 393.61511 217.20508 393.59961 C 217.27337 393.58827 217.34239 393.57762 217.41016 393.5625 C 217.504 393.5436 217.59685 393.52028 217.68945 393.49609 C 217.75533 393.48098 217.81964 393.46219 217.88477 393.44141 C 217.98405 393.41117 218.08248 393.37808 218.17969 393.3418 C 218.23808 393.31912 218.29599 393.29567 218.35352 393.27148 C 218.44547 393.2318 218.53753 393.18989 218.62695 393.14453 C 218.68675 393.1143 218.74607 393.08568 218.80469 393.05469 C 218.84399 393.03579 218.88306 393.01575 218.92188 392.99609 L 370.4707 305.5 C 372.01036 304.6107 372.9626 302.97138 372.9707 301.19336 L 373.75195 127.53516 C 373.75274 127.48402 373.75274 127.43395 373.75195 127.38281 C 373.75376 127.30522 373.75376 127.22798 373.75195 127.15039 C 373.74175 127.06429 373.72958 126.97803 373.71484 126.89258 C 373.70426 126.80837 373.69052 126.72419 373.67578 126.64062 C 373.66255 126.56367 373.64787 126.48639 373.63086 126.41016 C 373.61272 126.32663 373.59261 126.24462 373.57031 126.16211 C 373.54726 126.08123 373.52331 125.99952 373.49609 125.91992 C 373.46926 125.83893 373.43923 125.75917 373.4082 125.67969 C 373.37948 125.60973 373.35015 125.54125 373.31836 125.47266 C 373.2817 125.38833 373.24252 125.30482 373.20117 125.22266 C 373.1664 125.15062 373.12809 125.08006 373.08984 125.00977 C 373.04861 124.94185 373.0073 124.87447 372.96289 124.80859 C 372.91209 124.73142 372.85773 124.65626 372.80273 124.58203 C 372.75995 124.52235 372.71727 124.46201 372.67188 124.4043 C 372.6122 124.33048 372.55009 124.25975 372.48633 124.18945 C 372.43716 124.1334 372.38561 124.07722 372.33398 124.02344 C 372.2762 123.96504 372.21883 123.909 372.1582 123.85352 C 372.09304 123.79187 372.0254 123.73188 371.95703 123.67383 C 371.89648 123.62337 371.83438 123.57489 371.77148 123.52734 C 371.70591 123.47783 371.64022 123.42904 371.57227 123.38281 C 371.50163 123.33564 371.42841 123.2896 371.35547 123.24609 C 371.31677 123.21964 371.2777 123.19532 371.23828 123.16992 L 220.45703 37.017578 C 219.68506 36.576658 218.82434 36.357418 217.96484 36.359375 z M 217.99023 47.125 L 358.7207 127.52734 L 271.77344 177.72656 C 272.00754 179.76354 272.13867 181.83421 272.13867 183.94922 C 272.13867 185.77566 272.05507 187.51769 271.91016 189.19922 L 363.72266 136.19141 L 362.98828 298.26758 L 221.4668 379.97656 L 221.80273 304.47461 C 218.82823 306.63418 215.37019 307.73242 211.41406 307.73242 C 206.43157 307.73242 202.2282 306.01922 198.80273 302.59375 C 195.53297 299.16828 193.89844 294.96492 193.89844 289.98242 C 193.89844 284.99993 195.53297 280.87328 198.80273 277.60352 C 202.2282 274.17805 206.43157 272.4668 211.41406 272.4668 C 215.42692 272.4668 218.92681 273.59642 221.92969 275.81836 L 221.97461 265.94336 L 222.00977 258.21875 L 194.13086 258.21875 C 195.06508 245.76251 198.41282 234.70827 204.17383 225.05469 C 206.04226 221.78493 208.14492 218.98203 210.48047 216.64648 C 212.81601 214.15524 215.22946 211.82047 217.7207 209.64062 C 218.40365 209.00036 219.08659 208.38051 219.76953 207.75195 L 217.1875 209.24219 L 168.48633 181.41602 L 76.466797 128.83203 L 217.99023 47.125 z " id="path7484" style="color:#000000;font-style:normal;font-variant:normal;font-weight:normal;font-stretch:normal;font-size:medium;line-height:normal;font-family:sans-serif;font-variant-ligatures:normal;font-variant-position:normal;font-variant-caps:normal;font-variant-numeric:normal;font-variant-alternates:normal;font-feature-settings:normal;text-indent:0;text-align:start;text-decoration:none;text-decoration-line:none;text-decoration-style:solid;text-decoration-color:#000000;letter-spacing:normal;word-spacing:normal;text-transform:none;writing-mode:lr-tb;direction:ltr;text-orientation:mixed;dominant-baseline:auto;baseline-shift:baseline;text-anchor:start;white-space:normal;shape-padding:0;clip-rule:nonzero;display:inline;overflow:visible;visibility:visible;opacity:1;isolation:auto;mix-blend-mode:normal;color-interpolation:sRGB;color-interpolation-filters:linearRGB;solid-color:#000000;solid-opacity:1;vector-effect:none;fill:#ac9393;fill-opacity:1;fill-rule:nonzero;stroke:none;stroke-width:10;stroke-linecap:round;stroke-linejoin:round;stroke-miterlimit:10;stroke-dasharray:none;stroke-dashoffset:56.27999878;stroke-opacity:1;color-rendering:auto;image-rendering:auto;shape-rendering:auto;text-rendering:auto;enable-background:accumulate" transform="scale(0.26458333)"/><g aria-label="?" id="text7433" style="font-style:normal;font-variant:normal;font-weight:normal;font-stretch:normal;font-size:38.09999847px;line-height:125%;font-family:'Facile Sans';-inkscape-font-specification:'Facile Sans';letter-spacing:0px;word-spacing:0px;fill:#000000;fill-opacity:1;stroke:none;stroke-width:0.16313112px;stroke-linecap:butt;stroke-linejoin:miter;stroke-opacity:1" transform="matrix(1.6219059,0,0,1.6219059,-2467.0864,-359.62405)"><path d="m 1556.8496,242.23438 c -1.7629,0 -3.4583,0.28149 -5.0703,0.8457 v 0.002 0 c -1.5792,0.56209 -3.0212,1.35619 -4.3106,2.37695 l -0.7148,0.56641 5.2168,5.26367 0.5547,-0.34765 c 0.6252,-0.39369 1.2961,-0.70597 2.0176,-0.93946 0.732,-0.22874 1.4992,-0.3457 2.3105,-0.3457 0.5945,0 1.0181,0.17626 1.4414,0.59961 0.419,0.41898 0.5996,0.85459 0.5996,1.48047 0,0.51088 -0.1447,0.93156 -0.4726,1.35937 -0.3468,0.41427 -0.7122,0.78022 -1.0977,1.09766 l -0.01,0.008 -0.01,0.008 c -0.4136,0.36194 -0.8272,0.73782 -1.2402,1.125 -0.4127,0.3624 -0.8131,0.74955 -1.1992,1.16016 -6e-4,6.2e-4 0,10e-4 0,0.002 -0.4347,0.43508 -0.8166,0.94756 -1.1504,1.5293 -7e-4,10e-4 0,0.003 0,0.004 -1.0076,1.68982 -1.5896,3.62227 -1.75,5.76172 l -0.066,0.87695 h 7.4004 l 0.082,-0.72461 c 0.067,-0.59982 0.2186,-1.15658 0.459,-1.68359 v -0.002 c 0.4459,-0.93783 0.984,-1.70329 1.6153,-2.3125 6e-4,-5.8e-4 0,-10e-4 0,-0.002 0.7361,-0.68541 1.4468,-1.35693 2.1328,-2.01758 l 0.01,-0.006 0.01,-0.006 c 0.7356,-0.73564 1.3648,-1.55545 1.8828,-2.45508 v -0.004 -0.006 c 0.5707,-1.02115 0.8262,-2.26922 0.8262,-3.71289 0,-1.29581 -0.2503,-2.52897 -0.752,-3.67383 v -0.002 c -0.4943,-1.15257 -1.1744,-2.16917 -2.0332,-3.0293 -0.8368,-0.86334 -1.8432,-1.54592 -2.9961,-2.04102 -1.1464,-0.50331 -2.3818,-0.75585 -3.6797,-0.75585 z m 0,1.63085 c 1.0897,0 2.0871,0.20611 3.0234,0.61719 v 0.002 0.002 c 0.9756,0.41811 1.7939,0.97619 2.4785,1.68359 v 0.006 0.004 c 0.713,0.71298 1.2763,1.54763 1.6953,2.52539 v 0.004 0.004 c 0.411,0.93636 0.6171,1.93376 0.6171,3.02344 0,1.24616 -0.2241,2.20646 -0.6171,2.91211 -0.4448,0.77165 -0.9803,1.47093 -1.6114,2.10351 -0.6817,0.65645 -1.3883,1.32561 -2.1211,2.00782 l -0.01,0.006 v 0.004 c -0.7898,0.76152 -1.4442,1.699 -1.9629,2.79102 v 0.004 0.006 c -0.2114,0.46108 -0.296,0.96854 -0.4043,1.4668 h -4.2071 c 0.2203,-1.54333 0.6379,-2.95366 1.3672,-4.17578 v -0.008 -0.006 c 0.2737,-0.47893 0.5732,-0.8759 0.8965,-1.19922 l 0.01,-0.01 0.01,-0.01 c 0.3632,-0.38743 0.7374,-0.75052 1.123,-1.08789 l 0.01,-0.008 0.01,-0.01 c 0.3998,-0.37482 0.8001,-0.73668 1.1993,-1.08594 l -0.02,0.0156 c 0.4734,-0.38981 0.9167,-0.83244 1.3281,-1.32617 l 0.01,-0.0117 0.01,-0.0117 c 0.5305,-0.68655 0.8164,-1.5102 0.8164,-2.36719 0,-0.99972 -0.3776,-1.93419 -1.0762,-2.63281 -0.6942,-0.69425 -1.6153,-1.07813 -2.5957,-1.07813 -0.9667,0 -1.9033,0.13872 -2.7969,0.41797 v 0.002 0 c -0.632,0.20388 -1.2051,0.51669 -1.7793,0.82813 l -2.9629,-2.99024 c 0.945,-0.64479 1.9035,-1.26585 3.0157,-1.66211 1.4359,-0.50259 2.9413,-0.75586 4.5312,-0.75586 z m -1.2578,21.4961 c -0.9997,0 -1.9361,0.37755 -2.6348,1.07617 -0.6798,0.67988 -1.039,1.60643 -1.039,2.59766 0,0.99122 0.3556,1.91746 1.0254,2.61914 l 0.01,0.008 0.01,0.006 c 0.6987,0.69862 1.6351,1.07812 2.6348,1.07812 0.9997,0 1.9361,-0.3795 2.6348,-1.07812 0.6986,-0.69862 1.0761,-1.63309 1.0761,-2.63281 0,-0.99783 -0.38,-1.9295 -1.0859,-2.60547 -0.6976,-0.69287 -1.6296,-1.06836 -2.625,-1.06836 z m 0,1.63086 c 0.6259,0 1.0615,0.18063 1.4805,0.59961 l 0.01,0.008 0.01,0.006 c 0.4092,0.39052 0.586,0.80381 0.586,1.42969 0,0.62588 -0.1807,1.06148 -0.5996,1.48046 -0.419,0.41899 -0.8546,0.59961 -1.4805,0.59961 -0.6218,0 -1.0543,-0.1826 -1.4707,-0.5957 -0.3916,-0.41356 -0.5723,-0.85416 -0.5723,-1.48437 0,-0.63438 0.1756,-1.05644 0.5625,-1.44336 0.419,-0.41898 0.8546,-0.59961 1.4805,-0.59961 z" id="path7438" style="color:#000000;font-style:normal;font-variant:normal;font-weight:normal;font-stretch:normal;font-size:medium;line-height:125%;font-family:'Facile Sans';-inkscape-font-specification:'Facile Sans';font-variant-ligatures:normal;font-variant-position:normal;font-variant-caps:normal;font-variant-numeric:normal;font-variant-alternates:normal;font-feature-settings:normal;text-indent:0;text-align:start;text-decoration:none;text-decoration-line:none;text-decoration-style:solid;text-decoration-color:#000000;letter-spacing:0px;word-spacing:0px;text-transform:none;writing-mode:lr-tb;direction:ltr;text-orientation:mixed;dominant-baseline:auto;baseline-shift:baseline;text-anchor:start;white-space:normal;shape-padding:0;clip-rule:nonzero;display:inline;overflow:visible;visibility:visible;opacity:1;isolation:auto;mix-blend-mode:normal;color-interpolation:sRGB;color-interpolation-filters:linearRGB;solid-color:#000000;solid-opacity:1;vector-effect:none;fill:#ac9393;fill-opacity:1;fill-rule:nonzero;stroke:none;stroke-width:1.6313113;stroke-linecap:butt;stroke-linejoin:miter;stroke-miterlimit:4;stroke-dasharray:none;stroke-dashoffset:0;stroke-opacity:1;color-rendering:auto;image-rendering:auto;shape-rendering:auto;text-rendering:auto;enable-background:accumulate"/></g></g></svg>