<?xml version="1.0" ?><svg height="430" id="svg8" version="1.1" viewBox="0 0 113.77083 113.77083" width="430" xmlns="http://www.w3.org/2000/svg" xmlns:cc="http://creativecommons.org/ns#" xmlns:dc="http://purl.org/dc/elements/1.1/" xmlns:inkscape="http://www.inkscape.org/namespaces/inkscape" xmlns:rdf="http://www.w3.org/1999/02/22-rdf-syntax-ns#" xmlns:sodipodi="http://sodipodi.sourceforge.net/DTD/sodipodi-0.dtd" xmlns:svg="http://www.w3.org/2000/svg" xmlns:xlink="http://www.w3.org/1999/xlink"><defs id="defs2"><linearGradient id="linearGradient4610"><stop id="stop4606" offset="0" style="stop-color:#afe9dd;stop-opacity:1;"/><stop id="stop4608" offset="1" style="stop-color:#c8f0e8;stop-opacity:1"/></linearGradient><linearGradient id="linearGradient4602"><stop id="stop4598" offset="0" style="stop-color:#ffeda5;stop-opacity:1"/><stop id="stop4600" offset="1" style="stop-color:#ffe680;stop-opacity:1"/></linearGradient><linearGradient id="linearGradient4594"><stop id="stop4590" offset="0" style="stop-color:#fbcaa9;stop-opacity:1"/><stop id="stop4592" offset="1" style="stop-color:#fabe96;stop-opacity:1"/></linearGradient><linearGradient gradientUnits="userSpaceOnUse" id="linearGradient4649" x1="0.60742188" x2="83.857422" xlink:href="#linearGradient4594" y1="802.82617" y2="1026.5762"/><linearGradient gradientTransform="matrix(1.0754814,0,0,1.0754814,48.009649,-204.46828)" gradientUnits="userSpaceOnUse" id="linearGradient4817" x1="-10.747775" x2="17.511108" xlink:href="#linearGradient4610" y1="226.57681" y2="251.30618"/><linearGradient gradientTransform="matrix(1.0754814,0,0,1.0754814,48.009649,-204.46828)" gradientUnits="userSpaceOnUse" id="linearGradient4825" x1="19.785494" x2="32.689816" xlink:href="#linearGradient4602" y1="251.30734" y2="227.2083"/><linearGradient gradientTransform="matrix(1.0754814,0,0,1.0754814,48.009649,-204.46828)" gradientUnits="userSpaceOnUse" id="linearGradient4833" x1="17.51111" x2="27.868296" xlink:href="#linearGradient4594" y1="253.57996" y2="262.7074"/><linearGradient gradientUnits="userSpaceOnUse" id="linearGradient4886" x1="350.87057" x2="190.0551" xlink:href="#linearGradient4602" y1="252.42262" y2="183.80746"/></defs><g id="g4530"><g aria-label="8" id="text5977" style="font-style:normal;font-variant:normal;font-weight:normal;font-stretch:normal;font-size:16.93333244px;line-height:125%;font-family:'Facile Sans';-inkscape-font-specification:'Facile Sans';letter-spacing:0px;word-spacing:0px;fill:#ac9393;fill-opacity:1;stroke:none;stroke-width:0.26458332px;stroke-linecap:butt;stroke-linejoin:miter;stroke-opacity:1" transform="rotate(-28.297527,-352.57786,-185.08838)"><path d="m -82.306221,220.63666 q 0.575733,0.5588 0.9144,1.3208 0.338666,0.762 0.338666,1.64254 0,0.84666 -0.321733,1.59173 -0.321733,0.74507 -0.880533,1.30387 -0.5588,0.5588 -1.303867,0.88053 -0.745066,0.32173 -1.591733,0.32173 h -0.01693 q -0.846667,0 -1.591734,-0.32173 -0.745066,-0.32173 -1.303866,-0.88053 -0.5588,-0.5588 -0.880533,-1.30387 -0.321734,-0.74507 -0.321734,-1.59173 0,-0.88054 0.321734,-1.64254 0.338666,-0.762 0.931333,-1.3208 -0.338667,-0.44026 -0.541867,-0.99906 -0.2032,-0.5588 -0.2032,-1.1684 0,-0.74507 0.270933,-1.38854 0.287867,-0.6604 0.778934,-1.15146 0.491066,-0.49107 1.134533,-0.77894 0.6604,-0.28786 1.405467,-0.28786 0.745066,0 1.388533,0.28786 0.6604,0.28787 1.151467,0.77894 0.491066,0.49106 0.761999,1.15146 0.287867,0.64347 0.287867,1.38854 0,0.6096 -0.2032,1.1684 -0.186267,0.5588 -0.524933,0.99906 z m -2.8448,4.50427 q 0.643467,-0.0169 1.083733,-0.4572 0.440267,-0.44027 0.440267,-1.08373 0,-0.64347 -0.440267,-1.08374 -0.440266,-0.4572 -1.083733,-0.4572 h -0.01693 q -0.643467,0 -1.100667,0.4572 -0.440267,0.44027 -0.440267,1.08374 0,0.64346 0.440267,1.08373 0.4572,0.44027 1.100667,0.4572 z m 0,-5.65573 q 0.423333,0 0.7112,-0.28787 0.3048,-0.3048 0.3048,-0.72813 0,-0.44027 -0.3048,-0.72814 -0.287867,-0.3048 -0.728133,-0.3048 -0.423334,0 -0.728134,0.3048 -0.287866,0.28787 -0.287866,0.72814 0,0.42333 0.287866,0.72813 0.3048,0.28787 0.728134,0.28787 z" id="path5991" style="font-size:16.93333244px;fill:#ac9393;fill-opacity:1;stroke-width:0.26458332px"/></g><g aria-label="5" id="text5981" style="font-style:normal;font-variant:normal;font-weight:normal;font-stretch:normal;font-size:13.70763397px;line-height:125%;font-family:'Facile Sans';-inkscape-font-specification:'Facile Sans';letter-spacing:0px;word-spacing:0px;fill:#ac9393;fill-opacity:1;stroke:none;stroke-width:0.26458332px;stroke-linecap:butt;stroke-linejoin:miter;stroke-opacity:1" transform="matrix(-0.92645909,0.1435665,0.37639551,-1.1377057,45.60736,-189.25808)"><path d="m -129.16097,-253.38031 h -2.94714 v 1.65862 h 0.0411 q 0.68538,0 1.28852,0.26045 0.60314,0.26044 1.05549,0.71279 0.45235,0.45236 0.71279,1.0692 0.26045,0.60313 0.26045,1.28852 0,0.68538 -0.26045,1.28851 -0.26044,0.60314 -0.71279,1.05549 -0.45235,0.45235 -1.05549,0.7128 -0.60314,0.26044 -1.28852,0.26044 -0.82246,0 -1.57638,-0.23303 -0.74021,-0.24673 -1.37076,-0.68538 l 0.83617,-1.9876 q 0.41123,0.39752 0.94582,0.61684 0.54831,0.21932 1.16515,0.21932 0.52089,0 0.87729,-0.3564 0.37011,-0.3701 0.37011,-0.89099 0,-0.26045 -0.096,-0.47977 -0.096,-0.23303 -0.27415,-0.39752 -0.16449,-0.1782 -0.39752,-0.27416 -0.21932,-0.0959 -0.47977,-0.0959 h -2.11097 v -5.82574 h 5.01699 z" id="path6000" style="font-size:13.70763397px;fill:#ac9393;fill-opacity:1;stroke-width:0.26458332px"/></g><g aria-label="2" id="text5985" style="font-style:normal;font-variant:normal;font-weight:normal;font-stretch:normal;font-size:16.93333244px;line-height:125%;font-family:'Facile Sans';-inkscape-font-specification:'Facile Sans';letter-spacing:0px;word-spacing:0px;fill:#ac9393;fill-opacity:1;stroke:none;stroke-width:0.26458332px;stroke-linecap:butt;stroke-linejoin:miter;stroke-opacity:1" transform="matrix(0.94803115,0.19070647,-0.31817752,0.99081289,45.60736,-189.25808)"><path d="m 74.601797,215.31285 q 0.846666,0 1.591733,0.32173 0.745067,0.32174 1.303867,0.88054 0.558799,0.5588 0.880533,1.3208 0.321733,0.74506 0.321733,1.59173 0,0.82973 -0.3048,1.55787 -0.287867,0.72813 -0.829733,1.27 -0.3048,0.32173 -0.677333,0.57573 -0.4572,0.3048 -0.999067,0.57573 -0.524933,0.27094 -0.999067,0.57574 -0.4572,0.3048 -0.762,0.69426 -0.3048,0.37254 -0.3048,0.9144 h 4.8768 v 2.55694 H 71.26593 v -2.55694 q 0,-0.94826 0.423333,-1.84573 0.254,-0.47413 0.575734,-0.84667 0.321733,-0.38946 0.7112,-0.69426 0.389466,-0.3048 0.8128,-0.5588 0.440266,-0.254 0.897466,-0.508 0.338667,-0.18627 0.6604,-0.3556 0.321734,-0.18627 0.541867,-0.508 0.254,-0.38947 0.254,-0.84667 0,-0.64347 -0.4572,-1.08373 -0.440267,-0.4572 -1.083733,-0.4572 -0.508,0 -0.897467,0.28786 -0.389467,0.28787 -0.5588,0.74507 l -1.8796,-1.89653 q 0.5588,-0.77894 1.4224,-1.23614 0.880533,-0.47413 1.913467,-0.47413 z" id="path5994" style="font-size:16.93333244px;fill:#ac9393;fill-opacity:1;stroke-width:0.26458332px"/></g><path d="m 58.979926,12.256015 c -0.02421,0 -0.04844,0.003 -0.07258,0.005 -0.01223,0 -0.02421,0.003 -0.03632,0.003 -0.03561,0.004 -0.07097,0.0108 -0.106042,0.0182 -0.0037,0 -0.0073,0.003 -0.01101,0.003 -0.03935,0.009 -0.07823,0.019 -0.116531,0.0315 -0.03842,0.0125 -0.0762,0.0268 -0.113205,0.043 v 0 c -0.03737,0.0163 -0.07385,0.0348 -0.10939,0.0549 -0.03546,0.0201 -0.0699,0.0418 -0.103179,0.0655 -0.03324,0.0234 -0.06529,0.0487 -0.09601,0.0754 -0.02177,0.0186 -0.04302,0.0378 -0.06351,0.0578 L 14.1391,56.626365 c -0.09051,0.0911 -0.166102,0.19587 -0.224014,0.31048 0,0.003 -0.0024,0.004 -0.0029,0.006 -0.03505,0.0696 -0.06335,0.14235 -0.08454,0.21731 -0.0034,0.0137 -0.0066,0.0276 -0.0096,0.0416 -0.0063,0.0245 -0.01199,0.0489 -0.01663,0.0736 -0.0031,0.0194 -0.0059,0.0388 -0.0081,0.0583 -0.0031,0.0211 -0.0056,0.0419 -0.0075,0.063 0,0.0194 -0.0024,0.0388 -0.0024,0.0583 0,0.0213 -0.0024,0.0426 -0.0024,0.064 0,0.0196 0.0024,0.0392 0.0044,0.0588 0,0.0213 0.003,0.0424 0.0054,0.0634 0.0029,0.023 0.0066,0.0459 0.01101,0.0687 0.0024,0.0156 0.0054,0.0313 0.0086,0.0468 0.0066,0.0285 0.01419,0.0567 0.02298,0.0845 0.0029,0.0113 0.0061,0.0223 0.0096,0.0335 0.0115,0.0343 0.02463,0.0681 0.03918,0.10131 0,0.003 0.0024,0.005 0.0034,0.009 0.0606,0.13825 0.146269,0.26408 0.252676,0.37114 L 58.15114,102.3682 c 0.490581,0.49137 1.291406,0.47619 1.76301,-0.0335 l 40.76215,-43.979615 0.0124,-0.014 0.0802,-0.0922 0.0712,-0.0994 0.0597,-0.10465 0.001,-0.003 0.004,-0.01 0.0435,-0.0965 0.0115,-0.0325 0.0282,-0.0855 0.001,-0.003 0.004,-0.0175 0.022,-0.097 0.005,-0.0359 0.01,-0.0807 0.002,-0.0587 0.002,-0.0635 -0.005,-0.074 -0.003,-0.0434 -0.0148,-0.0884 -0.006,-0.0315 -0.0229,-0.0851 -0.01,-0.0334 -0.0392,-0.10121 -0.003,-0.008 h -4.9e-4 l -0.0454,-0.0908 -0.0105,-0.0211 -0.064,-0.0998 -0.13279,-0.15955 -40.795788,-44.01313 -0.0024,-0.003 c -0.0283,-0.028 -0.05794,-0.0546 -0.08882,-0.0798 -0.03158,-0.0258 -0.06441,-0.0501 -0.09841,-0.0727 -0.0293,-0.019 -0.05942,-0.037 -0.09027,-0.0536 -0.0049,-0.003 -0.0098,-0.006 -0.01492,-0.01 0,0 -0.0024,0 -0.0034,-0.003 -0.035,-0.0183 -0.07085,-0.0348 -0.107463,-0.0497 -0.03783,-0.0152 -0.07642,-0.0286 -0.115601,-0.0401 -0.03355,-0.01 -0.0675,-0.0175 -0.10174,-0.0245 -0.0069,-0.003 -0.0137,-0.003 -0.02054,-0.004 -0.03544,-0.006 -0.07114,-0.011 -0.107,-0.0144 -0.0034,0 -0.0071,0 -0.01054,-0.003 h -0.0024 c -0.03321,-0.003 -0.06652,-0.003 -0.09983,-0.003 h -0.02102 c -0.0024,1.6e-4 -0.0024,0 -0.0039,0 -0.0046,-1.9e-4 -0.0096,0 -0.01443,0 z m -1.186002,4.1737 9.0486,49.37707 -48.887948,-9.53772 z m 2.446056,0.003 36.619978,39.83745 -27.571379,9.53771 z m 9.048599,51.81931 27.571379,-9.53771 -36.619978,39.83741 z" id="path4751" style="color:#000000;font-style:normal;font-variant:normal;font-weight:normal;font-stretch:normal;font-size:medium;line-height:normal;font-family:sans-serif;font-variant-ligatures:normal;font-variant-position:normal;font-variant-caps:normal;font-variant-numeric:normal;font-variant-alternates:normal;font-feature-settings:normal;text-indent:0;text-align:start;text-decoration:none;text-decoration-line:none;text-decoration-style:solid;text-decoration-color:#000000;letter-spacing:normal;word-spacing:normal;text-transform:none;writing-mode:lr-tb;direction:ltr;text-orientation:mixed;dominant-baseline:auto;baseline-shift:baseline;text-anchor:start;white-space:normal;shape-padding:0;clip-rule:nonzero;display:inline;overflow:visible;visibility:visible;opacity:1;isolation:auto;mix-blend-mode:normal;color-interpolation:sRGB;color-interpolation-filters:linearRGB;solid-color:#000000;solid-opacity:1;vector-effect:none;fill:#ac9393;fill-opacity:1;fill-rule:nonzero;stroke:none;stroke-width:2.64583325;stroke-linecap:round;stroke-linejoin:round;stroke-miterlimit:10;stroke-dasharray:none;stroke-dashoffset:56.27999878;stroke-opacity:1;color-rendering:auto;image-rendering:auto;shape-rendering:auto;text-rendering:auto;enable-background:accumulate"/></g></svg>