<?xml version="1.0" ?><svg height="430" id="svg8" version="1.1" viewBox="0 0 113.77083 113.77083" width="430" xmlns="http://www.w3.org/2000/svg" xmlns:cc="http://creativecommons.org/ns#" xmlns:dc="http://purl.org/dc/elements/1.1/" xmlns:inkscape="http://www.inkscape.org/namespaces/inkscape" xmlns:rdf="http://www.w3.org/1999/02/22-rdf-syntax-ns#" xmlns:sodipodi="http://sodipodi.sourceforge.net/DTD/sodipodi-0.dtd" xmlns:svg="http://www.w3.org/2000/svg" xmlns:xlink="http://www.w3.org/1999/xlink"><defs id="defs2"><linearGradient id="linearGradient4610"><stop id="stop4606" offset="0" style="stop-color:#afe9dd;stop-opacity:1;"/><stop id="stop4608" offset="1" style="stop-color:#c8f0e8;stop-opacity:1"/></linearGradient><linearGradient id="linearGradient4602"><stop id="stop4598" offset="0" style="stop-color:#ffeda5;stop-opacity:1"/><stop id="stop4600" offset="1" style="stop-color:#ffe680;stop-opacity:1"/></linearGradient><linearGradient id="linearGradient4594"><stop id="stop4590" offset="0" style="stop-color:#fbcaa9;stop-opacity:1"/><stop id="stop4592" offset="1" style="stop-color:#fabe96;stop-opacity:1"/></linearGradient><linearGradient gradientUnits="userSpaceOnUse" id="linearGradient4649" x1="0.60742188" x2="83.857422" xlink:href="#linearGradient4594" y1="802.82617" y2="1026.5762"/><linearGradient gradientTransform="matrix(0.94891046,0,0,0.94891046,215.24186,-688.11055)" gradientUnits="userSpaceOnUse" id="linearGradient4780" x1="0.60742188" x2="83.857422" xlink:href="#linearGradient4594" y1="802.82617" y2="1026.5762"/><linearGradient gradientTransform="matrix(0.94891046,0,0,0.94891046,215.24186,-688.11055)" gradientUnits="userSpaceOnUse" id="linearGradient4782" x1="-75.642578" x2="0.60742188" xlink:href="#linearGradient4610" y1="1029.5762" y2="802.82617"/><linearGradient gradientUnits="userSpaceOnUse" id="linearGradient4886" x1="350.87057" x2="190.0551" xlink:href="#linearGradient4602" y1="252.42262" y2="183.80746"/></defs><path d="M 220.5625 86.226562 L 220.5625 342.95312 L 350.66992 233.33203 L 220.5625 86.226562 z M 283.78125 169.46484 C 284.64727 169.46485 285.49366 169.629 286.32031 169.95703 C 287.14696 170.28507 287.88691 170.77753 288.54297 171.43359 C 289.33026 172.22088 289.97404 173.08651 290.47266 174.03125 C 290.94503 174.97599 291.27333 175.95895 291.45703 176.98242 L 287.40234 178.63672 C 287.38923 177.86256 287.23147 177.11425 286.92969 176.39258 C 286.61476 175.65777 286.16273 174.99476 285.57227 174.4043 C 285.07366 173.90569 284.4831 173.65625 283.80078 173.65625 C 283.09223 173.65625 282.48885 173.90568 281.99023 174.4043 C 281.74093 174.6536 281.55564 174.92872 281.4375 175.23047 C 281.30624 175.54534 281.24855 175.86723 281.26172 176.19531 C 281.24854 176.52329 281.30623 176.84519 281.4375 177.16016 C 281.55559 177.46196 281.74093 177.73702 281.99023 177.98633 L 282.58008 178.57812 L 279.58789 181.56836 L 278.99805 180.97852 C 278.66994 180.67678 278.28198 180.52544 277.83594 180.52539 C 277.37669 180.53851 276.9907 180.70266 276.67578 181.01758 C 276.33462 181.35873 276.17047 181.7595 276.18359 182.21875 C 276.17047 182.678 276.33464 183.07878 276.67578 183.41992 C 277.00382 183.74796 277.40263 183.91016 277.875 183.91016 C 278.33425 183.92328 278.73502 183.76108 279.07617 183.41992 L 279.05664 188.00586 C 278.09878 188.20268 277.14788 188.16868 276.20312 187.90625 C 275.25839 187.64382 274.41841 187.14497 273.68359 186.41016 C 273.10627 185.83283 272.67986 185.18458 272.4043 184.46289 C 272.10251 183.74122 271.95117 182.99932 271.95117 182.23828 C 271.95118 181.47724 272.10251 180.73535 272.4043 180.01367 C 272.69297 179.27887 273.12578 178.62226 273.70312 178.04492 C 274.16239 177.58567 274.68042 177.21245 275.25781 176.92383 C 275.82208 176.64833 276.41263 176.46493 277.0293 176.37305 C 277.00305 175.48079 277.1544 174.60876 277.48242 173.75586 C 277.81046 172.90297 278.32214 172.12903 279.01758 171.43359 C 279.67365 170.77752 280.41554 170.28507 281.24219 169.95703 C 282.06883 169.62899 282.91523 169.46484 283.78125 169.46484 z M 239.12891 217.42773 L 243.35938 219.125 L 243.35938 223.32812 L 222.25977 223.32812 L 222.25977 219.125 L 239.12891 219.125 L 239.12891 217.42773 z M 279.69727 253.22461 L 285.61328 263.46875 L 287.08203 262.62109 L 289.18359 266.25977 L 287.71484 267.10938 L 290.24609 271.49609 L 286.60742 273.59766 L 284.07422 269.21094 L 277.17969 273.19141 L 275.24609 269.8418 L 276.00977 255.35352 L 279.69727 253.22461 z M 279.88477 261.95508 L 279.63477 266.92188 L 281.97266 265.57031 L 279.88477 261.95508 z " id="path4750" style="opacity:1;fill:#000000;fill-opacity:1;fill-rule:nonzero;stroke:none;stroke-width:10;stroke-linecap:round;stroke-linejoin:round;stroke-miterlimit:10;stroke-dasharray:none;stroke-dashoffset:56.27999878;stroke-opacity:1" transform="scale(0.26458333)"/><path d="M 211.07422 86.226562 L 80.966797 233.33203 L 211.07422 342.95312 L 211.07422 86.226562 z M 147.50586 169.33008 L 149.16016 173.38477 C 148.386 173.39789 147.63771 173.55562 146.91602 173.85742 C 146.18124 174.17234 145.5182 174.62438 144.92773 175.21484 C 144.42912 175.71345 144.17969 176.30401 144.17969 176.98633 C 144.17969 177.69488 144.42912 178.29826 144.92773 178.79688 C 145.17704 179.04618 145.45411 179.22951 145.75586 179.34766 C 146.07073 179.47892 146.39068 179.53856 146.71875 179.52539 C 147.04672 179.53856 147.36862 179.47892 147.68359 179.34766 C 147.98534 179.22951 148.26046 179.04618 148.50977 178.79688 L 149.10156 178.20703 L 152.0918 181.19922 L 151.50195 181.78906 C 151.20056 182.11751 151.04923 182.50545 151.04883 182.95117 C 151.06195 183.41042 151.22611 183.79643 151.54102 184.11133 C 151.88217 184.45249 152.28294 184.61664 152.74219 184.60352 C 153.20144 184.61664 153.6022 184.45249 153.94336 184.11133 C 154.2714 183.78329 154.43555 183.38253 154.43555 182.91016 C 154.44867 182.45091 154.28452 182.0521 153.94336 181.71094 L 158.5293 181.73047 C 158.72612 182.68833 158.69211 183.63924 158.42969 184.58398 C 158.16725 185.52874 157.66839 186.36872 156.93359 187.10352 C 156.35625 187.68086 155.708 188.10727 154.98633 188.38281 C 154.26465 188.6846 153.52275 188.83594 152.76172 188.83594 C 152.00067 188.83595 151.25877 188.68461 150.53711 188.38281 C 149.8023 188.09413 149.14766 187.66133 148.57031 187.08398 C 148.11108 186.62475 147.7359 186.10669 147.44727 185.5293 C 147.17176 184.96502 146.98839 184.37446 146.89648 183.75781 C 146.00424 183.78407 145.13218 183.63273 144.2793 183.30469 C 143.42641 182.97665 142.65247 182.46497 141.95703 181.76953 C 141.30095 181.11345 140.80851 180.37157 140.48047 179.54492 C 140.15243 178.71827 139.98826 177.87187 139.98828 177.00586 C 139.98828 176.13984 140.15245 175.29343 140.48047 174.4668 C 140.80851 173.64015 141.30095 172.90022 141.95703 172.24414 C 142.74432 171.45685 143.60995 170.81306 144.55469 170.31445 C 145.49943 169.84208 146.4824 169.51379 147.50586 169.33008 z M 188.09961 217.42773 L 209.19922 217.42773 L 209.19922 221.63086 L 192.33008 221.63086 L 192.33008 223.32812 L 188.09961 221.63086 L 188.09961 217.42773 z M 138.84375 246.23438 L 142.56445 248.30664 L 136.80859 258.64258 L 138.29102 259.46875 L 136.24609 263.14062 L 134.76367 262.31445 L 132.29883 266.74023 L 128.62695 264.69531 L 131.0918 260.26953 L 124.13672 256.39453 L 126.01953 253.01562 L 138.84375 246.23438 z M 135.16797 252.94922 L 130.77734 255.2832 L 133.13672 256.59766 L 135.16797 252.94922 z " id="path4752" style="opacity:1;fill:#000000;fill-opacity:1;fill-rule:nonzero;stroke:none;stroke-width:10;stroke-linecap:round;stroke-linejoin:round;stroke-miterlimit:10;stroke-dasharray:none;stroke-dashoffset:56.27999878;stroke-opacity:1" transform="scale(0.26458333)"/><g aria-label="4" id="text4756" style="font-style:normal;font-variant:normal;font-weight:normal;font-stretch:normal;font-size:7.76111126px;line-height:125%;font-family:'Facile Sans';-inkscape-font-specification:'Facile Sans';letter-spacing:0px;word-spacing:0px;fill:#ac9393;fill-opacity:1;stroke:none;stroke-width:0.27882856px;stroke-linecap:butt;stroke-linejoin:miter;stroke-opacity:1" transform="matrix(0.82178051,-0.4744552,0.4744552,0.82178051,-43.225883,-182.06257)"/><g aria-label="1" id="text4760" style="font-style:normal;font-variant:normal;font-weight:normal;font-stretch:normal;font-size:7.76111126px;line-height:125%;font-family:'Facile Sans';-inkscape-font-specification:'Facile Sans';letter-spacing:0px;word-spacing:0px;fill:#ac9393;fill-opacity:1;stroke:none;stroke-width:0.27882856px;stroke-linecap:butt;stroke-linejoin:miter;stroke-opacity:1" transform="matrix(0,0.9489104,-0.9489104,0,-43.225883,-182.06257)"/><g aria-label="3" id="text4764" style="font-style:normal;font-variant:normal;font-weight:normal;font-stretch:normal;font-size:7.76111126px;line-height:125%;font-family:'Facile Sans';-inkscape-font-specification:'Facile Sans';letter-spacing:0px;word-spacing:0px;fill:#ac9393;fill-opacity:1;stroke:none;stroke-width:0.27882856px;stroke-linecap:butt;stroke-linejoin:miter;stroke-opacity:1" transform="matrix(-0.67098098,-0.67098098,0.67098098,-0.67098098,-43.225883,-182.06257)"/><g aria-label="4" id="text4768" style="font-style:normal;font-variant:normal;font-weight:normal;font-stretch:normal;font-size:7.76111126px;line-height:125%;font-family:'Facile Sans';-inkscape-font-specification:'Facile Sans';letter-spacing:0px;word-spacing:0px;fill:#ac9393;fill-opacity:1;stroke:none;stroke-width:0.27882856px;stroke-linecap:butt;stroke-linejoin:miter;stroke-opacity:1" transform="matrix(0.82901091,0.46170539,-0.46170539,0.82901091,17.587013,-196.97599)"/><g aria-label="1" id="text4772" style="font-style:normal;font-variant:normal;font-weight:normal;font-stretch:normal;font-size:7.76111126px;line-height:125%;font-family:'Facile Sans';-inkscape-font-specification:'Facile Sans';letter-spacing:0px;word-spacing:0px;fill:#ac9393;fill-opacity:1;stroke:none;stroke-width:0.27882856px;stroke-linecap:butt;stroke-linejoin:miter;stroke-opacity:1" transform="matrix(0,-0.9489104,0.9489104,0,-43.225883,-182.06257)"/><g aria-label="3" id="text4776" style="font-style:normal;font-variant:normal;font-weight:normal;font-stretch:normal;font-size:7.76111126px;line-height:125%;font-family:'Facile Sans';-inkscape-font-specification:'Facile Sans';letter-spacing:0px;word-spacing:0px;fill:#ac9393;fill-opacity:1;stroke:none;stroke-width:0.27882856px;stroke-linecap:butt;stroke-linejoin:miter;stroke-opacity:1" transform="matrix(-0.67098098,0.67098098,-0.67098098,-0.67098098,-42.160703,-181.70751)"/></svg>