<?xml version="1.0" ?><svg height="430" id="svg8" version="1.1" viewBox="0 0 113.77083 113.77083" width="430" xmlns="http://www.w3.org/2000/svg" xmlns:cc="http://creativecommons.org/ns#" xmlns:dc="http://purl.org/dc/elements/1.1/" xmlns:inkscape="http://www.inkscape.org/namespaces/inkscape" xmlns:rdf="http://www.w3.org/1999/02/22-rdf-syntax-ns#" xmlns:sodipodi="http://sodipodi.sourceforge.net/DTD/sodipodi-0.dtd" xmlns:svg="http://www.w3.org/2000/svg" xmlns:xlink="http://www.w3.org/1999/xlink"><defs id="defs2"><linearGradient id="linearGradient4610"><stop id="stop4606" offset="0" style="stop-color:#afe9dd;stop-opacity:1;"/><stop id="stop4608" offset="1" style="stop-color:#c8f0e8;stop-opacity:1"/></linearGradient><linearGradient id="linearGradient4602"><stop id="stop4598" offset="0" style="stop-color:#ffeda5;stop-opacity:1"/><stop id="stop4600" offset="1" style="stop-color:#ffe680;stop-opacity:1"/></linearGradient><linearGradient id="linearGradient4594"><stop id="stop4590" offset="0" style="stop-color:#fbcaa9;stop-opacity:1"/><stop id="stop4592" offset="1" style="stop-color:#fabe96;stop-opacity:1"/></linearGradient><linearGradient gradientUnits="userSpaceOnUse" id="linearGradient4649" x1="0.60742188" x2="83.857422" xlink:href="#linearGradient4594" y1="802.82617" y2="1026.5762"/><linearGradient gradientUnits="userSpaceOnUse" id="linearGradient4886" x1="350.87057" x2="190.0551" xlink:href="#linearGradient4602" y1="252.42262" y2="183.80746"/><linearGradient gradientTransform="matrix(3.7795279,0,0,3.7795279,-1654.2397,-715.45524)" gradientUnits="userSpaceOnUse" id="linearGradient5219" x1="494.37033" x2="494.36981" xlink:href="#linearGradient4602" y1="257.03186" y2="204.44023"/><linearGradient gradientTransform="matrix(3.7795278,0,0,3.7795278,-1654.2397,-715.45523)" gradientUnits="userSpaceOnUse" id="linearGradient5227" x1="494.36987" x2="450.8924" xlink:href="#linearGradient4610" y1="201.54376" y2="251.65233"/><linearGradient gradientTransform="matrix(3.7795278,0,0,3.7795278,-1654.2397,-715.45523)" gradientUnits="userSpaceOnUse" id="linearGradient5259" x1="539.16968" x2="494.36987" xlink:href="#linearGradient4594" y1="253.53699" y2="201.54376"/></defs><g id="layer1" style="fill:#000000" transform="translate(3.5875705,-186.3683)"><g id="g4740" style="fill:#000000" transform="translate(-94.666308,107.51176)"/><g id="g6564" style="fill:#000000" transform="translate(-441.27181,-2.9292203)"><path d="M 128.41016 217.91992 L 54.683594 244.58203 L 209.24609 377.38867 L 209.24609 264.67578 L 128.41016 217.91992 z M 134.85547 255.75 C 137.07249 255.71656 139.37848 256.10092 141.77344 256.90234 C 144.15276 257.75326 146.53169 258.94769 148.91406 260.48828 L 150.17383 271.18555 C 148.44664 269.78284 146.69255 268.70083 144.91016 267.93945 C 143.09078 267.1786 141.34832 266.81085 139.68555 266.83594 C 138.28145 266.85712 137.37675 267.51175 136.9707 268.79883 C 136.54904 270.1354 136.74402 271.73381 137.55469 273.59375 C 137.96002 274.5237 138.46253 275.37703 139.0625 276.15625 C 139.68384 276.98443 140.36326 277.68943 141.09961 278.26953 C 141.82034 278.89912 142.5682 279.37973 143.3457 279.71289 C 144.08623 280.04658 144.80771 280.20786 145.50977 280.19727 L 147.17383 280.17383 L 152.03711 291.33203 L 150.375 291.35742 C 149.50948 291.41965 148.94317 291.87125 148.67773 292.71289 C 148.43357 293.60338 148.56808 294.63586 149.08008 295.81055 C 149.63474 297.08311 150.42535 298.13108 151.45312 298.95312 C 152.46529 299.82467 153.45141 300.25277 154.41211 300.23828 C 155.33588 300.22435 155.9396 299.77191 156.2207 298.88086 C 156.52314 298.03874 156.39646 296.98155 155.8418 295.70898 L 166.01562 304.20117 C 165.88274 306.37091 165.24272 308.10607 164.09766 309.4043 C 162.95262 310.70253 161.34657 311.36722 159.27734 311.39844 C 157.65154 311.42296 155.95429 311.02965 154.1875 310.21875 C 152.4051 309.45737 150.66876 308.37592 148.97852 306.97266 C 147.2883 305.56939 145.73182 303.91753 144.30859 302.01758 C 142.84845 300.11818 141.6496 298.09108 140.71094 295.9375 C 139.96427 294.2244 139.44209 292.55688 139.14453 290.93555 C 138.86832 289.36315 138.81159 287.9108 138.97461 286.57812 C 136.97734 284.98244 135.1287 283.08983 133.42969 280.89844 C 131.73069 278.70704 130.31621 276.31284 129.18555 273.71875 C 128.11888 271.27147 127.46709 268.96693 127.23047 266.80273 C 126.99386 264.63857 127.13307 262.73906 127.64844 261.10547 C 128.1638 259.47188 129.03147 258.17716 130.25195 257.22266 C 131.47245 256.26818 133.00796 255.77787 134.85547 255.75 z " id="path5049" style="opacity:1;fill:#000000;fill-opacity:1;fill-rule:nonzero;stroke:none;stroke-width:10.00063038;stroke-linecap:round;stroke-linejoin:round;stroke-miterlimit:10;stroke-dasharray:none;stroke-dashoffset:56.27999878;stroke-opacity:1" transform="matrix(0.26458333,0,0,0.26458333,437.68424,189.29752)"/><path d="M 198.12109 66.730469 L 49.923828 194.07422 L 49.923828 235.67188 L 125.35156 208.38867 L 198.12109 66.730469 z M 125.68945 137.92969 C 127.70838 137.96879 129.43007 138.53574 130.85352 139.63281 C 132.02028 140.53206 132.84407 141.68264 133.32422 143.08203 C 133.80438 144.48144 133.95466 146.00466 133.77539 147.6543 C 133.59612 149.30393 133.0797 151.02084 132.22852 152.80273 C 131.4061 154.55262 130.27627 156.22793 128.83789 157.82812 C 127.42827 159.39632 125.89532 160.70537 124.23828 161.75781 C 122.60457 162.82824 120.95441 163.5885 119.28711 164.03711 C 118.32049 164.32146 117.3648 164.50544 116.41992 164.58984 C 115.27206 164.68033 114.09373 164.69432 112.88672 164.63086 C 111.70306 164.5854 110.52667 164.59938 109.35547 164.67188 C 108.2076 164.76236 107.09145 165.01341 106.00977 165.42578 C 104.95685 165.80614 103.97135 166.50712 103.05078 167.53125 L 113.13086 175.30078 L 106.61523 182.55078 L 91.25 170.70703 L 97.765625 163.45898 C 99.376616 161.66676 101.23568 160.14698 103.34375 158.90039 C 104.49928 158.27405 105.61515 157.78035 106.69141 157.41797 C 107.79643 157.02359 108.87517 156.74446 109.92969 156.58203 C 110.98422 156.41962 112.02026 156.3234 113.03516 156.29297 C 114.07339 156.28051 115.12203 156.27767 116.18359 156.2832 C 116.96674 156.29085 117.72404 156.3045 118.45508 156.32617 C 119.21489 156.31584 120.02116 156.12428 120.87109 155.75 C 121.88278 155.28368 122.77601 154.61801 123.55273 153.75391 C 124.64591 152.53775 125.25123 151.27082 125.36914 149.95312 C 125.53915 148.62141 125.18165 147.61311 124.29492 146.92969 C 123.59487 146.39015 122.73084 146.18599 121.70508 146.31641 C 120.67933 146.44683 119.66244 146.85481 118.65234 147.53906 L 119.59961 139.16797 C 121.69299 138.28928 123.72265 137.87658 125.68945 137.92969 z " id="path5054" style="opacity:1;fill:#000000;fill-opacity:1;fill-rule:nonzero;stroke:none;stroke-width:10.00063038;stroke-linecap:round;stroke-linejoin:round;stroke-miterlimit:10;stroke-dasharray:none;stroke-dashoffset:56.27999878;stroke-opacity:1" transform="matrix(0.26458333,0,0,0.26458333,437.68424,189.29752)"/><path d="M 300.07812 217.91797 L 219.24805 264.67188 L 219.24805 377.38867 L 373.80859 244.58398 L 300.07812 217.91797 z M 290.55469 261.08398 L 267.21289 303.53125 L 281.86914 302.82617 L 279.68945 313.29688 L 251.51953 314.65234 L 280.76367 261.55469 L 290.55469 261.08398 z " id="path5046" style="opacity:1;fill:#000000;fill-opacity:1;fill-rule:nonzero;stroke:none;stroke-width:10.00063038;stroke-linecap:round;stroke-linejoin:round;stroke-miterlimit:10;stroke-dasharray:none;stroke-dashoffset:56.27999878;stroke-opacity:1" transform="matrix(0.26458333,0,0,0.26458333,437.68424,189.29752)"/><path d="M 230.37695 66.742188 L 303.14648 208.38867 L 340.52344 221.91016 L 378.56445 235.66992 L 378.56445 194.07422 L 230.37695 66.742188 z M 299.47461 140.14453 C 300.75306 140.08926 302.04894 140.22622 303.36133 140.55273 C 305.11119 140.98811 306.81527 141.75847 308.47461 142.86523 C 310.13397 143.91166 311.62761 145.26413 312.95508 146.92188 C 314.04119 148.27822 314.89964 149.71324 315.5332 151.22852 C 316.19693 152.72114 316.61976 154.18432 316.80078 155.61719 C 318.82218 156.08994 320.81436 156.94728 322.77539 158.18945 C 324.73644 159.43161 326.50148 161.03303 328.07031 162.99219 C 329.57881 164.87601 330.70863 166.86085 331.46289 168.94922 C 332.21711 171.03758 332.5957 173.07715 332.5957 175.06836 C 332.5957 177.05957 332.21711 178.91195 331.46289 180.625 C 330.70863 182.33804 329.57881 183.76135 328.07031 184.89453 L 328.02539 184.92773 C 326.51689 186.06091 324.81084 186.76944 322.91016 187.05078 C 321.00944 187.33211 319.06348 187.22394 317.07227 186.72852 C 315.08105 186.23309 313.13506 185.37167 311.23438 184.14453 C 309.33365 182.91738 307.62959 181.36234 306.12109 179.47852 C 304.55227 177.51935 303.3762 175.47761 302.5918 173.35156 C 301.83754 171.20287 301.49044 169.11076 301.55078 167.07422 C 300.16295 166.5479 298.78929 165.79753 297.43164 164.82617 C 296.074 163.85481 294.85174 162.69229 293.76562 161.33594 C 292.43816 159.67819 291.44303 157.95058 290.7793 156.15625 C 290.11555 154.3016 289.7832 152.49987 289.7832 150.75 C 289.78322 149.00016 290.10083 147.37475 290.73438 145.87305 C 291.39811 144.34867 292.39322 143.08704 293.7207 142.08984 C 295.04818 141.09265 296.54183 140.48437 298.20117 140.26367 C 298.62355 140.20283 299.04846 140.16295 299.47461 140.14453 z M 302.59375 150.09961 C 301.85271 150.04534 301.18793 150.2397 300.59961 150.68164 C 299.84537 151.24822 299.46875 152.07404 299.46875 153.16016 C 299.46875 154.18594 299.86013 155.1884 300.64453 156.16797 C 301.39879 157.10989 302.30538 157.72664 303.36133 158.01953 C 304.41726 158.25207 305.32193 158.08611 306.07617 157.51953 L 306.12109 157.48438 C 306.87535 156.91778 307.25195 156.12146 307.25195 155.0957 C 307.25195 154.00959 306.87535 152.99661 306.12109 152.05469 C 305.33669 151.07512 304.41728 150.46889 303.36133 150.23633 C 303.09734 150.1631 302.84076 150.1177 302.59375 150.09961 z M 315.41406 165.2168 C 314.52075 165.25145 313.71654 165.53791 313 166.07617 L 312.95508 166.10938 C 311.80862 166.97059 311.23437 168.21653 311.23438 169.8457 C 311.23439 171.41454 311.80863 172.91402 312.95508 174.3457 C 314.10154 175.77741 315.45852 176.68777 317.02734 177.07812 C 318.62634 177.44578 320.01476 177.21806 321.19141 176.39453 L 321.23633 176.36133 C 322.35268 175.46251 322.91021 174.22907 322.91016 172.66016 C 322.91014 171.09132 322.33787 169.58991 321.19141 168.1582 C 320.04496 166.72652 318.68602 165.81613 317.11719 165.42578 C 316.51756 165.26528 315.95005 165.196 315.41406 165.2168 z " id="path5035" style="opacity:1;fill:#000000;fill-opacity:1;fill-rule:nonzero;stroke:none;stroke-width:10.00063038;stroke-linecap:round;stroke-linejoin:round;stroke-miterlimit:10;stroke-dasharray:none;stroke-dashoffset:56.27999878;stroke-opacity:1" transform="matrix(0.26458333,0,0,0.26458333,437.68424,189.29752)"/><path d="M 214.24609 57.232422 L 135.51953 210.47461 L 214.24805 256.00391 L 292.97266 210.47461 L 214.24609 57.232422 z M 193.0918 146.08594 L 202.75586 146.08594 L 202.75586 194.59961 L 193.0918 194.59961 L 193.0918 155.81445 L 189.1875 155.81445 L 193.0918 146.08594 z M 222.67578 146.08594 C 224.80912 146.08594 226.81409 146.49205 228.69141 147.30273 C 230.61141 148.11339 232.27559 149.22286 233.68359 150.63086 C 235.09159 152.03886 236.20104 153.70305 237.01172 155.62305 C 237.82238 157.50039 238.22852 159.50536 238.22852 161.63867 L 238.22852 179.11133 C 238.22852 181.24467 237.82238 183.24961 237.01172 185.12695 C 236.20104 187.00427 235.09159 188.64669 233.68359 190.05469 C 232.27559 191.46269 230.61141 192.57213 228.69141 193.38281 C 226.81409 194.19347 224.80912 194.59961 222.67578 194.59961 C 220.54244 194.59961 218.53747 194.19347 216.66016 193.38281 C 214.78281 192.57213 213.14042 191.46269 211.73242 190.05469 C 210.32442 188.64669 209.21496 187.00427 208.4043 185.12695 C 207.59361 183.24961 207.1875 181.24467 207.1875 179.11133 L 207.1875 161.63867 C 207.1875 159.50536 207.59361 157.50039 208.4043 155.62305 C 209.21496 153.70305 210.32442 152.03886 211.73242 150.63086 C 213.14042 149.22286 214.78281 148.11339 216.66016 147.30273 C 218.53747 146.49205 220.54244 146.08594 222.67578 146.08594 z M 222.67578 155.81445 C 221.05444 155.81445 219.66764 156.39097 218.51562 157.54297 C 217.40631 158.65231 216.85156 160.01736 216.85156 161.63867 L 216.85156 179.11133 C 216.85156 180.73267 217.40631 182.11948 218.51562 183.27148 C 219.66764 184.38083 221.05444 184.93555 222.67578 184.93555 C 223.48644 184.93555 224.23333 184.78501 224.91602 184.48633 C 225.64133 184.18767 226.25948 183.78348 226.77148 183.27148 C 227.32617 182.71683 227.75212 182.09675 228.05078 181.41406 C 228.34944 180.68875 228.5 179.92201 228.5 179.11133 L 228.5 161.63867 C 228.5 160.82801 228.34944 160.0811 228.05078 159.39844 C 227.75212 158.6731 227.32617 158.05497 226.77148 157.54297 C 226.25948 156.98831 225.64133 156.56236 224.91602 156.26367 C 224.23333 155.96501 223.48644 155.81445 222.67578 155.81445 z " id="path5052" style="opacity:1;fill:#000000;fill-opacity:1;fill-rule:nonzero;stroke:none;stroke-width:10.00063038;stroke-linecap:round;stroke-linejoin:round;stroke-miterlimit:10;stroke-dasharray:none;stroke-dashoffset:56.27999878;stroke-opacity:1" transform="matrix(0.26458333,0,0,0.26458333,437.68424,189.29752)"/><g aria-label="2" id="text5101" style="font-style:normal;font-variant:normal;font-weight:normal;font-stretch:normal;font-size:14.11111069px;line-height:125%;font-family:'Facile Sans';-inkscape-font-specification:'Facile Sans';letter-spacing:0px;word-spacing:0px;fill:#000000;fill-opacity:1;stroke:none;stroke-width:0.26458332px;stroke-linecap:butt;stroke-linejoin:miter;stroke-opacity:1" transform="matrix(0.65629945,0.50582258,-0.80909068,0.900113,0,0)"/><g aria-label="3" id="text5109" style="font-style:normal;font-variant:normal;font-weight:normal;font-stretch:normal;font-size:16.93333435px;line-height:125%;font-family:'Facile Sans';-inkscape-font-specification:'Facile Sans';letter-spacing:0px;word-spacing:0px;fill:#000000;fill-opacity:1;stroke:none;stroke-width:0.26458332px;stroke-linecap:butt;stroke-linejoin:miter;stroke-opacity:1" transform="matrix(-0.8660254,0.01306403,-0.5,-1.147158,0,0)"/><g aria-label="8" id="text5940" style="font-style:normal;font-variant:normal;font-weight:normal;font-stretch:normal;font-size:16.93333244px;line-height:125%;font-family:'Facile Sans';-inkscape-font-specification:'Facile Sans';letter-spacing:0px;word-spacing:0px;fill:#000000;fill-opacity:1;stroke:none;stroke-width:0.26458332px;stroke-linecap:butt;stroke-linejoin:miter;stroke-opacity:1" transform="matrix(0.70710678,-0.53117455,0.70710678,0.88303901,0,0)"/><g aria-label="7" id="text5944" style="font-style:normal;font-variant:normal;font-weight:normal;font-stretch:normal;font-size:16.93333244px;line-height:125%;font-family:'Facile Sans';-inkscape-font-specification:'Facile Sans';letter-spacing:0px;word-spacing:0px;fill:#000000;fill-opacity:1;stroke:none;stroke-width:0.26458332px;stroke-linecap:butt;stroke-linejoin:miter;stroke-opacity:1" transform="matrix(-0.93849661,0.04513127,0.2239525,-1.0763036,0,0)"/><g aria-label="10" id="text5948" style="font-style:normal;font-variant:normal;font-weight:normal;font-stretch:normal;font-size:16.93333244px;line-height:125%;font-family:'Facile Sans';-inkscape-font-specification:'Facile Sans';letter-spacing:0px;word-spacing:0px;fill:#000000;fill-opacity:1;stroke:none;stroke-width:0.26458332px;stroke-linecap:butt;stroke-linejoin:miter;stroke-opacity:1"/></g></g></svg>