<?xml version="1.0" ?><svg height="430" id="svg8" version="1.1" viewBox="0 0 113.77083 113.77083" width="430" xmlns="http://www.w3.org/2000/svg" xmlns:cc="http://creativecommons.org/ns#" xmlns:dc="http://purl.org/dc/elements/1.1/" xmlns:inkscape="http://www.inkscape.org/namespaces/inkscape" xmlns:rdf="http://www.w3.org/1999/02/22-rdf-syntax-ns#" xmlns:sodipodi="http://sodipodi.sourceforge.net/DTD/sodipodi-0.dtd" xmlns:svg="http://www.w3.org/2000/svg" xmlns:xlink="http://www.w3.org/1999/xlink"><defs id="defs2"><linearGradient id="linearGradient4610"><stop id="stop4606" offset="0" style="stop-color:#afe9dd;stop-opacity:1;"/><stop id="stop4608" offset="1" style="stop-color:#c8f0e8;stop-opacity:1"/></linearGradient><linearGradient id="linearGradient4602"><stop id="stop4598" offset="0" style="stop-color:#ffeda5;stop-opacity:1"/><stop id="stop4600" offset="1" style="stop-color:#ffe680;stop-opacity:1"/></linearGradient><linearGradient id="linearGradient4594"><stop id="stop4590" offset="0" style="stop-color:#fbcaa9;stop-opacity:1"/><stop id="stop4592" offset="1" style="stop-color:#fabe96;stop-opacity:1"/></linearGradient><linearGradient gradientUnits="userSpaceOnUse" id="linearGradient4649" x1="0.60742188" x2="83.857422" xlink:href="#linearGradient4594" y1="802.82617" y2="1026.5762"/><linearGradient gradientUnits="userSpaceOnUse" id="linearGradient4886" x1="350.87057" x2="190.0551" xlink:href="#linearGradient4602" y1="252.42262" y2="183.80746"/><linearGradient gradientTransform="matrix(3.7795279,0,0,3.7795279,-2113.0128,-716.80702)" gradientUnits="userSpaceOnUse" id="linearGradient5093" x1="616.72516" x2="618.34784" xlink:href="#linearGradient4602" y1="218.51381" y2="263.9736"/><linearGradient gradientTransform="matrix(3.7795278,0,0,3.7795278,-2113.0128,-716.80701)" gradientUnits="userSpaceOnUse" id="linearGradient5101" x1="590.63269" x2="604.65558" xlink:href="#linearGradient4610" y1="210.64246" y2="227.04662"/><linearGradient gradientTransform="matrix(3.7795278,0,0,3.7795278,-2113.0128,-716.80701)" gradientUnits="userSpaceOnUse" id="linearGradient5109" x1="630.4834" x2="642.90546" xlink:href="#linearGradient4594" y1="226.84019" y2="210.37166"/></defs><g id="layer1" style="fill:#000000" transform="translate(4.9329095,-186.81675)"><g id="g4740" style="fill:#000000" transform="translate(-94.666308,107.51176)"/><g id="g5645" style="fill:#000000" transform="translate(-545.48004,-4.4259296)"><path d="M 212.91602 53.634766 L 122.41406 83.560547 L 67.507812 159.96289 L 124.82617 168.77344 L 212.91602 106.48047 L 212.91602 53.634766 z M 136.32617 89.501953 C 138.07602 89.501935 139.78012 89.849055 141.43945 90.542969 C 143.12897 91.2067 144.63736 92.201816 145.96484 93.529297 C 147.0208 94.585249 147.88119 95.776035 148.54492 97.103516 C 149.17849 98.400797 149.60132 99.759744 149.8125 101.17773 C 151.86406 101.11739 153.871 101.46449 155.83203 102.21875 C 157.79308 102.97299 159.57286 104.14904 161.17188 105.74805 C 162.68038 107.25655 163.81021 108.96064 164.56445 110.86133 C 165.31869 112.76205 165.69727 114.70801 165.69727 116.69922 C 165.69727 118.69043 165.31869 120.63642 164.56445 122.53711 C 163.81021 124.43783 162.68036 126.14191 161.17188 127.65039 C 159.36168 129.46058 157.36952 130.93948 155.19727 132.08594 C 153.02503 133.17205 150.76341 133.92724 148.41016 134.34961 L 144.60742 125.02539 C 146.38745 124.99523 148.10824 124.63337 149.76758 123.93945 C 151.4571 123.21536 152.98025 122.176 154.33789 120.81836 C 155.48433 119.67192 156.05662 118.31297 156.05664 116.74414 C 156.05664 115.11497 155.48435 113.72849 154.33789 112.58203 C 153.76467 112.00881 153.13141 111.586 152.4375 111.31445 C 151.71342 111.01278 150.97299 110.87609 150.21875 110.90625 C 149.46449 110.87607 148.72603 111.01274 148.00195 111.31445 C 147.30806 111.58598 146.67478 112.00881 146.10156 112.58203 L 144.74414 113.93945 L 137.86523 107.06055 L 139.22266 105.70312 C 139.91662 104.94894 140.26374 104.05903 140.26367 103.0332 C 140.23351 101.97725 139.85689 101.08736 139.13281 100.36328 C 138.34839 99.578858 137.42703 99.200287 136.37109 99.230469 C 135.31514 99.200305 134.39573 99.578876 133.61133 100.36328 C 132.85707 101.11754 132.48047 102.03693 132.48047 103.12305 C 132.45029 104.17898 132.82691 105.09839 133.61133 105.88281 L 123.06641 105.83789 C 122.61384 103.63549 122.68955 101.44762 123.29297 99.275391 C 123.89635 97.103159 125.0429 95.173895 126.73242 93.484375 C 128.05989 92.156912 129.55353 91.176536 131.21289 90.542969 C 132.87223 89.849055 134.57632 89.501935 136.32617 89.501953 z " id="path5287" style="opacity:1;fill:#000000;fill-opacity:1;fill-rule:nonzero;stroke:none;stroke-width:10.00062943;stroke-linecap:round;stroke-linejoin:round;stroke-miterlimit:10;stroke-dasharray:none;stroke-dashoffset:56.27999878;stroke-opacity:1" transform="matrix(0.26458333,0,0,0.26458333,540.54713,191.24268)"/><path d="M 222.91797 53.560547 L 222.91797 106.40625 L 313.21875 167.12891 L 369.54297 158.47461 L 313.79688 82.570312 L 222.91797 53.560547 z M 301.75391 89.410156 C 303.50375 89.410138 305.20783 89.72776 306.86719 90.361328 C 308.55669 91.025078 310.0651 92.020175 311.39258 93.347656 C 312.72004 94.67512 313.7004 96.168787 314.33398 97.828125 C 314.99772 99.517645 315.33008 101.23842 315.33008 102.98828 C 315.33008 104.73811 314.98296 106.44221 314.28906 108.10156 C 313.65548 109.7609 312.67514 111.25455 311.34766 112.58203 C 310.26154 113.66815 309.03929 114.52659 307.68164 115.16016 C 306.35418 115.82391 304.99718 116.24673 303.60938 116.42773 C 303.63954 118.44911 303.27768 120.44129 302.52344 122.40234 C 301.7692 124.36339 300.60791 126.12842 299.03906 127.69727 C 297.53058 129.20575 295.82455 130.3356 293.92383 131.08984 C 292.02313 131.8441 290.0791 132.22266 288.08789 132.22266 C 286.09668 132.22266 284.1507 131.8441 282.25 131.08984 C 280.34931 130.3356 278.64327 129.20577 277.13477 127.69727 L 277.08984 127.65039 C 275.58134 126.14189 274.44957 124.43781 273.69531 122.53711 C 272.94107 120.63642 272.56445 118.69043 272.56445 116.69922 C 272.56445 114.70801 272.94107 112.76205 273.69531 110.86133 C 274.44957 108.96063 275.58136 107.25653 277.08984 105.74805 C 278.65869 104.1792 280.40898 103.00317 282.33984 102.21875 C 284.30089 101.46451 286.30782 101.11739 288.35938 101.17773 C 288.54038 99.789925 288.94651 98.416239 289.58008 97.058594 C 290.21365 95.700949 291.07404 94.478694 292.16016 93.392578 C 293.48764 92.065097 294.96653 91.069999 296.5957 90.40625 C 298.28522 89.742518 300.00406 89.410138 301.75391 89.410156 z M 301.75391 99.095703 C 300.72814 99.095721 299.82349 99.487061 299.03906 100.27148 C 298.28482 101.02573 297.89151 101.93039 297.86133 102.98633 C 297.89149 104.04228 298.2848 104.94887 299.03906 105.70312 L 299.08398 105.74805 C 299.83823 106.50229 300.72812 106.87891 301.75391 106.87891 C 302.84002 106.87891 303.75943 106.50229 304.51367 105.74805 C 305.29809 104.96362 305.67665 104.04228 305.64648 102.98633 C 305.67665 101.93038 305.29808 101.01097 304.51367 100.22656 C 303.75941 99.472303 302.84002 99.095703 301.75391 99.095703 z M 287.99609 110.86133 C 286.42725 110.86133 285.07029 111.43557 283.92383 112.58203 C 282.77738 113.72848 282.20312 115.08545 282.20312 116.6543 C 282.23329 118.25331 282.80753 119.64173 283.92383 120.81836 L 283.96875 120.86328 C 285.14532 121.97963 286.51901 122.53718 288.08789 122.53711 C 289.65674 122.53711 291.01371 121.9648 292.16016 120.81836 C 293.30662 119.6719 293.87891 118.31299 293.87891 116.74414 C 293.90909 115.14515 293.35154 113.77341 292.20508 112.62695 L 292.16016 112.58203 C 291.01369 111.43557 289.62527 110.86133 287.99609 110.86133 z " id="path5290" style="opacity:1;fill:#000000;fill-opacity:1;fill-rule:nonzero;stroke:none;stroke-width:10.00062943;stroke-linecap:round;stroke-linejoin:round;stroke-miterlimit:10;stroke-dasharray:none;stroke-dashoffset:56.27999878;stroke-opacity:1" transform="matrix(0.26458333,0,0,0.26458333,540.54713,191.24268)"/><path d="M 217.98828 115.14648 L 144.5293 167.08984 L 131.92578 176.00195 L 162.67969 273.69336 L 275.71484 273.42383 L 306.17773 174.44922 L 217.98828 115.14648 z M 199.91016 175.28906 L 209.57422 175.28906 L 209.57422 223.80078 L 199.91016 223.80078 L 199.91016 185.01758 L 196.00586 185.01758 L 199.91016 175.28906 z M 226.61523 175.28906 C 228.74855 175.28906 230.75352 175.69518 232.63086 176.50586 C 234.5082 177.31652 236.15059 178.42598 237.55859 179.83398 C 238.96659 181.24198 240.07606 182.90617 240.88672 184.82617 C 241.69738 186.70351 242.10352 188.70848 242.10352 190.8418 C 242.10352 192.93248 241.71917 194.89386 240.95117 196.72852 C 240.22586 198.56317 239.17979 200.16396 237.81445 201.5293 C 237.04645 202.33996 236.19256 203.06508 235.25391 203.70508 C 234.10191 204.47308 232.84386 205.19818 231.47852 205.88086 C 230.15586 206.56352 228.89782 207.28864 227.70312 208.05664 C 226.55112 208.82464 225.59027 209.7003 224.82227 210.68164 C 224.05427 211.6203 223.66992 212.77138 223.66992 214.13672 L 242.10352 214.13672 L 242.10352 223.80078 L 214.00586 223.80078 L 214.00586 214.13672 C 214.00586 211.74738 214.54076 209.42345 215.60742 207.16211 C 216.24742 205.96745 216.97252 204.8996 217.7832 203.96094 C 218.59386 202.9796 219.48936 202.10589 220.4707 201.33789 C 221.45202 200.56989 222.47629 199.86461 223.54297 199.22461 C 224.65229 198.58461 225.78355 197.94469 226.93555 197.30469 C 227.78889 196.83535 228.61903 196.3876 229.42969 195.96094 C 230.24037 195.4916 230.92386 194.85167 231.47852 194.04102 C 232.11852 193.05967 232.43945 191.9938 232.43945 190.8418 C 232.43945 189.22048 231.86294 187.85544 230.71094 186.74609 C 229.6016 185.59409 228.23655 185.01758 226.61523 185.01758 C 225.33523 185.01758 224.204 185.38013 223.22266 186.10547 C 222.24131 186.83079 221.53799 187.76986 221.11133 188.92188 L 214.00586 181.75391 C 215.41386 179.79125 217.20681 178.23403 219.38281 177.08203 C 221.60147 175.88735 224.01255 175.28906 226.61523 175.28906 z " id="path5295" style="opacity:1;fill:#000000;fill-opacity:1;fill-rule:nonzero;stroke:none;stroke-width:10.00062943;stroke-linecap:round;stroke-linejoin:round;stroke-miterlimit:10;stroke-dasharray:none;stroke-dashoffset:56.27999878;stroke-opacity:1" transform="matrix(0.26458333,0,0,0.26458333,540.54713,191.24268)"/><path d="M 373.37695 168.00391 L 349.99219 171.59766 L 315.9082 176.83789 L 284.80859 277.88086 L 316.83984 337.07227 L 318.35156 339.86719 L 373.87891 264.25391 L 373.37695 168.00391 z M 324.43359 231.36133 L 353.03906 261.85156 L 359.61328 247.6875 L 368.4375 251.7832 L 355.80078 279.00977 L 320.04102 240.82422 L 324.43359 231.36133 z " id="path5293" style="opacity:1;fill:#000000;fill-opacity:1;fill-rule:nonzero;stroke:none;stroke-width:10.00062943;stroke-linecap:round;stroke-linejoin:round;stroke-miterlimit:10;stroke-dasharray:none;stroke-dashoffset:56.27999878;stroke-opacity:1" transform="matrix(0.26458333,0,0,0.26458333,540.54713,191.24268)"/><path d="M 63.712891 169.5 L 64.214844 265.88477 L 120.01367 341.85742 L 152.35547 280.60352 L 153.61719 278.21289 L 122.22266 178.49023 L 63.712891 169.5 z M 112.14258 232.72852 L 115.46484 241.80469 L 79.044922 255.13477 L 80.386719 258.80078 L 69.908203 258.47852 L 66.587891 249.4043 L 112.14258 232.72852 z M 118.33008 249.63281 L 121.65234 258.70703 L 85.230469 272.03906 L 86.574219 275.70508 L 76.095703 275.38281 L 72.773438 266.30664 L 118.33008 249.63281 z " id="path5281" style="opacity:1;fill:#000000;fill-opacity:1;fill-rule:nonzero;stroke:none;stroke-width:10.00062943;stroke-linecap:round;stroke-linejoin:round;stroke-miterlimit:10;stroke-dasharray:none;stroke-dashoffset:56.27999878;stroke-opacity:1" transform="matrix(0.26458333,0,0,0.26458333,540.54713,191.24268)"/><path d="M 276.43555 283.42578 L 162.0332 283.69727 L 127.92188 348.30469 L 219.62695 377.57422 L 311.0293 347.35156 L 287.66211 304.16602 L 276.43555 283.42578 z M 220.09766 306.36914 L 231.16992 306.36914 L 221.44141 323.96875 C 223.36141 324.18217 225.13256 324.73689 226.75391 325.63281 C 228.41791 326.52881 229.84831 327.66007 231.04297 329.02539 C 232.28031 330.39073 233.23922 331.96777 233.92188 333.75977 C 234.64722 335.50911 235.00977 337.36547 235.00977 339.32812 C 235.00977 341.46147 234.60558 343.4882 233.79492 345.4082 C 232.98424 347.28552 231.8748 348.92794 230.4668 350.33594 C 229.0588 351.74394 227.41443 352.85338 225.53711 353.66406 C 223.65977 354.47472 221.65483 354.88086 219.52148 354.88086 C 217.38817 354.88086 215.3832 354.47472 213.50586 353.66406 C 211.62852 352.85338 209.98613 351.74394 208.57812 350.33594 C 207.17012 348.92794 206.03886 347.28552 205.18555 345.4082 C 204.37486 343.53086 203.9707 341.52592 203.9707 339.39258 L 203.9707 339.32812 C 203.9707 337.23747 204.35309 335.36127 205.12109 333.69727 C 205.93178 332.03327 206.82923 330.32551 207.81055 328.57617 L 220.09766 306.36914 z M 219.52148 333.50391 C 218.71083 333.50391 217.94409 333.65447 217.21875 333.95312 C 216.53609 334.25178 215.91599 334.67774 215.36133 335.23242 C 214.84933 335.74442 214.44517 336.36257 214.14648 337.08789 C 213.84783 337.77057 213.69727 338.51747 213.69727 339.32812 L 213.69727 339.39258 C 213.69727 341.01392 214.25199 342.37894 215.36133 343.48828 C 216.51333 344.5976 217.90017 345.15234 219.52148 345.15234 C 221.14283 345.15234 222.50785 344.5976 223.61719 343.48828 C 224.76919 342.33628 225.3457 340.94947 225.3457 339.32812 C 225.3457 337.70678 224.76919 336.34174 223.61719 335.23242 C 222.50785 334.08042 221.14283 333.50391 219.52148 333.50391 z " id="path5261" style="opacity:1;fill:#000000;fill-opacity:1;fill-rule:nonzero;stroke:none;stroke-width:10.00062943;stroke-linecap:round;stroke-linejoin:round;stroke-miterlimit:10;stroke-dasharray:none;stroke-dashoffset:56.27999878;stroke-opacity:1" transform="matrix(0.26458333,0,0,0.26458333,540.54713,191.24268)"/><g aria-label="12" id="text4915" style="font-style:normal;font-variant:normal;font-weight:normal;font-stretch:normal;font-size:16.93333244px;line-height:125%;font-family:'Facile Sans';-inkscape-font-specification:'Facile Sans';letter-spacing:0px;word-spacing:0px;fill:#000000;fill-opacity:1;stroke:none;stroke-width:0.26458332px;stroke-linecap:butt;stroke-linejoin:miter;stroke-opacity:1" transform="translate(-18.520834,3.0842094)"/><g aria-label="3" id="text4919" style="font-style:normal;font-variant:normal;font-weight:normal;font-stretch:normal;font-size:16.93333244px;line-height:125%;font-family:'Facile Sans';-inkscape-font-specification:'Facile Sans';letter-spacing:0px;word-spacing:0px;fill:#000000;fill-opacity:1;stroke:none;stroke-width:0.26458332px;stroke-linecap:butt;stroke-linejoin:miter;stroke-opacity:1" transform="rotate(-45,-7.344135,23.150374)"/><g aria-label="11" id="text4923" style="font-style:normal;font-variant:normal;font-weight:normal;font-stretch:normal;font-size:16.93333244px;line-height:125%;font-family:'Facile Sans';-inkscape-font-specification:'Facile Sans';letter-spacing:0px;word-spacing:0px;fill:#000000;fill-opacity:1;stroke:none;stroke-width:0.26458332px;stroke-linecap:butt;stroke-linejoin:miter;stroke-opacity:1" transform="rotate(-110.10475,-8.7057079,7.2653564)"/><g aria-label="6" id="text4927" style="font-style:normal;font-variant:normal;font-weight:normal;font-stretch:normal;font-size:16.93333244px;line-height:125%;font-family:'Facile Sans';-inkscape-font-specification:'Facile Sans';letter-spacing:0px;word-spacing:0px;fill:#000000;fill-opacity:1;stroke:none;stroke-width:0.26458332px;stroke-linecap:butt;stroke-linejoin:miter;stroke-opacity:1" transform="translate(-18.520834,1.5875)"/><g aria-label="8" id="text4939" style="font-style:normal;font-variant:normal;font-weight:normal;font-stretch:normal;font-size:16.93333244px;line-height:125%;font-family:'Facile Sans';-inkscape-font-specification:'Facile Sans';letter-spacing:0px;word-spacing:0px;fill:#000000;fill-opacity:1;stroke:none;stroke-width:0.26458332px;stroke-linecap:butt;stroke-linejoin:miter;stroke-opacity:1" transform="rotate(45,-11.176699,-21.562874)"/><g aria-label="7" id="text4943" style="font-style:normal;font-variant:normal;font-weight:normal;font-stretch:normal;font-size:16.93333244px;line-height:125%;font-family:'Facile Sans';-inkscape-font-specification:'Facile Sans';letter-spacing:0px;word-spacing:0px;fill:#000000;fill-opacity:1;stroke:none;stroke-width:0.26458332px;stroke-linecap:butt;stroke-linejoin:miter;stroke-opacity:1" transform="rotate(114.89525,-9.7671122,-5.1176939)"/></g></g></svg>