<?xml version="1.0" ?><svg height="430" id="svg8" version="1.1" viewBox="0 0 113.77083 113.77083" width="430" xmlns="http://www.w3.org/2000/svg" xmlns:cc="http://creativecommons.org/ns#" xmlns:dc="http://purl.org/dc/elements/1.1/" xmlns:inkscape="http://www.inkscape.org/namespaces/inkscape" xmlns:rdf="http://www.w3.org/1999/02/22-rdf-syntax-ns#" xmlns:sodipodi="http://sodipodi.sourceforge.net/DTD/sodipodi-0.dtd" xmlns:svg="http://www.w3.org/2000/svg" xmlns:xlink="http://www.w3.org/1999/xlink"><defs id="defs2"><linearGradient id="linearGradient4610"><stop id="stop4606" offset="0" style="stop-color:#afe9dd;stop-opacity:1;"/><stop id="stop4608" offset="1" style="stop-color:#c8f0e8;stop-opacity:1"/></linearGradient><linearGradient id="linearGradient4602"><stop id="stop4598" offset="0" style="stop-color:#ffeda5;stop-opacity:1"/><stop id="stop4600" offset="1" style="stop-color:#ffe680;stop-opacity:1"/></linearGradient><linearGradient id="linearGradient4594"><stop id="stop4590" offset="0" style="stop-color:#fbcaa9;stop-opacity:1"/><stop id="stop4592" offset="1" style="stop-color:#fabe96;stop-opacity:1"/></linearGradient><linearGradient gradientUnits="userSpaceOnUse" id="linearGradient4649" x1="0.60742188" x2="83.857422" xlink:href="#linearGradient4594" y1="802.82617" y2="1026.5762"/><linearGradient gradientUnits="userSpaceOnUse" id="linearGradient4886" x1="350.87057" x2="190.0551" xlink:href="#linearGradient4602" y1="252.42262" y2="183.80746"/><linearGradient gradientUnits="userSpaceOnUse" id="linearGradient5434" x1="694.0824" x2="712.64075" xlink:href="#linearGradient4610" y1="211.78633" y2="222.06654"/><linearGradient gradientUnits="userSpaceOnUse" id="linearGradient5442" x1="713.96326" x2="733.09576" xlink:href="#linearGradient4594" y1="223.3652" y2="211.78633"/><linearGradient gradientTransform="translate(-0.97007079)" gradientUnits="userSpaceOnUse" id="linearGradient5450" x1="713.96326" x2="714.97296" xlink:href="#linearGradient4602" y1="223.3652" y2="265.39816"/><linearGradient gradientUnits="userSpaceOnUse" id="linearGradient5458" x1="686.38702" x2="692.26099" xlink:href="#linearGradient4610" y1="266.27158" y2="224.23865"/><linearGradient gradientUnits="userSpaceOnUse" id="linearGradient5466" x1="741.53955" x2="736.83752" xlink:href="#linearGradient4594" y1="266.27158" y2="222.74194"/></defs><g id="layer1" transform="translate(4.4844631,-185.47141)"><g id="g4740" transform="translate(-94.666308,107.51176)"/><g id="g6595" transform="translate(-661.14835,-3.0576177)"><path d="M 211.56641 55.660156 L 84.339844 129.10352 L 211.56641 126.75586 L 211.56641 55.660156 z M 221.56836 55.660156 L 221.56836 126.75586 L 348.79492 129.10352 L 221.56836 55.660156 z M 232.4082 79.455078 L 240.16992 79.75 L 256.29297 119.54688 L 248.53125 119.25195 L 235.64258 87.435547 L 232.50586 87.318359 L 232.4082 79.455078 z M 192.50781 79.675781 C 193.50984 79.734125 194.38594 79.991974 195.13867 80.451172 C 196.1713 81.06145 196.93118 81.943155 197.41797 83.09375 C 197.90391 84.244339 198.10335 85.630708 198.01562 87.251953 C 197.94127 88.83628 197.54911 90.548844 196.83984 92.392578 L 191.03125 107.49414 C 190.32198 109.33787 189.38098 111.08938 188.20703 112.75 C 187.0331 114.41062 185.73359 115.88286 184.31055 117.16602 C 182.88756 118.44912 181.39005 119.48638 179.81836 120.27734 C 178.27564 121.06629 176.7808 121.51094 175.33398 121.61133 C 173.88716 121.71169 172.66187 121.45599 171.6582 120.84375 C 170.65452 120.23146 169.91062 119.34981 169.42383 118.19922 C 168.93788 117.04863 168.73114 115.68006 168.80469 114.0957 C 168.87904 112.51138 169.2712 110.79686 169.98047 108.95312 L 175.78906 93.853516 C 176.49833 92.009782 177.43931 90.2583 178.61328 88.597656 C 179.80142 86.900175 181.10824 85.410112 182.53125 84.126953 C 183.95423 82.843844 185.43576 81.80655 186.97852 81.017578 C 188.52123 80.22863 190.01608 79.783985 191.46289 79.683594 C 191.8246 79.658502 192.1738 79.656333 192.50781 79.675781 z M 253.85547 80.267578 C 255.56876 80.33246 257.31273 80.727079 259.08984 81.449219 C 260.86697 82.171334 262.55555 83.130265 264.1543 84.328125 C 265.75303 85.52601 267.19717 86.925689 268.48633 88.525391 C 269.76134 90.090113 270.75386 91.747976 271.46289 93.498047 C 272.15774 95.213113 272.50117 96.811265 272.49414 98.292969 C 272.52138 99.77597 272.21303 101.05626 271.57031 102.13477 C 271.22298 102.77645 270.77942 103.34532 270.23828 103.8418 C 269.56833 104.43677 268.79734 104.99321 267.92773 105.51172 C 267.09237 106.03149 266.32333 106.58794 265.61914 107.18164 C 264.94921 107.77662 264.46835 108.46637 264.17773 109.24805 C 263.87291 109.99472 263.94857 110.92684 264.40234 112.04688 L 279.20508 112.60742 L 282.41602 120.53516 L 259.85352 119.68164 L 256.64062 111.75391 C 255.84651 109.79383 255.50235 107.9027 255.60742 106.08008 C 255.72436 105.1195 255.95195 104.26491 256.29102 103.51953 C 256.61593 102.73915 257.04528 102.04939 257.57812 101.44922 C 258.11099 100.84903 258.6998 100.30313 259.34375 99.810547 C 260.02195 99.319287 260.71723 98.827878 261.42969 98.337891 C 261.95901 97.978814 262.47706 97.637843 262.98633 97.3125 C 263.48138 96.952125 263.81812 96.446977 263.99414 95.798828 C 264.18197 95.013254 264.08405 94.148158 263.70117 93.203125 C 263.16231 91.873063 262.24504 90.73608 260.95117 89.791016 C 259.67737 88.812243 258.38998 88.297357 257.08789 88.248047 C 256.05991 88.209117 255.27167 88.471947 254.72461 89.037109 C 254.17759 89.602298 253.92464 90.351147 253.96484 91.283203 L 245.87695 85.1875 C 246.35541 83.620271 247.2779 82.396457 248.64258 81.517578 C 250.02733 80.605017 251.76524 80.188421 253.85547 80.267578 z M 177.95312 80.621094 L 161.82422 122.54883 L 155.27148 123.00195 L 168.16602 89.484375 L 165.51758 89.667969 L 171.40039 81.076172 L 177.95312 80.621094 z M 188.62305 88.087891 C 188.49724 88.080947 188.36595 88.082219 188.22852 88.091797 C 187.12897 88.168167 185.99829 88.73149 184.83398 89.78125 C 183.7128 90.792186 182.88278 91.999152 182.34375 93.400391 L 176.5332 108.5 C 175.99417 109.90124 175.90997 111.07222 176.2793 112.01562 C 176.69178 112.92016 177.4473 113.33411 178.54688 113.25781 C 179.09669 113.21976 179.65265 113.05589 180.21484 112.76562 C 180.80605 112.47346 181.36142 112.09365 181.87891 111.62695 C 182.43949 111.12151 182.93376 110.56695 183.36328 109.96289 C 183.80694 109.32197 184.16409 108.65178 184.43359 107.95117 L 190.24219 92.851562 C 190.5117 92.150956 190.65911 91.511503 190.68359 90.935547 C 190.72228 90.32273 190.63768 89.808993 190.43164 89.392578 C 190.26948 88.937368 189.9929 88.597073 189.59961 88.373047 C 189.32679 88.203516 189.00047 88.108722 188.62305 88.087891 z M 225.83008 136.83398 L 319.09766 281.95117 L 338.45703 216.70703 L 361.4082 139.34961 L 273.81055 137.72266 L 225.83008 136.83398 z M 207.29492 136.83594 L 149.07031 137.91406 L 71.71875 139.34961 L 84.470703 182.32227 L 114.03516 281.93945 L 207.29492 136.83594 z M 216.56445 140.91406 L 173.69141 207.61914 L 121.49609 288.83203 L 311.63086 288.83203 L 216.56445 140.91406 z M 122.7832 162.87109 C 124.53309 162.87116 126.23719 163.21829 127.89648 163.91211 C 129.55585 164.54567 131.0495 165.52604 132.37695 166.85352 C 133.46308 167.93963 134.32152 169.16188 134.95508 170.51953 C 135.61881 171.84699 136.04164 173.20397 136.22266 174.5918 C 138.24409 174.56171 140.23629 174.92359 142.19727 175.67773 C 144.15833 176.43198 145.92337 177.59329 147.49219 179.16211 C 149.00069 180.6706 150.13051 182.37467 150.88477 184.27539 C 151.63999 186.17613 152.01859 188.12211 152.01758 190.11328 C 152.01757 192.10449 151.63898 194.05046 150.88477 195.95117 C 150.1305 197.85188 149.00068 199.55789 147.49219 201.06641 L 147.44531 201.11133 C 145.93682 202.61984 144.23273 203.75162 142.33203 204.50586 C 140.43131 205.2601 138.48536 205.63672 136.49414 205.63672 C 134.50288 205.63661 132.55688 205.25999 130.65625 204.50586 C 128.75552 203.75162 127.05145 202.61982 125.54297 201.11133 C 123.97412 199.54248 122.79808 197.7922 122.01367 195.86133 C 121.2595 193.90031 120.91238 191.89336 120.97266 189.8418 C 119.58487 189.66087 118.21121 189.25475 116.85352 188.62109 C 115.49588 187.98752 114.27363 187.12713 113.1875 186.04102 C 111.86005 184.71354 110.86491 183.23465 110.20117 181.60547 C 109.53646 179.91593 109.2041 178.19708 109.20508 176.44727 C 109.2051 174.69741 109.52271 172.99331 110.15625 171.33398 C 110.82001 169.64447 111.8151 168.13608 113.14258 166.80859 C 114.47006 165.48113 115.96372 164.49881 117.62305 163.86523 C 119.31255 163.2015 121.03333 162.87108 122.7832 162.87109 z M 310.70312 168.68555 C 313.10689 168.92365 315.35187 169.69748 317.4375 171.00586 C 319.58145 172.32997 321.30414 174.11908 322.60547 176.37305 C 323.67215 178.22058 324.32396 180.15833 324.56055 182.18945 C 324.79716 184.22063 324.65794 186.19772 324.14258 188.12109 C 323.62721 190.04444 322.73988 191.83794 321.48242 193.5 C 320.26197 195.14074 318.72838 196.49388 316.88086 197.56055 C 315.07029 198.60587 313.17797 199.25559 311.20508 199.50781 C 309.25356 199.79698 307.34554 199.69107 305.48047 199.19141 C 304.39446 198.9317 303.34003 198.55549 302.31641 198.0625 C 301.0753 197.44885 299.81683 196.72196 298.54297 195.88086 C 297.2904 195.07675 296.03392 194.34981 294.77148 193.69922 C 293.53039 193.08554 292.29245 192.69006 291.05859 192.51562 C 289.86172 192.31994 288.67269 192.56353 287.49023 193.24609 L 296.70508 209.20898 L 288.33594 214.04102 L 274.28906 189.70898 L 282.6582 184.87695 C 284.72743 183.6823 287.00827 182.98227 289.5 182.77539 C 290.85455 182.73218 292.13912 182.82767 293.35742 183.06055 C 294.61267 183.27208 295.81889 183.61045 296.97461 184.07617 C 298.13039 184.54205 299.25227 185.07595 300.33984 185.67969 C 301.44879 186.32042 302.56896 186.98055 303.69922 187.6582 C 304.53232 188.16252 305.33648 188.65774 306.11133 189.14648 C 306.92311 189.61386 307.81748 189.88592 308.79688 189.96094 C 309.96711 190.02547 311.05155 189.76835 312.04883 189.19141 C 313.45296 188.38073 314.34772 187.20077 314.73242 185.64844 C 315.17541 184.11176 314.99036 182.64046 314.17969 181.23633 C 313.5396 180.12781 312.66169 179.33094 311.54297 178.84375 C 310.42414 178.35656 309.2579 178.21547 308.04688 178.42188 L 310.70312 168.68555 z M 70.054688 168.87695 L 70.054688 302.50391 L 106.16797 290.60156 L 70.054688 168.87695 z M 363.07227 168.9082 L 326.9668 290.60547 L 363.07227 302.50586 L 363.07227 168.9082 z M 122.7793 172.55469 C 121.72349 172.52481 120.80408 172.90142 120.01953 173.68555 C 119.26529 174.43977 118.88866 175.36115 118.88867 176.44727 C 118.88866 177.47307 119.28008 178.3777 120.06445 179.16211 C 120.8187 179.91637 121.72333 180.30773 122.7793 180.33789 C 123.8352 180.30763 124.74183 179.91628 125.49609 179.16211 L 125.54297 179.11719 C 126.29724 178.36292 126.67382 177.47302 126.67383 176.44727 C 126.67382 175.36115 126.29653 174.43983 125.54102 173.68555 C 124.75662 172.90114 123.83527 172.52453 122.7793 172.55469 z M 136.53906 184.32031 C 134.94003 184.29008 133.56832 184.84956 132.42188 185.99609 L 132.37695 186.04102 C 131.2305 187.18748 130.65625 188.57589 130.65625 190.20508 C 130.65626 191.7739 131.23038 193.1309 132.37695 194.27734 C 133.52341 195.42381 134.88039 195.99609 136.44922 195.99609 C 138.0482 195.96593 139.43662 195.39363 140.61328 194.27734 L 140.6582 194.23242 C 141.77455 193.05586 142.33207 191.68218 142.33203 190.11328 C 142.33202 188.54446 141.75986 187.18749 140.61328 186.04102 C 139.46684 184.89458 138.10788 184.32034 136.53906 184.32031 z M 197.4043 209.67969 C 199.53761 209.67961 201.54452 210.08574 203.42188 210.89648 C 205.2992 211.70715 206.94161 212.8166 208.34961 214.22461 C 209.75761 215.63262 210.86703 217.2968 211.67773 219.2168 C 212.4883 221.09413 212.8925 223.0991 212.89258 225.23242 C 212.89257 227.32309 212.50822 229.28643 211.74023 231.12109 C 211.01487 232.95575 209.97077 234.55457 208.60547 235.91992 C 207.83746 236.73058 206.98361 237.45571 206.04492 238.0957 C 204.89293 238.86372 203.63485 239.59075 202.26953 240.27344 C 200.94685 240.95609 199.68686 241.68123 198.49219 242.44922 C 197.3402 243.21723 196.38129 244.09094 195.61328 245.07227 C 194.84528 246.01094 194.46094 247.16397 194.46094 248.5293 L 212.89258 248.5293 L 212.89258 258.19336 L 184.79688 258.19336 L 184.79688 248.5293 C 184.79687 246.13994 185.32982 243.81406 186.39648 241.55273 C 187.03647 240.35806 187.76161 239.29216 188.57227 238.35352 C 189.38294 237.37216 190.28039 236.4965 191.26172 235.72852 C 192.24306 234.96051 193.26733 234.25718 194.33398 233.61719 C 195.44333 232.97717 196.57261 232.33726 197.72461 231.69727 C 198.57794 231.22793 199.41002 230.77822 200.2207 230.35156 C 201.03136 229.88222 201.71484 229.24229 202.26953 228.43164 C 202.90951 227.45029 203.2285 226.38442 203.22852 225.23242 C 203.2285 223.61109 202.65207 222.24605 201.5 221.13672 C 200.39063 219.98471 199.02562 219.4082 197.4043 219.4082 C 196.12431 219.40825 194.995 219.77079 194.01367 220.49609 C 193.03232 221.22139 192.32705 222.16049 191.90039 223.3125 L 184.79688 216.14453 C 186.20486 214.18186 187.99782 212.62465 190.17383 211.47266 C 192.39249 210.27798 194.80163 209.67968 197.4043 209.67969 z M 232.78516 209.67969 C 234.91847 209.67961 236.92344 210.08572 238.80078 210.89648 C 240.72078 211.70715 242.38498 212.81663 243.79297 214.22461 C 245.20097 215.63262 246.31039 217.2968 247.12109 219.2168 C 247.93166 221.09413 248.33781 223.0991 248.33789 225.23242 L 248.33789 242.70508 C 248.33788 244.83843 247.93175 246.84336 247.12109 248.7207 C 246.31042 250.59802 245.20098 252.24043 243.79297 253.64844 C 242.38496 255.05644 240.72078 256.16592 238.80078 256.97656 C 236.92348 257.78726 234.9185 258.19336 232.78516 258.19336 C 230.65185 258.19343 228.6469 257.78733 226.76953 256.97656 C 224.89218 256.1659 223.24978 255.05642 221.8418 253.64844 C 220.4338 252.24043 219.32432 250.59802 218.51367 248.7207 C 217.70311 246.84337 217.29699 244.83843 217.29688 242.70508 L 217.29688 225.23242 C 217.29687 223.0991 217.70299 221.09414 218.51367 219.2168 C 219.32434 217.2968 220.43381 215.63261 221.8418 214.22461 C 223.2498 212.81661 224.89218 211.70713 226.76953 210.89648 C 228.64683 210.08579 230.65179 209.67968 232.78516 209.67969 z M 232.78516 219.4082 C 231.16381 219.40821 229.777 219.98471 228.625 221.13672 C 227.51568 222.24605 226.96093 223.61109 226.96094 225.23242 L 226.96094 242.70508 C 226.96095 244.32641 227.51626 245.71325 228.625 246.86523 C 229.77699 247.97456 231.1638 248.52928 232.78516 248.5293 C 233.59584 248.52942 234.34079 248.37889 235.02344 248.08008 C 235.74875 247.78141 236.36887 247.37724 236.88086 246.86523 C 237.43557 246.3106 237.86152 245.69051 238.16016 245.00781 C 238.45882 244.28251 238.60741 243.51576 238.60742 242.70508 L 238.60742 225.23242 C 238.60742 224.42177 238.45879 223.67484 238.16016 222.99219 C 237.86133 222.26682 237.4354 221.64871 236.88086 221.13672 C 236.36888 220.58207 235.74877 220.15611 235.02344 219.85742 C 234.34075 219.55878 233.59579 219.4082 232.78516 219.4082 z M 124.50391 298.83008 L 216.56445 389.85547 L 223.70703 382.79297 L 308.62305 298.83008 L 124.50391 298.83008 z M 110.99609 299.53906 L 97.988281 303.82422 L 77.234375 310.66406 L 185.43555 373.13867 L 110.99609 299.53906 z M 322.13672 299.53906 L 247.6875 373.14453 L 355.9043 310.66992 L 341.82422 306.02734 L 322.13672 299.53906 z M 195.5332 303.67969 L 205.19727 303.67969 L 205.19727 315.32812 L 223.5 315.32812 L 223.5 324.22461 L 205.32422 352.19336 L 195.5332 352.19141 L 195.5332 324.99219 L 191.62891 324.99219 L 191.62891 315.32812 L 195.5332 315.32812 L 195.5332 303.67969 z M 227.93359 303.67969 L 237.5957 303.67969 L 237.5957 342.46484 L 241.5 342.46484 L 237.5957 352.19336 L 227.93359 352.19336 L 227.93359 303.67969 z M 205.19727 324.99219 L 205.19727 334.5918 L 211.4043 324.99219 L 205.19727 324.99219 z " id="path5365" style="opacity:1;fill:#000000;fill-opacity:1;fill-rule:nonzero;stroke:none;stroke-width:10.00063038;stroke-linecap:round;stroke-linejoin:round;stroke-miterlimit:10;stroke-dasharray:none;stroke-dashoffset:56.27999878;stroke-opacity:1" transform="matrix(0.26458333,0,0,0.26458333,656.66389,188.52903)"/><g aria-label="20" id="text5484" style="font-style:normal;font-variant:normal;font-weight:normal;font-stretch:normal;font-size:16.93333244px;line-height:125%;font-family:'Facile Sans';-inkscape-font-specification:'Facile Sans';letter-spacing:0px;word-spacing:0px;fill:#ac9393;fill-opacity:1;stroke:none;stroke-width:0.26458332px;stroke-linecap:butt;stroke-linejoin:miter;stroke-opacity:1"/><g aria-label="14" id="text5488" style="font-style:normal;font-variant:normal;font-weight:normal;font-stretch:normal;font-size:16.93333244px;line-height:125%;font-family:'Facile Sans';-inkscape-font-specification:'Facile Sans';letter-spacing:0px;word-spacing:0px;fill:#ac9393;fill-opacity:1;stroke:none;stroke-width:0.26458332px;stroke-linecap:butt;stroke-linejoin:miter;stroke-opacity:1" transform="scale(-1)"/><g aria-label="8" id="text5492" style="font-style:normal;font-variant:normal;font-weight:normal;font-stretch:normal;font-size:16.93333244px;line-height:125%;font-family:'Facile Sans';-inkscape-font-specification:'Facile Sans';letter-spacing:0px;word-spacing:0px;fill:#ac9393;fill-opacity:1;stroke:none;stroke-width:0.26458332px;stroke-linecap:butt;stroke-linejoin:miter;stroke-opacity:1" transform="rotate(-45)"/><g aria-label="2" id="text5496" style="font-style:normal;font-variant:normal;font-weight:normal;font-stretch:normal;font-size:16.93333244px;line-height:125%;font-family:'Facile Sans';-inkscape-font-specification:'Facile Sans';letter-spacing:0px;word-spacing:0px;fill:#ac9393;fill-opacity:1;stroke:none;stroke-width:0.26458332px;stroke-linecap:butt;stroke-linejoin:miter;stroke-opacity:1" transform="rotate(60)"/><g aria-label="10" id="text5500" style="font-style:normal;font-variant:normal;font-weight:normal;font-stretch:normal;font-size:12.78982925px;line-height:125%;font-family:'Facile Sans';-inkscape-font-specification:'Facile Sans';letter-spacing:0px;word-spacing:0px;fill:#ac9393;fill-opacity:1;stroke:none;stroke-width:0.26458332px;stroke-linecap:butt;stroke-linejoin:miter;stroke-opacity:1" transform="matrix(0.89790942,-0.06230228,-0.44018026,1.1442404,0,0)"/><g aria-label="12" id="text5504" style="font-style:normal;font-variant:normal;font-weight:normal;font-stretch:normal;font-size:13.63858509px;line-height:125%;font-family:'Facile Sans';-inkscape-font-specification:'Facile Sans';letter-spacing:0px;word-spacing:0px;fill:#ac9393;fill-opacity:1;stroke:none;stroke-width:0.26458332px;stroke-linecap:butt;stroke-linejoin:miter;stroke-opacity:1" transform="matrix(0.99711495,0.03776061,0.41264707,1.0185203,0,0)"/></g></g></svg>