<?xml version="1.0" ?><svg height="430" id="svg8" version="1.1" viewBox="0 0 113.77083 113.77083" width="430" xmlns="http://www.w3.org/2000/svg" xmlns:cc="http://creativecommons.org/ns#" xmlns:dc="http://purl.org/dc/elements/1.1/" xmlns:inkscape="http://www.inkscape.org/namespaces/inkscape" xmlns:rdf="http://www.w3.org/1999/02/22-rdf-syntax-ns#" xmlns:sodipodi="http://sodipodi.sourceforge.net/DTD/sodipodi-0.dtd" xmlns:svg="http://www.w3.org/2000/svg" xmlns:xlink="http://www.w3.org/1999/xlink"><defs id="defs2"><linearGradient id="linearGradient4610"><stop id="stop4606" offset="0" style="stop-color:#afe9dd;stop-opacity:1;"/><stop id="stop4608" offset="1" style="stop-color:#c8f0e8;stop-opacity:1"/></linearGradient><linearGradient id="linearGradient4602"><stop id="stop4598" offset="0" style="stop-color:#ffeda5;stop-opacity:1"/><stop id="stop4600" offset="1" style="stop-color:#ffe680;stop-opacity:1"/></linearGradient><linearGradient id="linearGradient4594"><stop id="stop4590" offset="0" style="stop-color:#fbcaa9;stop-opacity:1"/><stop id="stop4592" offset="1" style="stop-color:#fabe96;stop-opacity:1"/></linearGradient><linearGradient gradientUnits="userSpaceOnUse" id="linearGradient4649" x1="0.60742188" x2="83.857422" xlink:href="#linearGradient4594" y1="802.82617" y2="1026.5762"/><linearGradient gradientTransform="matrix(4.0648118,0,0,4.0648118,181.4538,-772.79351)" gradientUnits="userSpaceOnUse" id="linearGradient4817" x1="-10.747775" x2="17.511108" xlink:href="#linearGradient4610" y1="226.57681" y2="251.30618"/><linearGradient gradientTransform="matrix(4.0648118,0,0,4.0648118,181.4538,-772.79351)" gradientUnits="userSpaceOnUse" id="linearGradient4825" x1="19.785494" x2="32.689816" xlink:href="#linearGradient4602" y1="251.30734" y2="227.2083"/><linearGradient gradientTransform="matrix(4.0648118,0,0,4.0648118,181.4538,-772.79351)" gradientUnits="userSpaceOnUse" id="linearGradient4833" x1="17.51111" x2="27.868296" xlink:href="#linearGradient4594" y1="253.57996" y2="262.7074"/><linearGradient gradientUnits="userSpaceOnUse" id="linearGradient4886" x1="350.87057" x2="190.0551" xlink:href="#linearGradient4602" y1="252.42262" y2="183.80746"/></defs><g id="g4535"><g id="g4559" style="fill:#000000" transform="translate(5.3906903,5.0836049)"><path d="M 218.43359 62.095703 L 67.859375 212.66992 L 252.63281 248.71875 L 218.43359 62.095703 z M 177.97461 144.47656 C 178.90215 144.48594 179.82863 144.5834 180.75391 144.76953 C 182.77637 145.17637 184.54847 145.95986 186.07031 147.12109 C 187.59214 148.28235 188.79676 149.6958 189.68359 151.35938 C 190.57043 153.02295 191.09236 154.88249 191.25 156.93945 C 191.42122 158.95412 191.16706 161.01907 190.48828 163.13281 C 189.82308 165.20426 188.83528 167.07473 187.52344 168.74609 C 186.25205 170.42557 184.75224 171.81188 183.02344 172.9043 C 182.03742 173.56104 180.99781 174.11716 179.9043 174.57227 C 178.5678 175.11352 177.14245 175.5918 175.63086 176.00781 C 174.15972 176.43198 172.73632 176.9122 171.35938 177.44531 C 170.02288 177.98656 168.83524 178.6683 167.79492 179.49414 C 166.76817 180.27774 166.03598 181.34645 165.60156 182.69922 L 183.07617 186.21484 L 180.00195 195.78906 L 153.36523 190.43164 L 156.44141 180.85742 C 157.20163 178.49006 158.44699 176.28715 160.17773 174.25 C 161.16459 173.18837 162.19061 172.2696 163.25781 171.49414 C 164.33858 170.67644 165.46593 169.98005 166.64062 169.40625 C 167.81532 168.83245 169.01169 168.33109 170.22656 167.90039 C 171.48188 167.47783 172.75697 167.05896 174.05273 166.64453 C 175.01106 166.34224 175.94141 166.0572 176.8457 165.78906 C 177.76358 165.47863 178.61466 164.97478 179.39844 164.27734 C 180.31742 163.42707 180.95963 162.43048 181.32617 161.28906 C 181.84205 159.68262 181.73136 158.22116 180.99219 156.90234 C 180.30704 155.54937 179.19528 154.7174 177.6582 154.4082 C 176.44472 154.1641 175.25877 154.30834 174.09766 154.83984 C 172.93653 155.37137 171.97025 156.16651 171.19922 157.22656 L 166.74414 148.76953 C 168.70345 147.09339 170.89867 145.89245 173.32812 145.16602 C 174.8803 144.69066 176.42871 144.46094 177.97461 144.47656 z " id="rect4673" style="opacity:1;fill:#000000;fill-opacity:1;fill-rule:nonzero;stroke:none;stroke-width:10;stroke-linecap:round;stroke-linejoin:round;stroke-miterlimit:10;stroke-dasharray:none;stroke-dashoffset:56.27999878;stroke-opacity:1" transform="matrix(0.26458333,0,0,0.26458333,-5.3906903,-5.0836049)"/><path d="M 227.67773 62.107422 L 227.68359 62.142578 L 261.87891 248.72266 L 366.08398 212.67383 L 227.67773 62.107422 z M 280.39453 150.74023 C 281.72635 150.75007 283.02032 150.94312 284.27734 151.32031 C 285.95336 151.82321 287.48509 152.64558 288.875 153.78711 C 290.28225 154.87085 291.43231 156.23958 292.32227 157.89258 C 293.05041 159.24502 293.52163 160.66208 293.73828 162.14453 C 293.9925 163.60676 294.00673 165.02888 293.78125 166.41016 C 295.72602 166.96221 297.52987 167.88194 299.19141 169.16797 C 300.85294 170.454 302.20995 172.0738 303.26172 174.02734 C 304.27302 175.90572 304.8668 177.8631 305.04297 179.90039 C 305.21913 181.93768 305.0215 183.9092 304.44922 185.81641 C 303.87694 187.72361 302.9562 189.48025 301.6875 191.08398 C 300.41881 192.68772 298.84519 193.99455 296.9668 195.00586 L 296.91016 195.03516 C 295.03176 196.04646 293.07439 196.64024 291.03711 196.81641 C 288.99983 196.99257 287.02634 196.79493 285.11914 196.22266 C 283.21194 195.65038 281.45726 194.72964 279.85352 193.46094 C 278.24977 192.19224 276.94099 190.61861 275.92969 188.74023 C 274.87792 186.78669 274.25498 184.77407 274.05859 182.69922 C 273.89977 180.60414 274.1436 178.58242 274.79102 176.63477 C 273.51378 176.06254 272.31554 175.27828 271.19727 174.28125 C 270.07899 173.28422 269.15588 172.1083 268.42773 170.75586 C 267.53778 169.10286 267.00931 167.4016 266.8418 165.65039 C 266.69163 163.8414 266.86817 162.09789 267.37109 160.42188 C 267.874 158.74584 268.66822 157.20413 269.75195 155.79688 C 270.87327 154.36942 272.25912 153.21222 273.91211 152.32227 C 275.5651 151.43232 277.27741 150.92097 279.04883 150.79102 C 279.50108 150.75348 279.95059 150.73696 280.39453 150.74023 z M 280 160.41992 C 279.50513 160.4683 279.01182 160.62378 278.52344 160.88672 C 277.58424 161.39237 276.95864 162.16479 276.64648 163.20508 C 276.35168 164.18758 276.46826 165.16776 276.99414 166.14453 C 277.49979 167.08372 278.25314 167.72036 279.25586 168.05273 C 280.27593 168.32733 281.25611 168.21073 282.19531 167.70508 L 282.25195 167.67578 C 283.19115 167.17013 283.80871 166.42587 284.10352 165.44336 C 284.41567 164.40307 284.31815 163.41185 283.8125 162.47266 C 283.28662 161.49588 282.51421 160.87029 281.49414 160.5957 C 280.99278 160.42951 280.49487 160.37155 280 160.41992 z M 289.5957 175.53516 C 288.66624 175.52449 287.75552 175.75986 286.86328 176.24023 L 286.80664 176.27148 C 285.37906 177.04008 284.43112 178.20323 283.96289 179.76367 C 283.51201 181.26632 283.67086 182.73257 284.43945 184.16016 C 285.20804 185.58772 286.34305 186.52567 287.8457 186.97656 C 289.38592 187.40723 290.88032 187.25838 292.32812 186.52734 L 292.38477 186.49609 C 293.79216 185.69001 294.72103 184.53592 295.17188 183.0332 C 295.62276 181.53055 295.4639 180.06624 294.69531 178.63867 C 293.92672 177.21108 292.79171 176.27121 291.28906 175.82031 C 290.71799 175.63714 290.15338 175.54155 289.5957 175.53516 z " id="path4678" style="opacity:1;fill:#000000;fill-opacity:1;fill-rule:nonzero;stroke:none;stroke-width:10;stroke-linecap:round;stroke-linejoin:round;stroke-miterlimit:10;stroke-dasharray:none;stroke-dashoffset:56.27999878;stroke-opacity:1" transform="matrix(0.26458333,0,0,0.26458333,-5.3906903,-5.0836049)"/><path d="M 67.863281 221.91211 L 67.953125 222.00586 L 218.43359 372.48633 L 252.63281 257.96094 L 67.863281 221.91211 z M 167.36133 265.10352 C 167.72725 265.10262 168.10825 265.12498 168.50391 265.17383 C 170.40306 265.40832 172.35104 265.9786 174.34766 266.88477 C 176.32768 267.82769 178.28724 269.04063 180.22461 270.52148 L 180.59961 279.00781 C 179.21378 277.71144 177.78374 276.6604 176.30859 275.85742 C 174.80182 275.05057 173.33648 274.56064 171.91211 274.38477 C 170.70931 274.23625 169.89082 274.63823 169.45898 275.59375 C 169.01054 276.58602 169.07289 277.85533 169.64453 279.40039 C 169.93035 280.17291 170.30327 280.89825 170.76562 281.57617 C 171.24302 282.29476 171.77919 282.92419 172.37109 283.46289 C 172.94647 284.03835 173.55582 284.50051 174.19922 284.85156 C 174.81101 285.19883 175.41619 285.41012 176.01758 285.48438 L 177.44336 285.66016 L 180.87305 294.92969 L 179.44727 294.75391 C 178.70263 294.70074 178.19053 294.98652 177.9082 295.61133 C 177.64087 296.27674 177.68779 297.09839 178.04883 298.07422 C 178.43995 299.13135 179.04755 300.04117 179.87305 300.80273 C 180.6819 301.60103 181.49733 302.05073 182.32031 302.15234 C 183.11161 302.25005 183.65805 301.96814 183.95703 301.30664 C 184.27103 300.68577 184.23096 299.84619 183.83984 298.78906 L 191.98828 306.60547 C 191.73226 308.28114 191.07272 309.55624 190.00781 310.43359 C 188.94293 311.31095 187.52253 311.64074 185.75 311.42188 C 184.35729 311.24991 182.93314 310.744 181.47461 309.9043 C 179.99946 309.10132 178.58464 308.05418 177.23047 306.76172 C 175.87629 305.46926 174.6517 303.99786 173.55859 302.34961 C 172.43382 300.69747 171.54081 298.97847 170.87891 297.18945 C 170.3524 295.76638 170.01545 294.40425 169.86719 293.10547 C 169.734 291.84738 169.78094 290.70911 170.00781 289.68945 C 168.40356 288.21092 166.94671 286.51722 165.63672 284.60938 C 164.32674 282.70156 163.2719 280.67058 162.47461 278.51562 C 161.72245 276.48266 161.31637 274.60929 161.25586 272.89453 C 161.19535 271.17977 161.44016 269.71472 161.98828 268.50195 C 162.53637 267.28915 163.36381 266.38376 164.4707 265.7832 C 165.30087 265.33277 166.26356 265.10621 167.36133 265.10352 z " id="path4680" style="opacity:1;fill:#000000;fill-opacity:1;fill-rule:nonzero;stroke:none;stroke-width:10;stroke-linecap:round;stroke-linejoin:round;stroke-miterlimit:10;stroke-dasharray:none;stroke-dashoffset:56.27999878;stroke-opacity:1" transform="matrix(0.26458333,0,0,0.26458333,-5.3906903,-5.0836049)"/><path d="M 366.08398 221.91211 L 261.87891 257.96094 L 227.67969 372.47266 L 227.74414 372.40625 L 366.08398 221.91211 z M 288.91406 266.66016 C 289.77878 266.6846 290.59577 266.79454 291.36523 266.99219 C 292.85917 267.43171 294.13352 268.16595 295.18945 269.19531 L 289.43359 278.19727 C 288.85063 277.20647 288.03994 276.49197 287 276.05664 C 285.92804 275.62627 284.67236 275.52296 283.23242 275.74609 C 282.01646 275.93452 280.82233 276.60526 279.65234 277.75586 C 278.43736 278.95069 277.58385 280.29389 277.08984 281.78711 C 276.84283 282.53373 276.72609 283.20484 276.74219 283.79883 C 276.74528 284.43212 276.87685 284.95228 277.13672 285.35938 C 277.3517 285.81071 277.6857 286.13148 278.13867 286.32227 C 278.5597 286.51784 279.0756 286.56883 279.68359 286.47461 L 287.07422 285.32812 L 278.78711 310.37891 L 261.21875 313.10156 L 264.18359 304.14258 L 274.50391 302.54297 L 276.86328 295.41016 L 276.71875 295.43359 C 275.11881 295.68152 273.73908 295.54016 272.57812 295.01172 C 271.41716 294.48331 270.52148 293.65263 269.89453 292.51953 C 269.26759 291.3864 268.94288 289.98265 268.91992 288.30859 C 268.88394 286.67384 269.19177 284.87494 269.8418 282.91016 C 270.49181 280.9454 271.40594 279.0517 272.58594 277.22852 C 273.76592 275.40531 275.09902 273.7631 276.58398 272.30273 C 278.06895 270.84237 279.63995 269.63082 281.29492 268.66602 C 282.94988 267.70124 284.57584 267.09363 286.17578 266.8457 C 287.13575 266.69694 288.04934 266.63571 288.91406 266.66016 z " id="path4682" style="opacity:1;fill:#000000;fill-opacity:1;fill-rule:nonzero;stroke:none;stroke-width:10;stroke-linecap:round;stroke-linejoin:round;stroke-miterlimit:10;stroke-dasharray:none;stroke-dashoffset:56.27999878;stroke-opacity:1" transform="matrix(0.26458333,0,0,0.26458333,-5.3906903,-5.0836049)"/><g aria-label="8" id="text5977" style="font-style:normal;font-variant:normal;font-weight:normal;font-stretch:normal;font-size:16.93333244px;line-height:125%;font-family:'Facile Sans';-inkscape-font-specification:'Facile Sans';letter-spacing:0px;word-spacing:0px;fill:#000000;fill-opacity:1;stroke:none;stroke-width:0.26458332px;stroke-linecap:butt;stroke-linejoin:miter;stroke-opacity:1" transform="rotate(-28.297527,-365.35622,-176.93809)"/><g aria-label="5" id="text5981" style="font-style:normal;font-variant:normal;font-weight:normal;font-stretch:normal;font-size:13.70763397px;line-height:125%;font-family:'Facile Sans';-inkscape-font-specification:'Facile Sans';letter-spacing:0px;word-spacing:0px;fill:#000000;fill-opacity:1;stroke:none;stroke-width:0.26458332px;stroke-linecap:butt;stroke-linejoin:miter;stroke-opacity:1" transform="matrix(-0.92645909,0.1435665,0.37639551,-1.1377057,40.21667,-194.34168)"/><g aria-label="2" id="text5985" style="font-style:normal;font-variant:normal;font-weight:normal;font-stretch:normal;font-size:16.93333244px;line-height:125%;font-family:'Facile Sans';-inkscape-font-specification:'Facile Sans';letter-spacing:0px;word-spacing:0px;fill:#000000;fill-opacity:1;stroke:none;stroke-width:0.26458332px;stroke-linecap:butt;stroke-linejoin:miter;stroke-opacity:1" transform="matrix(0.94803115,0.19070647,-0.31817752,0.99081289,40.21667,-194.34168)"/><g aria-label="3" id="text5989" style="font-style:normal;font-variant:normal;font-weight:normal;font-stretch:normal;font-size:13.9086132px;line-height:125%;font-family:'Facile Sans';-inkscape-font-specification:'Facile Sans';letter-spacing:0px;word-spacing:0px;fill:#000000;fill-opacity:1;stroke:none;stroke-width:0.26458332px;stroke-linecap:butt;stroke-linejoin:miter;stroke-opacity:1" transform="matrix(-0.90318621,-0.11151941,-0.42924901,-1.1601922,40.21667,-194.34168)"/></g></g></svg>