<?xml version="1.0" ?><svg height="430" id="svg8" version="1.1" viewBox="0 0 113.77083 113.77083" width="430" xmlns="http://www.w3.org/2000/svg" xmlns:cc="http://creativecommons.org/ns#" xmlns:dc="http://purl.org/dc/elements/1.1/" xmlns:inkscape="http://www.inkscape.org/namespaces/inkscape" xmlns:rdf="http://www.w3.org/1999/02/22-rdf-syntax-ns#" xmlns:sodipodi="http://sodipodi.sourceforge.net/DTD/sodipodi-0.dtd" xmlns:svg="http://www.w3.org/2000/svg" xmlns:xlink="http://www.w3.org/1999/xlink"><defs id="defs2"><linearGradient id="linearGradient4610"><stop id="stop4606" offset="0" style="stop-color:#afe9dd;stop-opacity:1;"/><stop id="stop4608" offset="1" style="stop-color:#c8f0e8;stop-opacity:1"/></linearGradient><linearGradient id="linearGradient4602"><stop id="stop4598" offset="0" style="stop-color:#ffeda5;stop-opacity:1"/><stop id="stop4600" offset="1" style="stop-color:#ffe680;stop-opacity:1"/></linearGradient><linearGradient id="linearGradient4594"><stop id="stop4590" offset="0" style="stop-color:#fbcaa9;stop-opacity:1"/><stop id="stop4592" offset="1" style="stop-color:#fabe96;stop-opacity:1"/></linearGradient><linearGradient gradientTransform="matrix(3.7795282,0,0,3.7795282,570.49738,-311.21352)" gradientUnits="userSpaceOnUse" id="linearGradient4742" x1="-132.66093" x2="-92.973427" xlink:href="#linearGradient4610" y1="162.0361" y2="138.88506"/><linearGradient gradientTransform="matrix(3.779528,0,0,3.779528,570.49736,-311.2135)" gradientUnits="userSpaceOnUse" id="linearGradient4744" x1="-92.973427" x2="-53.285931" xlink:href="#linearGradient4594" y1="138.88506" y2="162.0361"/><linearGradient gradientTransform="matrix(3.7795283,0,0,3.7795283,570.49739,-311.21353)" gradientUnits="userSpaceOnUse" id="linearGradient4746" x1="-92.973427" x2="-92.973427" xlink:href="#linearGradient4602" y1="138.88506" y2="92.582977"/><linearGradient gradientUnits="userSpaceOnUse" id="linearGradient4649" x1="0.60742188" x2="83.857422" xlink:href="#linearGradient4594" y1="802.82617" y2="1026.5762"/><linearGradient gradientUnits="userSpaceOnUse" id="linearGradient4886" x1="350.87057" x2="190.0551" xlink:href="#linearGradient4602" y1="252.42262" y2="183.80746"/></defs><path d="M 73.289062 136.14844 L 72.552734 298.3125 L 213.36328 378.76562 L 214.08594 216.60352 L 90.953125 146.24219 L 73.289062 136.14844 z M 105.29102 181.99805 A 10 10 0 0 1 114.1875 186.99414 A 10 10 0 0 1 110.52734 200.6543 A 10 10 0 0 1 96.867188 196.99414 A 10 10 0 0 1 100.52734 183.33398 A 10 10 0 0 1 105.29102 181.99805 z M 182.36523 224.78516 A 10 10 0 0 1 191.26172 229.78125 A 10 10 0 0 1 187.60156 243.44141 A 10 10 0 0 1 173.94141 239.78125 A 10 10 0 0 1 177.60156 226.12109 A 10 10 0 0 1 182.36523 224.78516 z M 143.08594 247.46289 A 10 10 0 0 1 151.98242 252.45898 A 10 10 0 0 1 148.32227 266.11914 A 10 10 0 0 1 134.66211 262.45898 A 10 10 0 0 1 138.32227 248.79883 A 10 10 0 0 1 143.08594 247.46289 z M 103.80859 270.13867 A 10 10 0 0 1 112.70508 275.13672 A 10 10 0 0 1 109.04492 288.79688 A 10 10 0 0 1 95.384766 285.13672 A 10 10 0 0 1 99.044922 271.47656 A 10 10 0 0 1 103.80859 270.13867 z M 180.88086 312.92383 A 10 10 0 0 1 189.77734 317.92188 A 10 10 0 0 1 186.11719 331.58203 A 10 10 0 0 1 172.45703 327.92188 A 10 10 0 0 1 176.11719 314.26172 A 10 10 0 0 1 180.88086 312.92383 z " id="path4662" style="opacity:1;fill:#000000;fill-opacity:1;fill-rule:nonzero;stroke:none;stroke-width:10;stroke-linecap:round;stroke-linejoin:round;stroke-miterlimit:10;stroke-dasharray:none;stroke-dashoffset:56.27999878;stroke-opacity:1" transform="scale(0.26458333)"/><path d="M 365.62109 134.89062 L 224.10352 216.5957 L 224.08594 217.11328 L 223.87305 264.64258 L 223.36523 378.67578 L 364.88867 296.9668 L 365.62109 134.89062 z M 324.45117 185.70898 A 10 10 0 0 1 325.16016 185.7168 A 10 10 0 0 1 333.34961 190.70703 A 10 10 0 0 1 329.6875 204.36719 A 10 10 0 0 1 316.02734 200.70703 A 10 10 0 0 1 319.6875 187.04688 A 10 10 0 0 1 324.45117 185.70898 z M 294.25391 246.78711 A 10 10 0 0 1 294.96094 246.79492 A 10 10 0 0 1 303.15039 251.7832 A 10 10 0 0 1 299.49023 265.44336 A 10 10 0 0 1 285.83008 261.7832 A 10 10 0 0 1 289.49023 248.12305 A 10 10 0 0 1 294.25391 246.78711 z M 264.75977 307.87305 A 10 10 0 0 1 272.94922 312.86328 A 10 10 0 0 1 269.28906 326.52344 A 10 10 0 0 1 255.62891 322.86328 A 10 10 0 0 1 259.28906 309.20312 A 10 10 0 0 1 264.75977 307.87305 z " id="path4664" style="opacity:1;fill:#000000;fill-opacity:1;fill-rule:nonzero;stroke:none;stroke-width:10;stroke-linecap:round;stroke-linejoin:round;stroke-miterlimit:10;stroke-dasharray:none;stroke-dashoffset:56.27999878;stroke-opacity:1" transform="scale(0.26458333)"/><path d="M 219.89062 45.824219 L 78.367188 127.53125 L 219.10156 207.91602 L 219.43945 207.73633 L 360.61914 126.22656 L 219.89062 45.824219 z M 219.99414 72.8125 A 10 10 0 0 1 228.89062 77.810547 A 10 10 0 0 1 225.23047 91.470703 A 10 10 0 0 1 211.57031 87.810547 A 10 10 0 0 1 215.23047 74.150391 A 10 10 0 0 1 219.99414 72.8125 z M 180.71484 95.490234 A 10 10 0 0 1 180.7168 95.490234 A 10 10 0 0 1 189.61133 100.48828 A 10 10 0 0 1 185.95117 114.14844 A 10 10 0 0 1 172.29102 110.48828 A 10 10 0 0 1 175.95117 96.828125 A 10 10 0 0 1 180.71484 95.490234 z M 297.06641 115.59961 A 10 10 0 0 1 305.96289 120.59766 A 10 10 0 0 1 302.30273 134.25781 A 10 10 0 0 1 288.64258 130.59766 A 10 10 0 0 1 292.30273 116.93555 A 10 10 0 0 1 297.06641 115.59961 z M 141.4375 118.16797 A 10 10 0 0 1 150.33398 123.16406 A 10 10 0 0 1 146.67383 136.82422 A 10 10 0 0 1 133.01367 133.16406 A 10 10 0 0 1 136.67383 119.50391 A 10 10 0 0 1 141.4375 118.16797 z M 257.78906 138.27734 A 10 10 0 0 1 266.68555 143.27344 A 10 10 0 0 1 263.02539 156.93359 A 10 10 0 0 1 249.36523 153.27344 A 10 10 0 0 1 253.02539 139.61328 A 10 10 0 0 1 257.78906 138.27734 z M 218.51172 160.95312 A 10 10 0 0 1 227.4082 165.95117 A 10 10 0 0 1 223.74805 179.61133 A 10 10 0 0 1 210.08789 175.95117 A 10 10 0 0 1 213.74805 162.29102 A 10 10 0 0 1 218.51172 160.95312 z " id="path4666" style="opacity:1;fill:#000000;fill-opacity:1;fill-rule:nonzero;stroke:none;stroke-width:10;stroke-linecap:round;stroke-linejoin:round;stroke-miterlimit:10;stroke-dasharray:none;stroke-dashoffset:56.27999878;stroke-opacity:1" transform="scale(0.26458333)"/><g id="g4686" transform="rotate(-120,5.0186348,81.748006)"/><g id="g4700" transform="rotate(-120,5.7730008,81.968256)"/><g id="g4718" transform="rotate(-120,5.0185988,81.748356)"/></svg>