<?xml version="1.0" ?>
<!DOCTYPE svg  PUBLIC '-//W3C//DTD SVG 1.1//EN'  'http://www.w3.org/Graphics/SVG/1.1/DTD/svg11.dtd'>
<svg height="43.3492mm" style="shape-rendering:geometricPrecision; text-rendering:geometricPrecision; image-rendering:optimizeQuality; fill-rule:evenodd; clip-rule:evenodd" version="1.1" viewBox="0 0 4335 4335" width="43.3492mm" xml:space="preserve" xmlns="http://www.w3.org/2000/svg" xmlns:xlink="http://www.w3.org/1999/xlink">
  <defs>
    <style type="text/css">
      <![CDATA[
        .fil0 {fill:#fff}
      ]]>
    </style>
  </defs>
  <g id="Layer_x0020_1">
    <path class="fil0" d="M2172 788c6,-10 5,7 5,28 60,303 122,361 371,547 0,0 -237,279 -237,474 0,195 93,364 246,389 152,25 313,-127 330,-364 17,-237 -135,-449 -135,-449 319,-10 443,-353 542,-610 0,0 -17,364 34,500 51,135 169,229 169,229 0,0 -313,212 -313,406 0,195 -34,347 152,389 186,42 356,-203 356,-389 0,-186 -85,-279 -85,-279l68 -25c0,0 195,-59 313,-169 119,-110 284,-242 284,-242l-733 1402c0,0 -194,-219 -1297,-220 -25,0 -52,0 -81,0l0 0 -1 0 0 0 -1 0 0 0c-28,0 -55,0 -81,0 -1103,1 -1297,220 -1297,220l-733 -1402c0,0 166,132 284,242 119,110 313,169 313,169l68 25c0,0 -85,93 -85,279 0,186 169,432 356,389 186,-42 152,-195 152,-389 0,-195 -313,-406 -313,-406 0,0 119,-93 169,-229 51,-135 34,-500 34,-500 99,256 223,599 542,610 0,0 -152,212 -135,449 17,237 178,389 330,364 152,-25 246,-195 246,-389 0,-195 -237,-474 -237,-474 249,-187 311,-245 371,-547 0,-21 9,-32 5,-28 1,-8 22,-8 23,0zm-1247 2667c0,0 412,144 1267,144 855,0 1202,-144 1202,-144 0,0 102,-34 144,-152 42,-119 -135,-178 -135,-178l0 -271c0,0 68,-17 102,-85 34,-68 -17,-127 -17,-127 -334,-134 -830,-201 -1327,-201l-3 0c-496,0 -992,67 -1327,201 0,0 -51,59 -17,127 34,68 102,85 102,85l0 271c0,0 -178,59 -135,178 42,119 144,152 144,152zm2374 -48c-153,45 -484,116 -1056,116 -682,0 -1061,-95 -1179,-131 155,-48 471,-106 1094,-106l0 0 2 0 0 0c689,1 1002,71 1138,121zm-2364 41l-10 8c0,0 3,-3 10,-8zm1226 -466l0 0 -1 0 -1 0 0 0c-70,0 -127,-57 -127,-127 0,-70 57,-127 127,-127l0 0 1 0 1 0 0 0c70,0 127,57 127,127 0,70 -57,127 -127,127zm-495 -195c-44,0 -80,36 -80,80 0,44 36,80 80,80 44,0 80,-36 80,-80 0,-44 -36,-80 -80,-80zm988 0c44,0 80,36 80,80 0,44 -36,80 -80,80 -44,0 -80,-36 -80,-80 0,-44 36,-80 80,-80z"/>
  </g>
</svg>
