<?xml version="1.0" ?>
<svg id="icon" viewBox="0 0 512 512" xmlns="http://www.w3.org/2000/svg">
  <style>
    path {
      fill: #fff;
    }
  </style>
  <title/>
  <path d="M139.07,384.23a2.77,2.77,0,0,0,0,3.93l2.16,2.16a12.64,12.64,0,0,0,17.17.67c21.22-18.16,76.37-65.24,120.27-101.65a67.89,67.89,0,0,0,14.16-16.12L375,143A4.3,4.3,0,0,0,369,137L238.78,219.17a68.07,68.07,0,0,0-16.12,14.15C186.25,277.23,139.17,332.39,121,353.61a12.64,12.64,0,0,0,.68,17.16l2.16,2.16a2.77,2.77,0,0,0,3.93,0L281.2,219.5a8.22,8.22,0,0,1,11-.77,8,8,0,0,1,.58,11.83Z"/>
  <path d="M30.87,481.13,35,485.27c2.25,2.25,6.14,2.08,8.89-.4,12.14-11,41.55-36.74,67.16-55l21.69,21.7a24.08,24.08,0,0,0,34.05,0,4.77,4.77,0,0,0,0-6.76L67.15,345.19a4.76,4.76,0,0,0-6.75,0h0a24.08,24.08,0,0,0,0,34.05l21.7,21.69c-18.22,25.61-44,55-55,67.16-2.48,2.75-2.65,6.64-.4,8.89Z"/>
  <path d="M159.48,39.55l81.79,35.78A35.1,35.1,0,0,0,266.1,76.6L391.88,36.19c6.21-2,4.67-11.17-1.85-11L161.4,29.88A5,5,0,0,0,159.48,39.55Z"/>
  <path d="M120.89,244.77l48.73-21.66a40.13,40.13,0,0,0,12.14-8.32c2.63-2.63,1.7-7.24-1.83-9-9.44-4.64-20.42-3.5-28.09,2.92l-35.25,29.49C113.25,241,116.87,246.55,120.89,244.77Z"/>
  <path d="M129.82,163.83l83.58-6.26a6.07,6.07,0,0,1,5.95,8.62l-6.23,13.33a9.3,9.3,0,0,0,12.61,12.25l179.69-90.42a3.89,3.89,0,0,1,5.23,5.23L320.23,286.27a9.3,9.3,0,0,0,12.25,12.61l13.33-6.23a6.07,6.07,0,0,1,8.62,6l-6.26,83.58c-.62,8.31,11.09,10.73,13.81,2.85L482.43,35.61a4.74,4.74,0,0,0-6-6L127,150C119.09,152.74,121.51,164.45,129.82,163.83Z"/>
  <path d="M475.81,120.12,435.4,245.9a35.1,35.1,0,0,0,1.27,24.83l35.78,81.79a5,5,0,0,0,9.67-1.92L486.85,122C487,115.45,477.81,113.91,475.81,120.12Z"/>
  <path d="M297.21,330.24a40.13,40.13,0,0,0-8.32,12.14l-21.66,48.73c-1.78,4,3.74,7.64,6.54,4.3l29.49-35.25c6.42-7.67,7.56-18.65,2.92-28.09h0C304.45,328.54,299.84,327.61,297.21,330.24Z"/>
</svg>
