<?xml version="1.0" ?>
<svg data-name="Layer 1" height="24" id="Layer_1" viewBox="0 0 24 24" width="24" xmlns="http://www.w3.org/2000/svg">
  <title/>
  <style>
    .mouth {
      animation: speak 1s ease-in-out alternate infinite;
      transform-origin: 50% 50%;
    }

    @keyframes speak {
      0%, 100% {
        transform: scale(0.9) rotate(180deg) translateY(-10%);
      }
      50% {
        transform: scale(0.8) rotate(180deg) translateY(-10%);
      }
    }

    .right-arm {
      transform-origin: calc(calc(7 / 24) * 100%) calc(calc(15 / 24) * 100%);
      animation: r-arm-swing 4s ease-in-out alternate infinite;
    }

    @keyframes r-arm-swing {
      0%, 100% {
        transform: rotate(-30deg);
      }
      50% {
        transform: rotate(-75deg);
      }
    }

    .left-arm {
      transform-origin: calc(calc(17 / 24) * 100%) calc(calc(15 / 24) * 100%);
      animation: l-arm-swing 4s ease-in-out alternate infinite;
    }
    @keyframes l-arm-swing {
      0%, 100% {
        transform: rotate(30deg);
      }
      50% {
        transform: rotate(75deg);
      }
    }

    @keyframes sway {
      0%, 100% {
        transform: rotate(-2.5deg);
      }
      50% {
        transform: rotate(2.5deg);
      }
    }
  </style>
  <path class="body" d="M19,22c-.7263.2504-1.565-1.5-2.3333-1.5S15.1016,22,14.3333,22,12.7683,20.5,12,20.5,10.435,22,9.6667,22s-1.5651-1.5-2.3334-1.5S5.7263,22.2504,5,22V9a7,7,0,0,1,7-7h0a7,7,0,0,1,7,7Z" style="fill:#4c9ae8"/>
  <path class="mouth" d="M9,15a2.99994,2.99994,0,0,1,3-3h0a2.99994,2.99994,0,0,1,3,3Z" style="fill:#fff"/>
  <path class="left-eye" d="M13.9826,9.8299A1.6791,1.6791,0,0,0,16.659,7.8015C16.0989,7.0624,13.4225,9.0908,13.9826,9.8299Z" style="fill:#000"/>
  <path class="right-eye" d="M10.069,9.8299A1.6791,1.6791,0,1,1,7.3926,7.8015C7.9527,7.0624,10.6291,9.0908,10.069,9.8299Z" style="fill:#000"/>
  <path class="left-arm" d="M21.5303,12.6516,18.5,15.682l-2.1213-2.1213,3.0303-3.0304a1.5,1.5,0,0,1,2.1213,0h0A1.5,1.5,0,0,1,21.5303,12.6516Z" style="fill:#4c9ae8"/>
  <path class="right-arm" d="M2.4393,12.6516,5.4697,15.682,7.591,13.5607,4.5607,10.5303a1.50007,1.50007,0,0,0-2.1214,0h0A1.50013,1.50013,0,0,0,2.4393,12.6516Z" style="fill:#4c9ae8"/>
  <!-- <circle class="tool" cx="12" cy="12" r="1" style="fill:#ff0000"/> -->
</svg>
