<?xml version="1.0" ?>
<svg data-name="Layer 1" height="24" id="Layer_1" viewBox="0 0 24 24" width="24" xmlns="http://www.w3.org/2000/svg">
  <title/>
  <style>
    .skull {
      animation: shake .5s ease-in-out alternate infinite;
    }
    .jaw {
      animation: shake .2s ease-in-out alternate infinite;
    }

    @keyframes shake {
      0%, 100%; {
        transform: rotate(5deg);
      }
      25% {
        transform-origin: calc(calc(6 / 24) * 100%) calc(calc(16 / 24) * 100%);
      }
      50% {
        transform: rotate(-5deg);
      }
      75% {
        transform-origin: calc(calc(18 / 24) * 100%) calc(calc(16 / 24) * 100%);
      }
    }
  </style>
  <g class="jaw">
    <polygon class="backOfMouth" points="18 17 17 20 7 20 6 17 6 14 18 14 18 17" style="fill:#738394"/>
    <path class="jawbone" d="M16.5,16v1.5833a2,2,0,0,1-2,2h-5a2,2,0,0,1-2-2V16H6v2.7256a1.99981,1.99981,0,0,0,.8313,1.623L10,22.6305l.6-.3a3.13024,3.13024,0,0,1,2.8,0l.6.3,3.1687-2.2819A1.99981,1.99981,0,0,0,18,18.7256V16Z" style="fill:#d9e3e6"/>
    <rect class="lowerteeth" height="1.75" style="fill:#738394" width="1" x="10.5" y="18.75"/>
    <rect class="lowerteeth" height="1.75" style="fill:#738394" width="1" x="12.5" y="18.75"/>
  </g>
  <g class="skull">
    <path class="skullDome" d="M18,15H6a2,2,0,0,1-2-2V12c0-.3052.5917-.6948.5917-1S4,10.5781,4,10V9a7,7,0,0,1,7-7h2a7,7,0,0,1,7,7v1c0,.5156-.5917.6948-.5917,1S20,11.5469,20,12v1A2,2,0,0,1,18,15Z" style="fill:#d9e3e6"/>
    <path class="face" d="M14,18H10a1,1,0,0,1-1-1V14c.75,0,.8116-.676,1.8367-2.0694a1.86242,1.86242,0,0,1,2.3266,0C14.1883,13.3239,14.25,14,15,14v3A1,1,0,0,1,14,18Z" style="fill:#d9e3e6"/>
    <path class="leftEye" d="M18.024,12.1795h-.0001c-.2283.4844-.957.5879-2.0464.6252-1.0267.0344-1.8052.396-2.2926-1.7242-.1513-.5448.9017-.9504,2.1202-1.4622C18.4963,8.488,18.5833,11.5192,18.024,12.1795Z" style="fill:#738394"/>
    <path class="rightEye" d="M5.9464,12.1795h0c.2284.4844.957.5879,2.0465.6252,1.0266.0344,1.8052.396,2.2926-1.7242.1513-.5448-.9017-.9504-2.1202-1.4622C5.474,8.488,5.387,11.5192,5.9464,12.1795Z" style="fill:#738394"/>
    <path class="nose" d="M10.7698,14.6549h0a6.56476,6.56476,0,0,1,.7539-1.4853.53563.53563,0,0,1,.9154,0,6.54136,6.54136,0,0,1,.7544,1.4853.53554.53554,0,0,1-.5248.6758c-.5243,0-.3989-.6083-.6687-.6036-.2835.0053-.1971.6036-.7059.6036a.53491.53491,0,0,1-.5243-.6758Z" style="fill:#738394"/>
    <rect class="upperteeth" height="1.75" style="fill:#738394" width="1" x="10.5" y="17"/>
    <rect class="upperteeth" height="1.75" style="fill:#738394" width="1" x="12.5" y="17"/>
  </g>
  <!-- <circle class="tool" cx="6" cy="16" r="1" style="fill:#ff0000"/> -->
</svg>
